<svg width="24" height="24" viewBox="0 0 24 24" fill="none" xmlns="http://www.w3.org/2000/svg">
<path d="M4.48438 6.21975V18.3597C4.48424 18.7394 4.55893 19.1154 4.70417 19.4662C4.84941 19.8171 5.06236 20.1358 5.33084 20.4043C5.59932 20.6728 5.91807 20.8857 6.26888 21.031C6.61969 21.1762 6.99569 21.2509 7.37538 21.2507H16.6254C17.3919 21.2507 18.1269 20.9463 18.6689 20.4043C19.2109 19.8623 19.5154 19.1272 19.5154 18.3608V6.21875" stroke="black" stroke-width="1.5" stroke-linecap="round" stroke-linejoin="round"/>
<path d="M8.53137 9.68801L8.89038 10.393C9.12947 10.8756 9.49866 11.2818 9.95629 11.5657C10.4139 11.8497 10.9418 12.0001 11.4804 12H12.5204C13.0589 12.0001 13.5868 11.8497 14.0445 11.5657C14.5021 11.2818 14.8713 10.8756 15.1104 10.393L15.4694 9.68801M19.5164 6.21901L16.3824 3.08501C16.1641 2.86927 15.8693 2.74881 15.5624 2.75001H8.43837C8.13114 2.74855 7.83588 2.86903 7.61737 3.08501L4.48438 6.22001L19.5164 6.21901Z" stroke="black" stroke-width="1.5" stroke-linecap="round" stroke-linejoin="round"/>
</svg>
