<svg xmlns="http://www.w3.org/2000/svg" width="19" height="19" viewBox="0 0 19 19" fill="none">
    <path opacity="0.2" d="M19.0002 9.65148C19.0002 11.8911 18.1105 14.039 16.5269 15.6226C14.9433 17.2062 12.7954 18.0959 10.5558 18.0959C8.31617 18.0959 6.16829 17.2062 4.58465 15.6226C3.00101 14.039 2.11133 11.8911 2.11133 9.65148C2.11133 7.41187 3.00101 5.26399 4.58465 3.68035C6.16829 2.09671 8.31617 1.20703 10.5558 1.20703C12.7954 1.20703 14.9433 2.09671 16.5269 3.68035C18.1105 5.26399 19.0002 7.41187 19.0002 9.65148Z" fill="black"/>
    <path fill-rule="evenodd" clip-rule="evenodd" d="M8.44444 15.6825C10.3641 15.6825 12.2051 14.92 13.5626 13.5626C14.92 12.2051 15.6825 10.3641 15.6825 8.44444C15.6825 6.52478 14.92 4.68374 13.5626 3.32634C12.2051 1.96893 10.3641 1.20635 8.44444 1.20635C6.52478 1.20635 4.68374 1.96893 3.32634 3.32634C1.96893 4.68374 1.20635 6.52478 1.20635 8.44444C1.20635 10.3641 1.96893 12.2051 3.32634 13.5626C4.68374 14.92 6.52478 15.6825 8.44444 15.6825ZM8.44444 16.8889C9.55338 16.8889 10.6515 16.6705 11.676 16.2461C12.7005 15.8217 13.6314 15.1997 14.4156 14.4156C15.1997 13.6314 15.8217 12.7005 16.2461 11.676C16.6705 10.6515 16.8889 9.55338 16.8889 8.44444C16.8889 7.3355 16.6705 6.23742 16.2461 5.2129C15.8217 4.18837 15.1997 3.25746 14.4156 2.47332C13.6314 1.68918 12.7005 1.06717 11.676 0.642795C10.6515 0.218422 9.55338 -1.65245e-08 8.44444 0C6.20484 3.33727e-08 4.05696 0.88968 2.47332 2.47332C0.88968 4.05696 0 6.20484 0 8.44444C0 10.6841 0.88968 12.8319 2.47332 14.4156C4.05696 15.9992 6.20484 16.8889 8.44444 16.8889Z" fill="black"/>
    <path fill-rule="evenodd" clip-rule="evenodd" d="M8.44497 4.22266C8.60494 4.22266 8.75836 4.2862 8.87148 4.39932C8.9846 4.51244 9.04815 4.66586 9.04815 4.82583V8.44488C9.04815 8.60485 8.9846 8.75827 8.87148 8.87139C8.75836 8.98451 8.60494 9.04805 8.44497 9.04805C8.285 9.04805 8.13158 8.98451 8.01846 8.87139C7.90534 8.75827 7.8418 8.60485 7.8418 8.44488V4.82583C7.8418 4.66586 7.90534 4.51244 8.01846 4.39932C8.13158 4.2862 8.285 4.22266 8.44497 4.22266Z" fill="black"/>
    <path fill-rule="evenodd" clip-rule="evenodd" d="M12.6672 8.44497C12.6672 8.60494 12.6036 8.75836 12.4905 8.87148C12.3774 8.9846 12.224 9.04815 12.064 9.04815H8.44497C8.285 9.04815 8.13158 8.9846 8.01846 8.87148C7.90534 8.75836 7.8418 8.60494 7.8418 8.44497C7.8418 8.285 7.90534 8.13158 8.01846 8.01846C8.13158 7.90534 8.285 7.8418 8.44497 7.8418H12.064C12.224 7.8418 12.3774 7.90534 12.4905 8.01846C12.6036 8.13158 12.6672 8.285 12.6672 8.44497Z" fill="black"/>
</svg>