<svg xmlns="http://www.w3.org/2000/svg" width="24" height="22" viewBox="0 0 24 22" fill="none">
    <path fill-rule="evenodd" clip-rule="evenodd" d="M5.86749 0C5.54419 0.000106982 5.22592 0.0811214 4.94094 0.23585C4.65596 0.390578 4.41309 0.614233 4.23389 0.886953L0.207106 7.00693C-0.0386076 7.38218 -0.067779 7.86204 0.130811 8.26458C2.33571 12.7305 5.39794 16.7054 9.13806 19.9564L11.1015 21.6633C11.3517 21.8806 11.6702 22 11.9997 22C12.3291 22 12.6477 21.8806 12.8978 21.6633L14.8613 19.9576C18.6019 16.7063 21.6646 12.731 23.8696 8.26458C24.0682 7.86204 24.0379 7.38218 23.7922 7.00693L19.7632 0.886953C19.584 0.614603 19.3412 0.391271 19.0565 0.236754C18.7717 0.0822366 18.4537 0.00130634 18.1307 0.00113704L5.86749 0ZM5.63412 1.8319C5.65977 1.79303 5.6945 1.76117 5.7352 1.73916C5.77591 1.71714 5.82135 1.70564 5.86749 1.70568H8.49292L6.34433 6.93188C6.29659 7.05198 6.25905 7.176 6.23213 7.30258C5.44197 7.24284 4.65275 7.17082 3.86476 7.08653L2.28838 6.91937L5.63412 1.8319ZM2.21545 8.62619C4.22974 12.369 6.88713 15.7172 10.0626 18.5134L6.55639 9.03669C5.59979 8.97002 4.64445 8.88586 3.69085 8.78425L2.21545 8.62619ZM8.39307 9.14244L11.9991 18.8921L15.6063 9.14244C13.2027 9.25286 10.7955 9.25286 8.39194 9.14244M17.443 9.03669L13.9368 18.5134C17.1122 15.7172 19.7696 12.369 21.7839 8.62619L20.3085 8.78425C19.3548 8.88507 18.3996 8.96922 17.443 9.03669ZM21.7098 6.91937L20.1323 7.08766C19.3443 7.17196 18.5551 7.24398 17.765 7.30372C17.7385 7.17679 17.7013 7.05239 17.6539 6.93188L15.5053 1.70568H18.1307C18.1769 1.70564 18.2223 1.71714 18.263 1.73916C18.3037 1.76117 18.3384 1.79303 18.3641 1.8319L21.7098 6.91937ZM16.0293 7.41402C13.3432 7.55502 10.6565 7.55502 7.96896 7.41402L10.3161 1.70568H13.6821L16.0293 7.41402Z" fill="#4DD1EF"/>
</svg>