<svg width="24" height="24" viewBox="0 0 24 24" fill="none" xmlns="http://www.w3.org/2000/svg">
    <path
        d="M6.11111 17.0365V10.6476M11.2222 17.0365V6.81424M16.3333 17.0365V14.4809M11.2222 1.70312H3.55556C2.87778 1.70313 2.22776 1.97237 1.7485 2.45163C1.26925 2.93089 1 3.58091 1 4.25868V19.592C1 20.2698 1.26925 20.9198 1.7485 21.3991C2.22776 21.8783 2.87778 22.1476 3.55556 22.1476H18.8889C19.5667 22.1476 20.2167 21.8783 20.6959 21.3991C21.1752 20.9198 21.4444 20.2698 21.4444 19.592V11.9253"
        stroke="black" stroke-width="2" stroke-linecap="round" stroke-linejoin="round" />
    <path
        d="M16.75 4.60048e-07C15.2313 4.60048e-07 14 1.2913 14 2.88411C14 5.76822 17.25 8.39014 19 9C20.75 8.39014 24 5.76822 24 2.88411C24 1.2913 22.7688 4.60048e-07 21.25 4.60048e-07C20.32 4.60048e-07 19.4975 0.484269 19 1.22549C18.7464 0.846719 18.4095 0.537601 18.0178 0.324286C17.6262 0.110972 17.1913 -0.000261051 16.75 4.60048e-07Z"
        fill="black" />
</svg>