<svg width="20" height="20" viewBox="0 0 20 20" fill="none" xmlns="http://www.w3.org/2000/svg">
    <path
        d="M8.1277 14.4088L8.12778 14.4088C8.26882 14.3845 8.42989 14.3486 8.60894 14.3027C10.8794 13.7329 12.5 11.9979 12.5 10C12.5 7.49928 10.0011 5.5 7 5.5C3.99889 5.5 1.5 7.49928 1.5 10C1.5 11.4218 2.31951 12.7282 3.66504 13.5734L3.67642 13.5805L3.68817 13.5871L3.72417 13.6071L3.72544 13.6078L4.5 14.0352V16.503V17.7365L5.35887 16.8512L7.64836 14.4912L8.1277 14.4088ZM8.2973 15.3938L8.13846 15.422L8.02612 15.5379L4.35912 19.3179L4.359 19.318C4.28971 19.3895 4.20066 19.4386 4.10325 19.4592C4.00585 19.4797 3.90453 19.4708 3.81226 19.4334C3.71999 19.396 3.64099 19.3319 3.58536 19.2494C3.52973 19.1668 3.5 19.0695 3.5 18.97V14.92V14.6309L3.24948 14.4867L3.12594 14.4156C1.5112 13.3984 0.5 11.7854 0.5 10C0.5 7.03169 3.33504 4.5 7 4.5C10.665 4.5 13.5 7.03169 13.5 10C13.5 12.4456 11.5887 14.5854 8.85214 15.2731L8.85214 15.2731L8.84949 15.2738C8.667 15.3207 8.48281 15.3607 8.2973 15.3938ZM14.1694 13.8015L14.6909 12.9025L15.5 13.7373V12.503V10.0352L16.2746 9.60778L16.2758 9.60707L16.3118 9.58707L16.3235 9.58059L16.3348 9.57349C17.6817 8.72815 18.5 7.42159 18.5 6C18.5 3.49928 16.0011 1.5 13 1.5C11.6844 1.5 10.4881 1.87552 9.54807 2.5H7.98778C9.17215 1.28822 10.9687 0.5 13 0.5C16.665 0.5 19.5 3.03169 19.5 6C19.5 7.78524 18.4879 9.39832 16.874 10.4156L16.7505 10.4867L16.5 10.6309V10.92V14.97C16.5 15.0695 16.4703 15.1668 16.4146 15.2494C16.359 15.3319 16.28 15.396 16.1877 15.4334C16.0955 15.4708 15.9942 15.4797 15.8967 15.4592C15.7993 15.4386 15.7103 15.3895 15.641 15.318L15.6408 15.3178L14.1694 13.8015Z"
        fill="#00ABFB" stroke="currentColor" />
</svg>