<svg width="18" height="16" viewBox="0 0 18 16" fill="none" xmlns="http://www.w3.org/2000/svg">
<path d="M4.50366 5.68986L5.56491 4.63086L8.06691 7.13286L12.4432 2.75586L13.5044 3.81711L8.06691 9.25311L4.50366 5.68986Z" fill="#777777"/>
<path d="M15.75 0.5H2.25C1.85254 0.501187 1.4717 0.659604 1.19065 0.940651C0.909604 1.2217 0.751187 1.60254 0.75 2L0.753 11.003C0.753793 11.3998 0.911767 11.7801 1.19234 12.0607C1.47291 12.3412 1.85321 12.4992 2.25 12.5H7.5V14L6.003 14.003L6 15.5H12L12.003 14.003L10.5 14V12.5H15.75C16.1475 12.4988 16.5283 12.3404 16.8093 12.0593C17.0904 11.7783 17.2488 11.3975 17.25 11V2C17.2488 1.60254 17.0904 1.2217 16.8093 0.940651C16.5283 0.659604 16.1475 0.501187 15.75 0.5ZM15.75 11H2.25V2H15.75V11Z" fill="#777777"/>
</svg>
