<svg width="46" height="46" viewBox="0 0 46 46" fill="none" xmlns="http://www.w3.org/2000/svg">
    <path
        d="M5.75 34.5C7.27499 34.5 8.73753 35.1058 9.81586 36.1841C10.8942 37.2625 11.5 38.725 11.5 40.25C11.5 41.775 10.8942 43.2375 9.81586 44.3159C8.73753 45.3942 7.27499 46 5.75 46C4.22501 46 2.76247 45.3942 1.68414 44.3159C0.605802 43.2375 0 41.775 0 40.25C0 38.725 0.605802 37.2625 1.68414 36.1841C2.76247 35.1058 4.22501 34.5 5.75 34.5ZM40.25 34.5C41.775 34.5 43.2375 35.1058 44.3159 36.1841C45.3942 37.2625 46 38.725 46 40.25C46 41.775 45.3942 43.2375 44.3159 44.3159C43.2375 45.3942 41.775 46 40.25 46C38.725 46 37.2625 45.3942 36.1841 44.3159C35.1058 43.2375 34.5 41.775 34.5 40.25C34.5 38.725 35.1058 37.2625 36.1841 36.1841C37.2625 35.1058 38.725 34.5 40.25 34.5ZM5.75 37.375C4.9875 37.375 4.25624 37.6779 3.71707 38.2171C3.1779 38.7562 2.875 39.4875 2.875 40.25C2.875 41.0125 3.1779 41.7438 3.71707 42.2829C4.25624 42.8221 4.9875 43.125 5.75 43.125C6.5125 43.125 7.24376 42.8221 7.78293 42.2829C8.3221 41.7438 8.625 41.0125 8.625 40.25C8.625 39.4875 8.3221 38.7562 7.78293 38.2171C7.24376 37.6779 6.5125 37.375 5.75 37.375ZM40.25 37.375C39.4875 37.375 38.7562 37.6779 38.2171 38.2171C37.6779 38.7562 37.375 39.4875 37.375 40.25C37.375 41.0125 37.6779 41.7438 38.2171 42.2829C38.7562 42.8221 39.4875 43.125 40.25 43.125C41.0125 43.125 41.7438 42.8221 42.2829 42.2829C42.8221 41.7438 43.125 41.0125 43.125 40.25C43.125 39.4875 42.8221 38.7562 42.2829 38.2171C41.7438 37.6779 41.0125 37.375 40.25 37.375ZM24.4375 12.9375V21.5625H33.0625V24.4375H24.4375V33.0625H21.5625V24.4375H12.9375V21.5625H21.5625V12.9375H24.4375ZM5.75 0C7.27499 0 8.73753 0.605802 9.81586 1.68414C10.8942 2.76247 11.5 4.22501 11.5 5.75C11.5 7.27499 10.8942 8.73753 9.81586 9.81586C8.73753 10.8942 7.27499 11.5 5.75 11.5C4.22501 11.5 2.76247 10.8942 1.68414 9.81586C0.605802 8.73753 0 7.27499 0 5.75C0 4.22501 0.605802 2.76247 1.68414 1.68414C2.76247 0.605802 4.22501 0 5.75 0ZM40.25 0C41.775 0 43.2375 0.605802 44.3159 1.68414C45.3942 2.76247 46 4.22501 46 5.75C46 7.27499 45.3942 8.73753 44.3159 9.81586C43.2375 10.8942 41.775 11.5 40.25 11.5C38.725 11.5 37.2625 10.8942 36.1841 9.81586C35.1058 8.73753 34.5 7.27499 34.5 5.75C34.5 4.22501 35.1058 2.76247 36.1841 1.68414C37.2625 0.605802 38.725 0 40.25 0ZM40.25 2.875C39.4875 2.875 38.7562 3.1779 38.2171 3.71707C37.6779 4.25624 37.375 4.9875 37.375 5.75C37.375 6.5125 37.6779 7.24376 38.2171 7.78293C38.7562 8.3221 39.4875 8.625 40.25 8.625C41.0125 8.625 41.7438 8.3221 42.2829 7.78293C42.8221 7.24376 43.125 6.5125 43.125 5.75C43.125 4.9875 42.8221 4.25624 42.2829 3.71707C41.7438 3.1779 41.0125 2.875 40.25 2.875ZM5.75 2.875C4.9875 2.875 4.25624 3.1779 3.71707 3.71707C3.1779 4.25624 2.875 4.9875 2.875 5.75C2.875 6.5125 3.1779 7.24376 3.71707 7.78293C4.25624 8.3221 4.9875 8.625 5.75 8.625C6.5125 8.625 7.24376 8.3221 7.78293 7.78293C8.3221 7.24376 8.625 6.5125 8.625 5.75C8.625 4.9875 8.3221 4.25624 7.78293 3.71707C7.24376 3.1779 6.5125 2.875 5.75 2.875Z"
        fill="currentColor" />
    <path
        d="M30.2996 41.7594C30.4463 42.7326 30.7309 43.6598 31.1363 44.5194C28.5359 45.5005 25.7793 46.0021 23 46C20.1351 46 17.3938 45.4768 14.8638 44.5194C15.2677 43.6598 15.5538 42.7326 15.7004 41.7594C17.963 42.642 20.4254 43.125 23 43.125C25.5746 43.125 28.037 42.642 30.2996 41.7594ZM44.5194 14.8638C45.5005 17.4641 46.0021 20.2207 46 23C46 25.8649 45.4768 28.6063 44.5194 31.1363C43.6443 30.7263 42.7148 30.4445 41.7594 30.2996C42.642 28.037 43.125 25.5746 43.125 23C43.125 20.4254 42.642 17.963 41.7594 15.7004C42.7148 15.5555 43.6443 15.2737 44.5194 14.8638ZM1.48063 14.8638C2.34026 15.2677 3.26744 15.5538 4.24063 15.7004C3.33654 18.0278 2.87345 20.5032 2.87501 23C2.87501 25.5746 3.35801 28.037 4.24063 30.2996C3.28523 30.4445 2.35569 30.7263 1.48063 31.1363C0.499561 28.5359 -0.00208819 25.7793 6.53309e-06 23C6.53309e-06 20.1351 0.523256 17.3938 1.48063 14.8638ZM23 6.53309e-06C25.8649 6.53309e-06 28.6063 0.523256 31.1363 1.48063C30.7263 2.35569 30.4445 3.28523 30.2996 4.24063C27.9722 3.33654 25.4969 2.87345 23 2.87501C20.4254 2.87501 17.963 3.35801 15.7004 4.24063C15.5555 3.28523 15.2737 2.35569 14.8638 1.48063C17.4641 0.499561 20.2207 -0.00208819 23 6.53309e-06Z"
        fill="currentColor" />
</svg>