<svg width="51" height="50" viewBox="0 0 51 50" fill="none" xmlns="http://www.w3.org/2000/svg">
    <circle cx="25.83" cy="24.9492" r="24.9492" fill="#C6E9FD" />
    <g opacity="0.2">
        <g filter="url(#filter0_d_2019_14596)">
            <path fill-rule="evenodd" clip-rule="evenodd"
                d="M36.6102 30.6759L23.9838 22.8606V37.4484L36.6102 30.6759ZM42.7079 32.961C43.0875 32.7571 43.4063 32.46 43.6326 32.099C43.859 31.7379 43.9852 31.3255 43.9988 30.9022C44.0124 30.479 43.9129 30.0596 43.7101 29.6854C43.5073 29.3112 43.2083 28.9951 42.8425 28.7684L22.8251 16.378C22.4482 16.1446 22.0141 16.0145 21.5682 16.0011C21.1224 15.9878 20.681 16.0917 20.2902 16.302C19.8994 16.5123 19.5735 16.8213 19.3466 17.1968C19.1196 17.5723 18.9999 18.0004 19 18.4365V41.5656C19.0003 41.9886 19.1133 42.4042 19.3278 42.7715C19.5422 43.1389 19.8509 43.4453 20.2233 43.6607C20.5957 43.876 21.019 43.9928 21.4516 43.9997C21.8842 44.0065 22.3112 43.9031 22.6905 43.6997L42.7079 32.961Z"
                fill="white" />
        </g>
    </g>
    <path fill-rule="evenodd" clip-rule="evenodd"
        d="M17.4541 37.0503L40.3499 24.6474L17.4541 10.3369V37.0503ZM41.5589 26.8826C41.9499 26.6713 42.2786 26.361 42.5122 25.9828C42.7457 25.6046 42.876 25.1718 42.8899 24.7275C42.9037 24.2832 42.8008 23.8431 42.5913 23.451C42.3818 23.059 42.0731 22.7288 41.6961 22.4935L18.8003 8.18296C18.4158 7.94266 17.974 7.80965 17.5208 7.79775C17.0675 7.78585 16.6193 7.89549 16.2228 8.11529C15.8262 8.33508 15.4957 8.65703 15.2656 9.04769C15.0354 9.43835 14.9141 9.8835 14.9141 10.3369V37.0503C14.9138 37.4904 15.0279 37.923 15.2452 38.3057C15.4624 38.6884 15.7754 39.0081 16.1533 39.2334C16.5313 39.4588 16.9614 39.5821 17.4014 39.5912C17.8413 39.6004 18.2761 39.495 18.6631 39.2856L41.5589 26.8826Z"
        fill="#00ABFB" />
    <defs>
        <filter id="filter0_d_2019_14596" x="15" y="12" width="33" height="36"
            filterUnits="userSpaceOnUse" color-interpolation-filters="sRGB">
            <feFlood flood-opacity="0" result="BackgroundImageFix" />
            <feColorMatrix in="SourceAlpha" type="matrix"
                values="0 0 0 0 0 0 0 0 0 0 0 0 0 0 0 0 0 0 127 0" result="hardAlpha" />
            <feOffset />
            <feGaussianBlur stdDeviation="2" />
            <feComposite in2="hardAlpha" operator="out" />
            <feColorMatrix type="matrix" values="0 0 0 0 0 0 0 0 0 0 0 0 0 0 0 0 0 0 0.25 0" />
            <feBlend mode="normal" in2="BackgroundImageFix" result="effect1_dropShadow_2019_14596" />
            <feBlend mode="normal" in="SourceGraphic" in2="effect1_dropShadow_2019_14596"
                result="shape" />
        </filter>
    </defs>
</svg>