<svg width="51" height="50" viewBox="0 0 51 50" fill="none" xmlns="http://www.w3.org/2000/svg">
<circle cx="25.83" cy="24.9492" r="24.9492" fill="#C6E9FD"/>
<path opacity="0.28" d="M35.5 39.5C34.5375 39.5 33.7138 39.1576 33.029 38.4728C32.3442 37.7879 32.0012 36.9637 32 36V18.5C32 17.5375 32.343 16.7138 33.029 16.029C33.715 15.3442 34.5387 15.0012 35.5 15C36.4613 14.9988 37.2856 15.3418 37.9727 16.029C38.6599 16.7162 39.0023 17.5398 39 18.5V36C39 36.9625 38.6576 37.7868 37.9727 38.4728C37.2879 39.1588 36.4637 39.5012 35.5 39.5ZM21.5 39.5C20.5375 39.5 19.7138 39.1576 19.029 38.4728C18.3442 37.7879 18.0012 36.9637 18 36V18.5C18 17.5375 18.343 16.7138 19.029 16.029C19.715 15.3442 20.5387 15.0012 21.5 15C22.4613 14.9988 23.2856 15.3418 23.9727 16.029C24.6599 16.7162 25.0023 17.5398 25 18.5V36C25 36.9625 24.6576 37.7868 23.9727 38.4728C23.2879 39.1588 22.4637 39.5012 21.5 39.5Z" fill="white"/>
<path d="M33 37.25C32.0375 37.25 31.2138 36.9076 30.529 36.2228C29.8442 35.5379 29.5012 34.7137 29.5 33.75V16.25C29.5 15.2875 29.843 14.4638 30.529 13.779C31.215 13.0942 32.0387 12.7512 33 12.75C33.9613 12.7488 34.7856 13.0918 35.4727 13.779C36.1599 14.4662 36.5023 15.2898 36.5 16.25V33.75C36.5 34.7125 36.1576 35.5368 35.4727 36.2228C34.7879 36.9088 33.9637 37.2512 33 37.25ZM19 37.25C18.0375 37.25 17.2138 36.9076 16.529 36.2228C15.8442 35.5379 15.5012 34.7137 15.5 33.75V16.25C15.5 15.2875 15.843 14.4638 16.529 13.779C17.215 13.0942 18.0387 12.7512 19 12.75C19.9613 12.7488 20.7856 13.0918 21.4727 13.779C22.1599 14.4662 22.5023 15.2898 22.5 16.25V33.75C22.5 34.7125 22.1576 35.5368 21.4727 36.2228C20.7879 36.9088 19.9637 37.2512 19 37.25Z" fill="#00ABFB"/>
</svg>
