<svg width="20" height="22" viewBox="0 0 20 22" fill="none" xmlns="http://www.w3.org/2000/svg">
    <path
        d="M4.52831 9.99061C6.91571 5.77394 8.1094 3.66602 10.0002 3.66602C11.891 3.66602 13.0846 5.77394 15.472 9.99061L15.7699 10.5153C17.7539 14.0191 18.7463 15.7709 17.8496 17.0518C16.9529 18.3327 14.7341 18.3327 10.298 18.3327H9.70237C5.26629 18.3327 3.04744 18.3327 2.15073 17.0518C1.25402 15.7709 2.24645 14.0191 4.2305 10.5153L4.52831 9.99061Z"
        stroke="currenColor" stroke-width="1.5" />
    <path d="M10 8.25V11.9167" stroke="currenColor" stroke-width="1.5" stroke-linecap="round" />
    <path
        d="M10.409 14.6667C10.409 14.9007 10.2219 15.0833 9.99991 15.0833C9.77788 15.0833 9.59082 14.9007 9.59082 14.6667C9.59082 14.4326 9.77788 14.25 9.99991 14.25C10.2219 14.25 10.409 14.4326 10.409 14.6667Z"
        fill="currenColor" stroke="currenColor" />
</svg>