<svg width="26" height="23" viewBox="0 0 26 23" fill="none" xmlns="http://www.w3.org/2000/svg">
    <path fill-rule="evenodd" clip-rule="evenodd"
        d="M6.61197 0C6.2752 0.000111845 5.94367 0.0848087 5.64682 0.24657C5.34996 0.408332 5.09697 0.642152 4.9103 0.927269L0.715735 7.32542C0.459784 7.71773 0.429397 8.21941 0.636262 8.64024C2.93303 13.3091 6.12286 17.4647 10.0188 20.8636L12.0641 22.648C12.3246 22.8751 12.6565 23 12.9997 23C13.3428 23 13.6747 22.8751 13.9352 22.648L15.9805 20.8647C19.877 17.4657 23.0672 13.3097 25.3642 8.64024C25.5711 8.21941 25.5395 7.71773 25.2836 7.32542L21.0867 0.927269C20.9 0.64254 20.6471 0.409056 20.3505 0.247515C20.0539 0.0859746 19.7226 0.00136572 19.3862 0.00118872L6.61197 0ZM6.36888 1.91517C6.3956 1.87453 6.43177 1.84123 6.47417 1.81821C6.51657 1.79519 6.56391 1.78317 6.61197 1.78321H9.3468L7.10868 7.24696C7.05895 7.37253 7.01985 7.50218 6.99181 7.63451C6.16871 7.57206 5.34661 7.49677 4.52579 7.40864L2.88373 7.23389L6.36888 1.91517ZM2.80776 9.01829C4.90598 12.9312 7.6741 16.4317 10.9818 19.355L7.32957 9.44744C6.33311 9.37775 5.33797 9.28977 4.34464 9.18353L2.80776 9.01829ZM9.24278 9.558L12.9991 19.7508L16.7565 9.558C14.2528 9.67344 11.7453 9.67344 9.24161 9.558M18.6697 9.44744L15.0175 19.355C18.3252 16.4317 21.0933 12.9312 23.1916 9.01829L21.6547 9.18353C20.6613 9.28894 19.6663 9.37691 18.6697 9.44744ZM23.1144 7.23389L21.4712 7.40983C20.6504 7.49795 19.8283 7.57325 19.0052 7.6357C18.9776 7.503 18.9389 7.37295 18.8895 7.24696L16.6513 1.78321H19.3862C19.4342 1.78317 19.4816 1.79519 19.524 1.81821C19.5664 1.84123 19.6025 1.87453 19.6293 1.91517L23.1144 7.23389ZM17.1971 7.75102C14.3992 7.89843 11.6005 7.89843 8.801 7.75102L11.246 1.78321H14.7522L17.1971 7.75102Z"
        fill="currentColor" />
</svg>