<svg xmlns="http://www.w3.org/2000/svg" width="21" height="21" viewBox="0 0 21 21" fill="none">
    <path
        d="M2.5 1.6405H18.5C18.7652 1.6405 19.0196 1.74586 19.2071 1.9334C19.3946 2.12093 19.5 2.37529 19.5 2.6405V4.2265C19.4999 4.4917 19.3946 4.74601 19.207 4.9335L12.793 11.3475C12.6055 11.535 12.5001 11.7893 12.5 12.0545V18.3595C12.5 18.5115 12.4653 18.6615 12.3987 18.7981C12.332 18.9347 12.235 19.0543 12.1152 19.1478C11.9954 19.2414 11.8558 19.3063 11.7071 19.3378C11.5584 19.3693 11.4044 19.3664 11.257 19.3295L9.257 18.8295C9.04075 18.7753 8.84881 18.6505 8.71166 18.4747C8.5745 18.299 8.50001 18.0824 8.5 17.8595V12.0545C8.49994 11.7893 8.39455 11.535 8.207 11.3475L1.793 4.9335C1.60545 4.74601 1.50006 4.4917 1.5 4.2265V2.6405C1.5 2.37529 1.60536 2.12093 1.79289 1.9334C1.98043 1.74586 2.23478 1.6405 2.5 1.6405Z"
        stroke="#656565" stroke-width="1.5" stroke-linecap="round" stroke-linejoin="round" />
</svg>