<svg width="26" height="26" viewBox="0 0 26 26" fill="none" xmlns="http://www.w3.org/2000/svg">
    <path
        d="M13 0C5.82504 0 0 5.82504 0 13C0 20.175 5.82504 26 13 26C20.162 26 25.9769 20.1958 25.9979 13.0385C25.9991 13.0257 25.9998 13.0128 26 13C25.9999 12.9885 25.9993 12.9769 25.9984 12.9654C25.9797 5.80632 20.1635 0 13 0ZM13 0.78C13.5697 0.78 14.1294 0.82212 14.6783 0.89726C14.6549 0.92846 14.7189 0.99866 14.9425 1.12684L15.2084 1.21732C15.5412 1.17598 15.3995 1.0621 15.1798 0.9776C15.983 1.12191 16.7696 1.34682 17.5276 1.64892C17.3176 1.69624 16.9978 1.72224 16.6816 1.70976C16.6894 2.33662 16.9676 4.01154 17.9218 3.7076C17.7523 3.74478 18.4605 4.44574 18.0944 4.563C17.8994 5.8734 16.8373 3.68914 16.2984 3.71774C15.4924 3.85372 16.4512 4.25204 16.1606 4.4473C15.398 5.1025 16.8204 5.78968 16.7055 4.68858C16.7991 5.57622 17.0997 5.54892 17.8191 5.50264C16.1756 5.78032 18.7343 6.41706 17.9033 6.94902C17.0799 6.8731 16.6184 7.18042 17.0838 7.98642C16.8654 8.73262 17.603 8.76538 17.856 9.0233L18.1324 8.99782L18.3113 8.97442C18.3043 8.97364 18.2967 8.9752 18.29 8.97416C19.3162 8.65826 18.7855 6.60452 19.8793 6.73868C19.6503 7.53298 20.9144 8.28932 20.2363 7.13726C19.774 6.5533 21.7357 7.55742 20.8715 7.84446C21.7121 8.95414 21.1195 6.8081 21.7456 7.39128C22.1525 8.10004 22.6291 7.5725 22.7399 7.54598C23.0092 7.47084 23.4156 7.58914 23.5225 7.65232C24.5534 8.63668 22.5459 8.22848 22.5163 8.98118C22.6255 9.46296 21.4139 8.85248 21.2326 8.72118C20.7015 7.28936 19.4914 8.71754 18.6014 8.94764C18.5713 8.9713 17.8402 9.54174 17.7541 9.6174C17.5456 10.8719 16.5373 11.6345 16.1632 12.9035C16.088 13.6367 16.3311 14.651 16.2292 15.4422C16.4663 16.4567 17.4262 17.0375 18.2629 17.5341C18.8926 17.9397 19.5491 17.1629 20.2267 17.154C20.8195 16.282 21.7685 16.9213 22.3046 16.8568C21.6871 17.8292 22.7638 18.5806 22.4591 19.6326C21.9814 20.2171 21.847 20.9937 21.5912 21.6913C19.3846 23.8727 16.3514 25.22 13 25.22C11.3758 25.222 9.76765 24.8995 8.26982 24.2715C8.54568 24.0206 8.70662 23.6467 9.07764 23.5396C10.7627 23.947 10.0292 21.8621 11.1732 21.3905C11.94 19.9854 9.4926 19.7618 8.619 19.2501C7.14168 19.0271 7.28052 17.2289 5.93892 16.8399C4.84016 16.665 5.23874 15.0816 4.43326 15.1663C3.73802 15.2955 3.46216 14.3387 3.07476 14.4071C2.98116 14.5059 2.5896 13.7649 2.1684 14.5813C0.9789 14.3179 1.81116 12.9522 1.30858 12.1875C1.10032 11.8373 1.90294 10.0415 1.04312 11.0851C1.00932 11.0253 0.98644 10.9439 0.9724 10.8485C1.08235 10.2292 1.23994 9.61936 1.44378 9.02434C1.5704 8.88368 1.716 8.81374 1.87642 8.86652C2.51212 8.72196 2.30074 9.72062 2.35326 10.3392C2.83244 10.5446 2.60806 8.52592 3.60386 8.47886C4.28168 7.71576 5.06766 7.06602 5.89186 6.54056C6.21322 6.76988 6.90482 6.74206 7.44718 6.23298C6.84294 6.11156 6.79952 5.65058 7.60708 5.4691C8.892 4.91686 7.02728 6.07438 8.07638 6.2413C9.21518 6.5767 8.24954 5.25122 8.7893 4.73278C8.22406 4.34798 9.1312 2.85194 8.14268 3.5165C8.48458 3.2721 7.95288 2.81346 8.25812 2.63458C8.38422 2.98818 9.01992 3.47386 9.24586 2.6585C9.88104 2.76692 9.79186 1.84678 10.1351 1.35174C11.7458 0.78416 10.4122 2.34572 10.3516 3.12052C10.8701 4.63112 11.7445 2.53812 12.6656 2.48612C13.7857 2.52434 13.6578 1.45366 13.6404 0.88062C13.3984 0.835342 13.1543 0.802367 12.909 0.78182C12.9394 0.78182 12.9696 0.78 13 0.78ZM8.67854 2.07142C8.88472 2.0462 8.55946 2.49366 8.11486 2.5675C7.52206 3.06176 8.02724 2.39382 8.27996 2.28514C8.48198 2.14058 8.6099 2.07974 8.67854 2.07142ZM17.7707 2.3985C17.7887 2.39694 17.8168 2.40188 17.8591 2.41618C18.05 2.73234 17.6472 2.40838 17.7707 2.3985ZM7.30496 2.54722C7.76074 2.58024 7.27506 3.6439 6.76858 3.69642C6.49714 3.6712 6.31176 4.09942 6.10194 4.2393C6.08114 4.3329 6.11858 2.77394 6.82734 2.71388C7.04444 2.58648 7.19966 2.53968 7.30496 2.54722ZM13.8668 2.57582C13.6344 2.58544 13.4618 2.68346 13.5567 2.93618C13.6924 3.06696 13.8902 3.09868 14.0704 3.09972C15.1806 2.96192 14.3783 2.5545 13.8668 2.57582ZM17.7993 2.77836C17.8487 2.78304 17.9639 2.82672 18.1782 2.93488C18.6108 3.48088 17.5861 2.75912 17.7993 2.77862M15.6614 3.17954C15.6473 3.18552 15.6356 3.21178 15.6315 3.26924C15.835 3.49804 15.7225 3.1525 15.6614 3.17954ZM16.4476 3.3683C16.431 3.36388 16.4294 3.40002 16.4627 3.5139C16.6813 3.76298 16.497 3.38182 16.4476 3.3683ZM18.6732 3.3709C18.8521 3.37012 19.3526 3.68134 19.2517 4.0209C18.7684 4.41142 18.9922 4.2029 18.8978 3.77C18.5741 3.48374 18.5661 3.37142 18.6732 3.3709ZM4.58146 4.95014C4.61682 4.9543 4.66726 4.99668 4.73642 5.10094C4.56378 5.63082 4.42858 4.9322 4.58146 4.95014ZM6.99556 5.25746C7.0278 5.25772 7.08032 5.28346 7.15754 5.35626C6.9888 5.48366 6.89936 5.25616 6.99556 5.25746ZM21.787 5.35106C21.833 5.3456 21.9235 5.41008 22.0745 5.58454C22.255 5.28814 23.1863 5.9761 22.3782 6.10038C22.2258 6.70826 21.5886 5.37394 21.7872 5.3508M4.60044 5.59494C4.61734 5.59104 4.63528 5.60144 4.65322 5.63238C4.4109 6.3466 4.48214 5.6212 4.60044 5.59494ZM20.3265 6.32866C20.3349 6.32676 20.3435 6.32694 20.3518 6.32918C20.4974 6.35336 21.0712 6.67966 21.3 6.9069C21.4401 7.22046 20.8406 6.66198 20.7191 6.69838C20.3796 6.44514 20.286 6.34088 20.3265 6.32866ZM4.30144 6.33464C4.33108 6.34062 4.35422 6.37104 4.36072 6.44124C3.9221 6.74622 4.173 6.30864 4.30144 6.33464ZM22.0792 6.916C22.1016 6.90638 22.166 6.94252 22.2992 7.06784C22.3226 7.38556 22.0119 6.9446 22.0792 6.916ZM19.408 7.51764C19.3541 7.52622 19.2715 7.62008 19.1586 7.86916C19.4732 8.23628 19.5694 7.49216 19.408 7.51764ZM22.7198 7.77972C22.6611 7.78752 22.5995 7.8533 22.5584 8.02334C23.0472 8.25656 22.8961 7.75684 22.7198 7.77972ZM13.2192 8.50252C13.156 8.4968 13.0676 8.52332 12.96 8.6125C13.3744 8.82674 13.4095 8.51916 13.2194 8.50226M13.793 8.69752C13.767 8.6879 13.7155 8.70584 13.6279 8.77942C13.7181 9.0051 13.8705 8.72664 13.793 8.69752ZM15.8574 10.0178C15.8322 10.0238 15.7994 10.0516 15.7573 10.1148C15.9169 10.3789 15.9653 9.9918 15.8571 10.0178M2.81372 10.1291C2.79006 10.1293 2.77576 10.1884 2.7898 10.3576C3.04356 10.6597 2.88496 10.1283 2.81372 10.1291ZM2.67254 10.5581C2.64888 10.5542 2.61326 10.6246 2.56594 10.8345C2.70894 11.2507 2.74404 10.5703 2.67254 10.5581ZM1.94636 10.7775C1.4417 10.7255 2.37042 11.6165 2.40708 12.0094C3.34178 12.2616 2.2763 12.5471 3.0667 12.8656C4.25672 13.2941 3.52118 12.337 3.01652 12.1355C3.21438 11.8175 2.51446 11.583 2.25732 10.8618C2.11978 10.8116 2.01864 10.7851 1.94636 10.7775ZM16.6891 10.9767C16.6356 10.9767 16.5766 11.0755 16.5516 11.3701C16.9005 11.454 16.8072 10.9767 16.6891 10.9767ZM2.9289 11.1888C2.9256 11.188 2.92215 11.1877 2.91876 11.1882C2.91537 11.1886 2.9121 11.1897 2.90914 11.1914C2.88184 11.2089 2.88002 11.2936 2.95594 11.4782L3.0147 11.5172C3.06332 11.3448 2.98064 11.2021 2.9289 11.1888ZM15.8005 11.2107C15.6476 11.2195 15.549 11.2887 15.6575 11.4696L15.7032 11.491H15.963C16.7344 11.4655 16.1364 11.1914 15.8005 11.2107ZM2.2048 12.1586C2.13642 12.1441 2.1268 12.2234 2.2906 12.4998C2.79084 12.6737 2.3556 12.1904 2.2048 12.1586ZM0.80886 12.1976C0.98228 12.9488 1.09278 13.8221 1.41466 14.4823C1.62734 15.2903 1.78412 14.2732 1.83716 14.91C2.0176 16.1127 1.2844 17.3519 2.1866 18.5052C2.6156 19.6682 3.55784 20.4831 4.2172 21.4958C2.0904 19.2972 0.78 16.3036 0.78 13C0.78 12.7301 0.7917 12.4631 0.80886 12.1976ZM3.91976 12.8913C3.85736 12.8991 3.80172 12.9657 3.78664 13.1375C4.35968 13.3718 4.10722 12.8677 3.91976 12.8913ZM4.83236 13.839C4.80714 13.8289 4.78088 13.9428 4.76372 14.2847L4.77412 14.4732C4.97692 15.015 4.90828 13.8689 4.83236 13.839ZM13.9521 14.6019C13.8874 14.5948 13.8866 14.6453 14.0665 14.8161C14.5467 14.9113 14.0946 14.6175 13.9521 14.6019ZM14.6505 14.7618C14.6206 14.7623 14.5816 14.7839 14.5327 14.84C14.7319 15.1531 14.7797 14.7594 14.6505 14.7618ZM14.5345 15.1044C14.4888 15.1117 14.4245 15.1421 14.3377 15.2079C14.5766 15.4658 14.7329 15.0722 14.5345 15.1044ZM14.1991 15.1546C14.1747 15.152 14.1378 15.1879 14.0873 15.2963C14.2303 15.5163 14.2719 15.1624 14.1991 15.1546ZM21.7963 17.576C21.7719 17.5734 21.735 17.609 21.6845 17.7177C21.8275 17.9377 21.8694 17.5835 21.7963 17.576Z"
        fill="currentColor" />
</svg>