<svg width="20" height="20" viewBox="0 0 20 20" fill="none" xmlns="http://www.w3.org/2000/svg">
    <path
        d="M10 19C14.9706 19 19 16.9853 19 14.5C19 12.0147 14.9706 10 10 10C5.02944 10 1 12.0147 1 14.5C1 16.9853 5.02944 19 10 19Z"
        stroke="currentColor" stroke-width="2" stroke-linecap="round" stroke-linejoin="round" />
    <path
        d="M15.25 14.5C15.25 14.9142 14.9142 15.25 14.5 15.25C14.0858 15.25 13.75 14.9142 13.75 14.5C13.75 14.0858 14.0858 13.75 14.5 13.75C14.9142 13.75 15.25 14.0858 15.25 14.5Z"
        stroke="currentColor" stroke-width="1.5" stroke-linecap="round" stroke-linejoin="round" />
    <path d="M6.2998 5.11175V1.38825L10.3957 3.25L6.2998 5.11175Z" stroke="currentColor"
        stroke-width="0.5" />
    <path d="M6.0498 14.5V5.5M6.0498 5.5V1L10.9998 3.25L6.0498 5.5Z" stroke="currentColor"
        stroke-width="1.5" stroke-linecap="round" stroke-linejoin="round" />
</svg>