<svg width="22" height="22" viewBox="0 0 22 22" fill="none" xmlns="http://www.w3.org/2000/svg">
    <path
        d="M21.1316 9.03296C21.1106 8.91784 21.0498 8.81377 20.9599 8.73885C20.87 8.66393 20.7567 8.62292 20.6396 8.62296H11.2216C11.0894 8.62296 10.9625 8.67536 10.8688 8.7687C10.7751 8.86203 10.7222 8.9887 10.7216 9.12096V12.99C10.7216 13.1226 10.7743 13.2497 10.8681 13.3435C10.9618 13.4373 11.089 13.49 11.2216 13.49H15.9566C15.6603 14.3508 15.0884 15.0899 14.3296 15.593C13.4027 16.1844 12.3209 16.4872 11.2216 16.463C10.0786 16.4521 8.96808 16.0807 8.04839 15.4018C7.1287 14.7229 6.44673 13.7711 6.09963 12.682V12.68C5.71561 11.5517 5.71561 10.3282 6.09963 9.19996V9.19796C6.44662 8.10913 7.12829 7.15752 8.04758 6.47865C8.96687 5.79978 10.0769 5.42825 11.2196 5.41696C12.5127 5.39533 13.7625 5.88269 14.6996 6.77396C14.794 6.86464 14.9202 6.91471 15.0511 6.9134C15.1819 6.91209 15.3071 6.85951 15.3996 6.76696L18.2676 3.89796C18.3152 3.85045 18.3527 3.79383 18.3779 3.7315C18.403 3.66917 18.4154 3.60241 18.4142 3.53519C18.413 3.46798 18.3982 3.4017 18.3708 3.34032C18.3434 3.27894 18.3039 3.22372 18.2546 3.17796C16.3502 1.39459 13.8316 0.413946 11.2226 0.439958C9.27491 0.433989 7.36428 0.972481 5.70633 1.99467C4.04839 3.01686 2.70911 4.48207 1.83963 6.22496C1.10515 7.68817 0.722656 9.30274 0.722656 10.94C0.722656 12.5772 1.10515 14.1917 1.83963 15.655C2.70911 17.3978 4.04839 18.8631 5.70633 19.8852C7.36428 20.9074 9.27491 21.4459 11.2226 21.44C13.7807 21.5073 16.2677 20.5943 18.1746 18.888L18.1796 18.886C19.2124 17.8893 20.0255 16.6878 20.5667 15.3586C21.108 14.0293 21.3655 12.6016 21.3226 11.167C21.3226 10.451 21.2576 9.73696 21.1316 9.03296ZM11.2226 1.43996C13.3997 1.41706 15.5136 2.17122 17.1846 3.56696L15.0246 5.72696C13.9482 4.86154 12.6037 4.39831 11.2226 4.41696C9.98837 4.42574 8.78288 4.7907 7.751 5.46798C6.71911 6.14526 5.90471 7.10606 5.40563 8.23496L2.92563 6.31096C3.74583 4.83065 4.9485 3.59776 6.40801 2.74109C7.86752 1.88442 9.53029 1.4344 11.2226 1.43996ZM1.72263 10.941C1.71944 9.66602 1.97563 8.40376 2.47563 7.23096L5.04863 9.22496C4.73636 10.3473 4.73636 11.5336 5.04863 12.656L2.47563 14.65C1.98053 13.4756 1.72421 12.2144 1.72163 10.94M11.2216 20.44C9.52903 20.4456 7.86597 19.9965 6.40626 19.1397C4.94656 18.2828 3.74378 17.0496 2.92363 15.569L5.40463 13.645C5.90371 14.7739 6.71811 15.7347 7.75 16.4119C8.78188 17.0892 9.98737 17.4542 11.2216 17.463C12.395 17.4807 13.5523 17.1885 14.5766 16.616L14.6866 16.701L17.0496 18.537C15.3817 19.819 13.3247 20.4906 11.2216 20.44ZM17.8036 17.856L15.4256 16.01C16.2979 15.251 16.8864 14.2183 17.0946 13.081C17.1078 13.0089 17.105 12.9349 17.0864 12.8641C17.0679 12.7933 17.034 12.7274 16.9871 12.6711C16.9403 12.6148 16.8817 12.5695 16.8154 12.5384C16.7491 12.5073 16.6768 12.4911 16.6036 12.491H11.7216V9.62196H20.2136C20.2856 10.1346 20.3216 10.6496 20.3216 11.167C20.3939 13.6412 19.4893 16.0434 17.8036 17.856Z"
        fill="currentColor" />
</svg>