<svg width="19" height="19" viewBox="0 0 19 19" fill="none" xmlns="http://www.w3.org/2000/svg">
    <path
        d="M9.5 18.5074C4.53351 18.5074 0.492647 14.4665 0.492647 9.5C0.492647 4.53351 4.53351 0.492647 9.5 0.492647C14.4665 0.492647 18.5074 4.53351 18.5074 9.5C18.5074 14.4665 14.4665 18.5074 9.5 18.5074ZM9.5 0.864496C4.73578 0.864496 0.864496 4.73578 0.864496 9.5C0.864496 14.2642 4.73578 18.1355 9.5 18.1355C14.2642 18.1355 18.1355 14.2642 18.1355 9.5C18.1355 4.73578 14.2642 0.864496 9.5 0.864496Z"
        fill="#414141" stroke="#414141" stroke-width="0.985294" />
    <path d="M9.5 14V7.7931H9M9 14H10H9ZM9.5 5.31034V5V5.31034Z" fill="#414141" />
    <path d="M9.5 14V7.7931H9M9 14H10M9.5 5.31034V5" stroke="#414141" stroke-width="1.5"
        stroke-linecap="round" stroke-linejoin="round" />
</svg>