<svg version="1.2" xmlns="http://www.w3.org/2000/svg" viewBox="0 0 34 33" width="34" height="33"
    fill="currentColor">
    <title>Asset 1 1</title>
    <style>
        .s0 { opacity: 1;fill: #ff5a5f }
        .s1 { opacity: .3;fill: #ff5b5f }
    </style>
    <g id="Background">
        <path id="Path 0" fill-rule="evenodd"
            d="m33 0v12c0 8.7-0.4 12.8-1.5 15-0.8 1.6-2.9 3.7-4.5 4.5-2.2 1.1-6.3 1.5-27 1.5l0.3-12.9c0.2-12 0.4-13.2 2.6-15.7 1.2-1.5 3.3-3.1 4.5-3.5 1.1-0.4 7.4-0.8 25.6-0.9zm-22 22h11v-11h-11z" />
        <path id="Path 1"
            d="m7.3 0.7c0.4 0.5 1 0.5 1.4 0.1 0.3-0.5 0-0.8-0.8-0.8-0.8 0-1.1 0.3-0.6 0.7zm-4.4 3.1l-2.4 2.7c4.3-3.9 5.5-5.1 5.5-5.3 0-0.1-0.1-0.2-0.3-0.2-0.2 0-1.5 1.2-2.8 2.7zm-3 4.3c0 0.8 0.4 1.2 0.8 0.7 0.5-0.4 0.5-1 0-1.5-0.4-0.4-0.8 0-0.8 0.8zm32.1 17.5c0 0.3 0.2 0.5 0.5 0.5 0.3 0 0.5-0.2 0.5-0.5 0-0.3-0.2-0.5-0.5-0.5-0.3 0-0.5 0.2-0.5 0.5zm-1 2c0 0.3 0.2 0.5 0.5 0.5 0.3 0 0.5-0.2 0.5-0.5 0-0.3-0.2-0.5-0.5-0.5-0.3 0-0.5 0.2-0.5 0.5zm-4 4c0 0.3 0.2 0.5 0.5 0.5 0.3 0 0.5-0.2 0.5-0.5 0-0.3-0.2-0.5-0.5-0.5-0.3 0-0.5 0.2-0.5 0.5zm-2 1c0 0.3 0.2 0.5 0.5 0.5 0.3 0 0.5-0.2 0.5-0.5 0-0.3-0.2-0.5-0.5-0.5-0.3 0-0.5 0.2-0.5 0.5z" />
    </g>
</svg>