<svg xmlns="http://www.w3.org/2000/svg" width="17" height="19" viewBox="0 0 17 19" fill="none">
    <path
        d="M8.48423 10.856C7.78314 10.856 7.09779 10.657 6.51486 10.2842C5.93192 9.91142 5.47758 9.38152 5.20928 8.76156C4.94099 8.1416 4.87079 7.45941 5.00757 6.80126C5.14434 6.14311 5.48195 5.53856 5.9777 5.06406C6.47344 4.58956 7.10506 4.26642 7.79268 4.13551C8.4803 4.00459 9.19304 4.07178 9.84076 4.32858C10.4885 4.58538 11.0421 5.02025 11.4316 5.5782C11.8211 6.13615 12.029 6.79213 12.029 7.46317C12.0279 8.36268 11.6541 9.22504 10.9895 9.86109C10.325 10.4971 9.42402 10.855 8.48423 10.856ZM8.48423 5.42746C8.06358 5.42746 7.65237 5.54685 7.30261 5.77054C6.95285 5.99422 6.68024 6.31216 6.51926 6.68414C6.35829 7.05612 6.31617 7.46543 6.39823 7.86032C6.4803 8.25521 6.68286 8.61794 6.98031 8.90264C7.27776 9.18734 7.65673 9.38122 8.0693 9.45977C8.48187 9.53832 8.90951 9.498 9.29815 9.34393C9.68678 9.18985 10.019 8.92893 10.2527 8.59415C10.4864 8.25938 10.6111 7.8658 10.6111 7.46317C10.6105 6.92343 10.3863 6.40595 9.98753 6.0243C9.58879 5.64265 9.04814 5.428 8.48423 5.42746Z"
        fill="currentColor" />
    <path
        d="M8.48601 19L2.50527 12.2489C2.42216 12.1475 2.33992 12.0455 2.25855 11.9429C1.23745 10.6545 0.685604 9.08138 0.687505 7.46429C0.687505 5.48463 1.50913 3.58606 2.97164 2.18624C4.43414 0.786414 6.41772 0 8.48601 0C10.5543 0 12.5379 0.786414 14.0004 2.18624C15.4629 3.58606 16.2845 5.48463 16.2845 7.46429C16.2862 9.08061 15.7346 10.653 14.7142 11.9408L14.7135 11.9429C14.7135 11.9429 14.5008 12.2102 14.4689 12.2462L8.48601 19ZM3.39075 11.1252C3.39075 11.1252 3.55594 11.3342 3.59351 11.379L8.48601 16.9019L13.3849 11.3715C13.4161 11.3342 13.5827 11.1231 13.5827 11.1231C14.4173 10.0708 14.8683 8.78549 14.8666 7.46429C14.8666 5.84457 14.1944 4.29119 12.9978 3.14588C11.8012 2.00057 10.1783 1.35714 8.48601 1.35714C6.79377 1.35714 5.17084 2.00057 3.97425 3.14588C2.77765 4.29119 2.10542 5.84457 2.10542 7.46429C2.10367 8.78635 2.55521 10.0724 3.39075 11.1252Z"
        fill="currentColor" />
</svg>