<svg xmlns="http://www.w3.org/2000/svg" width="12" height="16" viewBox="0 0 12 16" fill="none">
    <path d="M1.38514 16C1.00114 16 0.674286 15.8601 0.404572 15.5804C0.134857 15.3007 0 14.9621 0 14.5644V6.76889C0 6.37185 0.134857 6.03319 0.404572 5.75289C0.674286 5.47319 1.00114 5.33333 1.38514 5.33333H2.57143V3.55556C2.57143 2.56533 2.90429 1.72533 3.57 1.03556C4.23514 0.345185 5.04514 0 6 0C6.95486 0 7.76514 0.345185 8.43086 1.03556C9.09657 1.72593 9.42914 2.56593 9.42857 3.55556V5.33333H10.6157C10.9986 5.33333 11.3251 5.47319 11.5954 5.75289C11.8651 6.03259 12 6.37156 12 6.76978V14.5644C12 14.9615 11.8651 15.3001 11.5954 15.5804C11.3257 15.8601 10.9991 16 10.6157 16H1.38514ZM1.38514 15.1111H10.6157C10.7694 15.1111 10.8957 15.0599 10.9946 14.9573C11.0934 14.8548 11.1429 14.7239 11.1429 14.5644V6.76889C11.1429 6.60948 11.0934 6.47852 10.9946 6.376C10.8957 6.27348 10.7694 6.22222 10.6157 6.22222H1.38429C1.23057 6.22222 1.10429 6.27348 1.00543 6.376C0.906571 6.47852 0.857143 6.60978 0.857143 6.76978V14.5644C0.857143 14.7239 0.906571 14.8548 1.00543 14.9573C1.10429 15.0599 1.23086 15.1111 1.38514 15.1111ZM6 12C6.36171 12 6.66629 11.8714 6.91371 11.6142C7.16171 11.3576 7.28571 11.0418 7.28571 10.6667C7.28571 10.2916 7.16171 9.9757 6.91371 9.71911C6.66571 9.46252 6.36114 9.33393 6 9.33333C5.63886 9.33274 5.33429 9.46133 5.08629 9.71911C4.83829 9.9757 4.71429 10.2916 4.71429 10.6667C4.71429 11.0418 4.83829 11.3576 5.08629 11.6142C5.33371 11.8714 5.63829 12 6 12ZM3.42857 5.33333H8.57143V3.55556C8.57143 2.81481 8.32143 2.18519 7.82143 1.66667C7.32143 1.14815 6.71429 0.888889 6 0.888889C5.28571 0.888889 4.67857 1.14815 4.17857 1.66667C3.67857 2.18519 3.42857 2.81481 3.42857 3.55556V5.33333Z" fill="#8C8C8C"/>
</svg>