<svg version="1.2" xmlns="http://www.w3.org/2000/svg" viewBox="0 0 157 206" width="157" height="206"
    fill="currentColor">
    <path
        d="m105.7 0l-0.2 44.8-3 4.4c-1.7 2.4-4.9 5.3-7 6.5-3.8 2.1-5.1 2.3-46.5 2.3v3.3c0 1.7 0.7 5.9 1.5 9.2 0.9 3.3 3 8.9 4.7 12.5 2.1 4.4 5.5 8.9 10.7 14.1 4.2 4.2 9.8 8.7 12.6 10.1 2.7 1.4 7.2 3.3 10 4.2 2.7 0.9 7.7 1.9 17 3.1l0.2 14.3c0.2 10.7 0 14.3-1 14.6-0.6 0.2-4.8 0-9.2-0.5-4.4-0.4-11.2-1.8-15-3-3.8-1.2-9.9-3.6-13.5-5.4-3.6-1.8-8.8-4.9-11.5-7-2.8-2.1-7-5.6-9.3-7.9-2.4-2.2-6.3-6.6-8.7-9.6-2.3-3-5.6-8-7.3-11-1.7-3-4.3-8.7-5.7-12.5-1.5-3.8-3.3-11.4-4.1-16.7-0.8-5.4-1.2-10.5-0.9-11.3 0.4-1.2 3.1-1.5 28-2l0.5-21.5c0.4-17.5 0.8-22.1 2.2-24.5 0.9-1.6 2.7-4 4-5.1 1.2-1.2 3.6-2.9 5.3-3.7 2.5-1.3 6.9-1.6 46.2-1.7zm-37.7 39h18v-19h-18zm63 126.1c0.8 0 2.5 0.3 3.8 0.7 1.2 0.4 2.5 1.4 2.7 2.2 0.3 0.8 0.1 1.9-0.4 2.5-0.6 0.6-2 0.8-3.3 0.6-1.3-0.2-2.6 0.2-3.1 0.8-0.4 0.7 0.2 1.1 1.8 1.1q2.5 0 3 2c0.5 2 0.5 2 3.7 0 2-1.2 5.1-2 7.5-2 3.4 0 4.9 0.6 7.3 3 1.7 1.7 3 4.1 3 5.5 0 1.5-0.8 2.9-2 3.5-1.1 0.6-4.5 1-7.5 1-3.7 0-5.5 0.4-5.5 1.3-0.1 0.6 0.7 1.9 1.6 2.7 1.2 1.1 2.8 1.3 6.5 0.8 4.6-0.8 4.9-0.7 4.9 1.5 0.1 1.2-0.5 2.8-1.2 3.5-0.9 0.9-3.3 1.2-7.8 0.9-5.5-0.4-6.8-0.8-8.8-3.1-1.2-1.4-2.5-4.1-2.8-5.8-0.4-1.8-0.2-4.6 0.3-6.3 1-2.9 0.9-3-4.7-2.5v8.5c0 7.2-0.3 8.6-1.8 9-0.9 0.3-2.6 0.3-3.7-0.1-1.9-0.6-2-1.2-1.3-9 0.7-7.1 0.6-8.4-0.7-8.4q-1.5 0-1.5-3c0-1.7 0.5-3 1.2-3 0.7 0 1.7-1.2 2.1-2.8 0.4-1.6 1.8-3.3 3-4 1.2-0.6 2.9-1.1 3.7-1.1zm11.8 15c0.1 0.5 1.9 0.9 3.9 0.9 3.4 0.1 3.7-0.1 2.3-1.5-0.8-0.9-1.9-1.5-2.5-1.5-0.6 0.1-1.7 0.4-2.4 0.7-0.8 0.2-1.4 0.9-1.3 1.4zm-141.5-14.1h7.6c6.1-0.1 8.1 0.3 10.3 2 2.3 1.6 2.8 2.8 2.8 6 0 3.1-0.7 4.7-2.9 7-2.4 2.5-3.8 3-12.1 3v6c0 4.8-0.3 6.1-1.8 6.5-0.9 0.3-2.5 0.3-3.5 0-1.3-0.4-1.7-1.6-1.7-5.7 0-2.9 0.3-9.7 0.6-15zm8.7 13c1.1 0 2.6-0.7 3.5-1.5 0.9-0.9 1.4-2.3 1.3-3.3q-0.3-1.7-3.4-2.1c-3-0.3-3.2-0.1-3.3 3.3 0 2.9 0.3 3.6 1.9 3.6zm54.1-13c1.7 0 3.3 0.6 3.6 1.4 0.4 0.7 0.4 2.3 0 3.5-0.6 1.8-0.2 2 3.1 2 3.7 0 3.8 0.1 5.8 6.1 1.1 3.4 2.3 6.4 2.7 6.6 0.4 0.2 1.8-2.5 3.2-5.9 2.3-6.1 2.4-6.3 6.2-6.3 3.7-0.1 3.9-0.2 4.1-3.8 0.3-3.5 0.4-3.6 7.3-3.6l-0.5 24.5h5.6c3.2 0 6 0.2 6.3 0.5 0.3 0.2 0.1 1.7-0.4 3.2-1 2.7-1.3 2.8-8.5 2.8-4.2 0-8.2-0.3-9-0.5-1.2-0.5-1.5-2.7-1.6-22l-6.1 13.5c-3.3 7.4-7 14.5-8.2 15.8-1.7 1.8-3 2.2-6.6 2-4.1-0.3-4.6-0.6-4.8-3.1-0.2-2.5 0.1-2.7 3.3-2.7 2.5 0 3.7-0.6 4.5-2 0.7-1.6 0.1-4.6-6.5-23.5l-0.5 10.1c-0.3 5.6-0.9 10.6-1.4 11-0.4 0.5-4.2 1-8.2 1.1-7.1 0.2-7.6 0.1-10.4-2.7-2.4-2.4-3-3.9-3-7 0-2.2 0.7-5.7 1.6-7.7 1.1-2.3 2.9-4.1 5-5 1.9-0.7 4.7-1.3 6.4-1.3 2.3 0 3-0.5 3-2 0-1.1 0.2-2.7 0.5-3.5 0.4-0.9 1.9-1.5 3.5-1.5zm-12.8 16.5c-0.7 1.3-1.3 3-1.3 3.7 0 0.7 0.8 2.1 1.8 3.1 1 0.9 2.6 1.6 3.7 1.5 1.1-0.2 2.6-1.5 3.3-2.8 0.7-1.4 1.2-4.2 1.2-6.3 0.1-2.9-0.3-3.7-1.7-3.7-0.9 0.1-2.6 0.5-3.7 1-1.1 0.5-2.6 2.1-3.3 3.5zm65.2-16.5c3.3 0 3.6 0.2 3.6 3 0 2.7-0.3 2.9-3.3 2.7-2.7-0.2-3.3-0.7-3.6-3-0.3-2.5 0-2.7 3.3-2.7zm-84 7.3c5 0.1 6.1 0.5 7.7 2.7 1.7 2.2 1.8 3.5 0.4 21h-6.5l0.7-5.6c0.4-3 0.4-5.5 0-5.5-0.4 0-2.3 0.7-4.2 1.6-2 0.8-3.5 1.9-3.5 2.5 0 0.5 1.3 1.3 3 1.7 2.3 0.6 3 1.2 2.8 2.8-0.3 1.5-1.2 2-4.6 2.2-3.6 0.2-4.5-0.2-6.3-2.5-1.1-1.5-2-3.4-2-4.2 0-0.9 0.8-2.6 1.8-3.9 1-1.2 4.2-3.1 7.3-4.1 3-1 5.7-2.4 5.9-3.2 0.3-1.1-0.5-1.2-4-0.7-2.4 0.3-5.1 0.8-5.9 1-1.1 0.2-1.6-0.5-1.8-2.4-0.2-1.9 0.3-2.9 1.5-3.2 1-0.2 4.4-0.3 7.7-0.2zm87.4-0.3l-0.5 11.2c-0.3 6.2-0.8 11.6-1.2 12.1-0.3 0.5-1.8 0.6-3.1 0.3-2.5-0.6-2.5-0.6-2.2-10.9 0.1-5.6 0.5-10.8 0.7-11.5 0.2-0.7 1.7-1.2 6.3-1.2z" />
</svg>