<svg version="1.2" xmlns="http://www.w3.org/2000/svg" viewBox="0 0 186 54" width="186" height="54"
	fill="currentColor">
	<path fill-rule="evenodd"
		d="m32 0v8.5c0 4.7-0.3 9.2-0.8 10.1-0.4 0.9-1.9 2.3-3.5 3-1.5 0.8-5.8 1.4-16.7 1.4l0.6 2.8c0.4 1.5 1.5 4.3 2.4 6.2 1 2 3.8 4.9 6.6 6.7 2.7 1.8 6.4 3.5 8.2 3.8 3.2 0.5 3.2 0.5 3.2 12l-4.7-0.6c-2.7-0.4-7.2-1.9-10-3.3-2.9-1.4-6.9-4.3-8.9-6.3-1.9-2.1-4.5-5.6-5.6-7.8-1.1-2.2-2.3-6.6-3.3-15.5h10.5v-8c0.1-7.2 0.4-8.4 2.5-10.5 2.2-2.3 3.2-2.5 19.5-2.5zm-11 14c2.7 0 3-0.3 3-3 0-2.7-0.3-3-3-3-2.7 0-3 0.3-3 3 0 2.7 0.3 3 3 3zm142.9-0.8c4.2 0.3 4.6 0.5 4.6 2.8 0 2.2-0.4 2.5-3.3 2.3-1.7-0.2-3.2 0.2-3.2 0.7 0 0.6 1.1 1 2.5 1 1.9 0 2.5 0.5 2.4 4.5l2.3-2.3c1.8-1.7 3.5-2.3 7.3-2.4 4.2 0 5.3 0.3 7.2 2.6 1.3 1.4 2.3 3.9 2.3 8.6h-7c-3.8 0-7 0.2-7 0.5 0 0.3 0.6 1.5 1.2 2.7 1.2 1.9 1.8 2.1 6.5 1.5 5.1-0.7 5.3-0.6 4.7 1.6-0.3 1.2-0.9 2.6-1.3 3-0.3 0.5-3 0.9-5.9 1-5 0.2-5.6 0-8.4-3.3-2.7-3.1-3-4.1-2.7-8.3 0.4-4.2 0.2-4.7-1.6-4.7-1.8 0-2.1 0.9-2.8 8-0.7 8-0.7 8-3.5 7.8-2.7-0.3-2.7-0.4-2.7-7.5 0-3.9-0.3-7.5-0.8-8-0.4-0.4-0.7-1.8-0.7-3 0-1.3 0.4-2.3 1-2.3 0.6 0 1-0.9 0.9-1.9 0-1.1 0.7-2.7 1.7-3.6 1.1-1.1 3-1.5 6.3-1.3zm12.8 13.8c2.3 0 3.4-0.4 3-1-0.4-0.6-1.8-1-3.2-1-1.3 0-2.6 0.4-3 1-0.3 0.6 1 1 3.2 1zm-131.7-14h6.7c5.3-0.1 7.4 0.4 9.5 2 2.2 1.6 2.8 2.8 2.8 5.8 0 2-0.4 4.2-0.8 4.8-0.4 0.5-1.8 1.8-3.2 2.7-1.4 1-4 1.7-9 1.7v11h-7.5l0.8-4.7c0.4-2.7 0.7-9 0.7-14zm7.3 11.5c0.6 0.4 2.2 0.1 3.5-0.5 1.2-0.6 2.2-1.9 2.2-3 0-1.7-0.7-2-3.5-2-3.1 0-3.5 0.3-3.5 2.5 0 1.3 0.6 2.7 1.3 3zm49.7-11.5c2.8 0 3 0.2 3 3.5 0 3.2 0.2 3.4 3.3 3.4 3.1 0 3.3 0.3 7.3 12.6l3-6.3c2.5-5.5 3.2-6.3 5.7-6.3 1.5 0 2.7 0.5 2.7 1.1 0 0.5-1.6 4.4-3.5 8.7-2 4.3-4.8 10.2-6.3 13.2-1.7 3.6-3.6 5.9-5.2 6.4-1.4 0.5-3.7 0.6-5.2 0.3-2.2-0.5-2.8-1.2-2.8-3.4 0-2.4 0.4-2.7 2.8-2.4 1.6 0.2 3.3-0.3 4.2-1.3 1.4-1.6 1.1-2.8-2-11.7-3.5-9.8-3.5-9.9-4.2-6.1-0.4 2.1-0.7 6.6-0.8 16.3h-4.7c-2.7 0.1-6 0.2-7.4 0.3-1.5 0.1-3.6-0.7-4.8-1.8-1.2-1.2-2.6-3.6-3.1-5.5-0.8-2.9-0.5-4.3 1.3-7.7 1.2-2.3 2.9-4.6 3.7-5.1 0.8-0.6 3.4-1.3 5.8-1.6 3.9-0.6 4.2-0.9 4.2-3.6 0-2.7 0.3-3 3-3zm-12.2 18c0.1 1.4 0.7 3 1.4 3.7 0.7 0.7 2 1.3 2.8 1.3 0.8 0 2-0.5 2.6-1.3 0.6-0.7 1.4-3.2 1.8-5.5 0.6-4.2 0.5-4.3-2.2-4.3-1.6 0-3.7 0.9-4.7 1.9-1 1-1.8 2.9-1.7 4.2zm44.7-17.6l-0.5 22.6 5.5-0.1c5.2 0 5.5 0.2 5.5 2.5 0 2.5-0.1 2.5-18 2.5l0.6-12.7c0.3-7 0.8-13.3 1-14.1 0.3-0.7 1.6-1.2 5.9-0.7zm15.5-0.5c2.7 0 3 0.4 3 3 0 2.7-0.3 3-3 3-2.7 0-3-0.3-3-3 0-2.6 0.3-3 3-3zm-73.5 6.9c1.7 0.2 3.6 1.1 4.3 2 0.9 1.1 1.2 4.4 0.7 19.6h-3c-2.9 0-3-0.1-3-4.7 0-2.6-0.3-4.7-0.7-4.7-0.5 0-1.9 0.4-3.3 0.9-1.4 0.6-2.5 1.5-2.5 2 0 0.6 1.1 1 2.5 1 2 0 2.5 0.5 2.5 2.5q0 2.5-1.7 2.7c-1 0.1-2.9 0.1-4.3-0.1-1.4-0.1-3.1-0.7-3.8-1.4-0.7-0.6-1.3-2.6-1.2-4.4 0-2.4 0.8-3.8 2.8-5.3 1.5-1.1 3.3-2 4-2 0.6 0 2.4-0.4 4-1 2.2-0.9 2.4-1.3 1.2-2-0.9-0.5-2.9-0.5-5 0.1-1.9 0.5-3.8 1-4.2 1-0.5 0-0.7-1.3-0.5-2.8 0.2-2.4 0.7-2.8 4.2-3.3 2.2-0.3 5.4-0.4 7-0.1zm70.8 0.1h3.1c3 0 3.1 0.1 2.3 3.3-0.4 1.8-0.7 6.5-0.7 17.7h-3c-2.6 0-3-0.3-3-2.7 0-1.5 0.3-6.2 0.6-10.5z" />
</svg>