<svg width="22" height="22" viewBox="0 0 22 22" fill="none" xmlns="http://www.w3.org/2000/svg">
<path d="M3.9999 6L2.7819 6.813C1.9079 7.395 1.4709 7.686 1.2339 8.13C0.996897 8.575 0.998897 9.097 1.0029 10.14C1.0069 11.398 1.0189 12.678 1.0509 13.974C1.1279 17.049 1.1659 18.586 2.2969 19.716C3.4269 20.846 4.9849 20.886 8.1009 20.964C10.0336 21.0123 11.9672 21.0123 13.8999 20.964C17.0159 20.886 18.5739 20.847 19.7039 19.716C20.8339 18.586 20.8729 17.049 20.9499 13.974C20.9819 12.678 20.9939 11.398 20.9979 10.141C21.0009 9.097 21.0029 8.575 20.7659 8.131C20.5299 7.686 20.0929 7.395 19.2189 6.813L17.9999 6" stroke="black" stroke-width="1.5" stroke-linecap="round" stroke-linejoin="round"/>
<path d="M1 9L7.913 13.148C9.417 14.05 10.169 14.5 11 14.5C11.831 14.5 12.583 14.05 14.087 13.147L21 9" stroke="black" stroke-width="1.5" stroke-linecap="round" stroke-linejoin="round"/>
<path d="M4 11V5C4 3.114 4 2.172 4.586 1.586C5.172 1 6.114 1 8 1H14C15.886 1 16.828 1 17.414 1.586C18 2.172 18 3.114 18 5V11M9 9H13M9 5H13" stroke="black" stroke-width="1.5" stroke-linecap="round" stroke-linejoin="round"/>
</svg>
