<svg width="22" height="22" viewBox="0 0 22 22" fill="none" xmlns="http://www.w3.org/2000/svg">
<path d="M20.2 7.4C20.7 7.78 21 8.37 21 9V19C21 19.5304 20.7893 20.0391 20.4142 20.4142C20.0391 20.7893 19.5304 21 19 21H3C2.46957 21 1.96086 20.7893 1.58579 20.4142C1.21071 20.0391 1 19.5304 1 19V9C1 8.68951 1.07229 8.38328 1.21115 8.10557C1.35 7.82786 1.55161 7.58629 1.8 7.4L9.8 1.4C10.1462 1.14036 10.5673 1 11 1C11.4327 1 11.8538 1.14036 12.2 1.4L20.2 7.4Z" stroke="black" stroke-width="2" stroke-linecap="round" stroke-linejoin="round"/>
<path d="M21 9L12.03 14.7C11.7213 14.8934 11.3643 14.996 11 14.996C10.6357 14.996 10.2787 14.8934 9.97 14.7L1 9" stroke="black" stroke-width="2" stroke-linecap="round" stroke-linejoin="round"/>
</svg>
