<svg width="54" height="46" viewBox="0 0 54 46" fill="none" xmlns="http://www.w3.org/2000/svg">
    <g clip-path="url(#clip0_387_11429)">
        <path
            d="M13.875 15.5H40.125V19.25H13.875V15.5ZM19.5 8H34.5V11.75H19.5V8ZM4.7025 23H19.5V30.5H34.5V23H49.2975L39.2962 4.25H14.7038L4.7025 23ZM49.5 26.75H38.25V34.25H15.75V26.75H4.5V41.75H49.5V26.75ZM13.1588 0.5H40.8413C41.1892 0.500012 41.5302 0.596826 41.8263 0.779613C42.1223 0.9624 42.3616 1.22395 42.5175 1.535L53.055 22.6025C53.1844 22.8635 53.2511 23.1512 53.25 23.4425V43.625C53.25 44.1223 53.0525 44.5992 52.7008 44.9508C52.3492 45.3025 51.8723 45.5 51.375 45.5H2.625C2.12772 45.5 1.65081 45.3025 1.29917 44.9508C0.947544 44.5992 0.75 44.1223 0.75 43.625V23.4425C0.75002 23.1509 0.818073 22.8632 0.94875 22.6025L11.4825 1.535C11.6384 1.22395 11.8777 0.9624 12.1737 0.779613C12.4698 0.596826 12.8108 0.500012 13.1588 0.5Z"
            fill="currentColor" />
    </g>
    <defs>
        <clipPath id="clip0_387_11429">
            <rect width="54" height="46" fill="white" />
        </clipPath>
    </defs>
</svg>