<svg width="16" height="21" viewBox="0 0 16 21" fill="none" xmlns="http://www.w3.org/2000/svg">
    <path
        d="M8 0C8.90931 0 9.78139 0.349341 10.4244 0.971172C11.0673 1.593 11.4286 2.43639 11.4286 3.31579V9.94737C11.4286 10.8268 11.0673 11.6702 10.4244 12.292C9.78139 12.9138 8.90931 13.2632 8 13.2632C7.09069 13.2632 6.21862 12.9138 5.57563 12.292C4.93265 11.6702 4.57143 10.8268 4.57143 9.94737V3.31579C4.57143 2.43639 4.93265 1.593 5.57563 0.971172C6.21862 0.349341 7.09069 0 8 0ZM16 9.94737C16 13.8489 13.0171 17.0653 9.14286 17.6068V21H6.85714V17.6068C2.98286 17.0653 0 13.8489 0 9.94737H2.28571C2.28571 11.413 2.88775 12.8187 3.95939 13.8551C5.03103 14.8914 6.48448 15.4737 8 15.4737C9.51552 15.4737 10.969 14.8914 12.0406 13.8551C13.1122 12.8187 13.7143 11.413 13.7143 9.94737H16Z"
        fill="currentColor" />
</svg>