<svg width="44" height="44" viewBox="0 0 44 44" fill="none" xmlns="http://www.w3.org/2000/svg">
<path d="M22 2C24.6264 2 27.2272 2.51732 29.6537 3.52241C32.0802 4.5275 34.285 6.00069 36.1421 7.85787C37.9993 9.71504 39.4725 11.9198 40.4776 14.3463C41.4827 16.7728 42 19.3736 42 22C42 24.6264 41.4827 27.2272 40.4776 29.6537C39.4725 32.0802 37.9993 34.285 36.1421 36.1421C34.285 37.9993 32.0802 39.4725 29.6537 40.4776C27.2271 41.4827 24.6264 42 22 42C19.3736 42 16.7728 41.4827 14.3463 40.4776C11.9198 39.4725 9.71503 37.9993 7.85786 36.1421C6.00069 34.285 4.5275 32.0802 3.52241 29.6537C2.51731 27.2271 2 24.6264 2 22C2 19.3736 2.51732 16.7728 3.52241 14.3463C4.52751 11.9198 6.0007 9.71503 7.85787 7.85786C9.71504 6.00068 11.9198 4.5275 14.3463 3.5224C16.7729 2.51731 19.3736 2 22 2L22 2Z" stroke="#777777" stroke-width="3.58732" stroke-linecap="round"/>
<path d="M18.4859 16.6152C18.2646 17.3025 18.1522 18.0202 18.1528 18.7422C18.1528 22.5656 21.2524 25.6652 25.0759 25.6652C26.0196 25.6668 26.9535 25.4744 27.8197 25.0999C26.9224 27.8833 24.3113 29.896 21.2297 29.896C17.4063 29.896 14.3066 26.7964 14.3066 22.9729C14.3066 20.1241 16.027 17.6775 18.4859 16.6152Z" fill="#777777" stroke="#777777" stroke-width="1.53846" stroke-linejoin="round"/>
<path d="M24.1757 17.3848H27.768L23.9219 20.4617H27.768" stroke="#777777" stroke-width="1.53846" stroke-linecap="round" stroke-linejoin="round"/>
</svg>
