<svg width="52" height="52" viewBox="0 0 52 52" fill="none" xmlns="http://www.w3.org/2000/svg">
    <circle cx="26" cy="26" r="26" fill="currentColor" />
    <path
        d="M26.0666 35.9982C22.8438 35.9982 19.6211 35.9982 16.3983 35.9982C16.2409 35.9982 16.0814 35.9982 15.9233 35.9814C15.1165 35.9037 14.7921 35.3429 15.1362 34.5847C15.4347 33.9301 15.7604 33.2923 16.0767 32.6448C17.5695 29.5956 19.0624 26.547 20.5552 23.4988C20.6014 23.4057 20.6495 23.3125 20.7031 23.2236C21.0791 22.6019 21.6898 22.5144 22.1709 23.0507C22.5102 23.426 22.7972 23.8474 23.0999 24.2542C24.6379 26.3278 26.176 28.4024 27.7141 30.478C28.3859 31.3811 29.2321 31.4301 30.0213 30.618C30.4128 30.2147 30.7955 29.801 31.1918 29.4012C31.9063 28.6801 32.7172 28.7235 33.3008 29.5644C34.472 31.2516 35.614 32.9612 36.7615 34.6652C36.8512 34.7989 36.9199 34.9463 36.9651 35.1021C37.0763 35.4934 36.9189 35.8085 36.5342 35.9128C36.2929 35.9724 36.0453 35.9999 35.7972 35.9947C32.5555 36.0003 29.3119 36.0015 26.0666 35.9982Z"
        fill="#F2F2F2" />
    <path
        d="M33.294 19.2905C33.2932 19.9413 33.1051 20.5772 32.7535 21.1176C32.402 21.658 31.9028 22.0785 31.3193 22.3259C30.7359 22.5732 30.0943 22.6363 29.4761 22.507C28.8579 22.3777 28.2908 22.062 27.8467 21.5997C27.4026 21.1375 27.1015 20.5497 26.9816 19.9107C26.8618 19.2718 26.9285 18.6105 27.1733 18.0107C27.4182 17.4109 27.8301 16.8996 28.3569 16.5417C28.8838 16.1837 29.5017 15.9952 30.1325 16.0001C30.9725 16.0111 31.7746 16.3622 32.366 16.9777C32.9574 17.5932 33.2907 18.4239 33.294 19.2905Z"
        fill="#F2F2F2" />
</svg>