<svg xmlns="http://www.w3.org/2000/svg" width="21" height="19" viewBox="0 0 21 19" fill="none">
    <path d="M10.5635 18.9983C7.48727 18.9983 4.41101 18.9983 1.33474 18.9983C1.18447 18.9983 1.03226 18.9983 0.881336 18.9823C0.111191 18.9085 -0.198422 18.3758 0.129975 17.6555C0.414974 17.0336 0.725882 16.4277 1.02772 15.8125C2.45272 12.9158 3.87771 10.0196 5.30271 7.12382C5.34675 7.03537 5.39274 6.94691 5.44391 6.86245C5.80275 6.27185 6.3857 6.18871 6.84494 6.69817C7.1688 7.05466 7.44279 7.45504 7.73168 7.84145C9.19985 9.81144 10.668 11.7823 12.1362 13.7541C12.7775 14.612 13.5852 14.6586 14.3385 13.8871C14.7122 13.504 15.0775 13.1109 15.4558 12.7312C16.1379 12.0461 16.9119 12.0874 17.4689 12.8861C18.5869 14.489 19.677 16.1131 20.7723 17.732C20.8579 17.859 20.9235 17.999 20.9666 18.147C21.0729 18.5188 20.9226 18.818 20.5553 18.9171C20.3251 18.9738 20.0887 18.9999 19.8519 18.995C16.7575 19.0003 13.6614 19.0014 10.5635 18.9983Z" fill="#BABABA"/>
    <path d="M17.4624 3.126C17.4617 3.74427 17.2821 4.34838 16.9465 4.86174C16.611 5.37511 16.1345 5.7746 15.5776 6.00958C15.0206 6.24456 14.4082 6.30444 13.8181 6.18163C13.228 6.05882 12.6866 5.75885 12.2627 5.31976C11.8388 4.88066 11.5514 4.32221 11.437 3.7152C11.3226 3.10819 11.3863 2.47996 11.62 1.91016C11.8537 1.34036 12.2469 0.854648 12.7498 0.514598C13.2527 0.174548 13.8426 -0.00452273 14.4447 8.68032e-05C15.2465 0.0105488 16.0121 0.3441 16.5767 0.928836C17.1412 1.51357 17.4593 2.30266 17.4624 3.126Z" fill="#BABABA"/>
</svg>