<svg width="24" height="26" viewBox="0 0 24 26" fill="none" xmlns="http://www.w3.org/2000/svg">
    <path
        d="M12 0.743896C13.1421 0.743896 14.069 1.70941 14.069 2.89907V11.0887H21.931C22.4798 11.0887 23.006 11.3158 23.394 11.72C23.782 12.1241 24 12.6723 24 13.2439C24 13.8155 23.782 14.3637 23.394 14.7678C23.006 15.172 22.4798 15.3991 21.931 15.3991H14.069V23.5887C14.069 24.1603 13.851 24.7085 13.463 25.1127C13.075 25.5168 12.5487 25.7439 12 25.7439C11.4513 25.7439 10.925 25.5168 10.537 25.1127C10.149 24.7085 9.93104 24.1603 9.93104 23.5887V15.3991H2.06897C1.52024 15.3991 0.993992 15.172 0.605986 14.7678C0.21798 14.3637 0 13.8155 0 13.2439C0 12.6723 0.21798 12.1241 0.605986 11.72C0.993992 11.3158 1.52024 11.0887 2.06897 11.0887H9.93104V2.89907C9.93104 1.70941 10.8579 0.743896 12 0.743896Z"
        fill="currentColor" />
</svg>