<svg width="34" height="35" viewBox="0 0 34 35" fill="none" xmlns="http://www.w3.org/2000/svg">
    <g opacity="0.2">
        <path
            d="M2.98728 19.1167C2.98728 22.2287 4.22353 25.2133 6.42406 27.4138C8.62459 29.6144 11.6092 30.8506 14.7212 30.8506C17.8332 30.8506 20.8178 29.6144 23.0183 27.4138C25.2188 25.2133 26.4551 22.2287 26.4551 19.1167C26.4551 16.0047 25.2188 13.0201 23.0183 10.8196C20.8178 8.61906 17.8332 7.38281 14.7212 7.38281C11.6092 7.38281 8.62459 8.61906 6.42406 10.8196C4.22353 13.0201 2.98728 16.0047 2.98728 19.1167Z"
            fill="white" />
        <path fill-rule="evenodd" clip-rule="evenodd"
            d="M14.7212 27.4981C12.4983 27.4981 10.3665 26.615 8.79467 25.0432C7.22286 23.4714 6.33982 21.3396 6.33982 19.1167C6.33982 16.8938 7.22286 14.762 8.79467 13.1902C10.3665 11.6184 12.4983 10.7354 14.7212 10.7354C16.9441 10.7354 19.0759 11.6184 20.6477 13.1902C22.2195 14.762 23.1025 16.8938 23.1025 19.1167C23.1025 21.3396 22.2195 23.4714 20.6477 25.0432C19.0759 26.615 16.9441 27.4981 14.7212 27.4981ZM14.7212 30.8506C13.1803 30.8506 11.6544 30.5471 10.2308 29.9574C8.80719 29.3677 7.51365 28.5034 6.42406 27.4138C5.33447 26.3242 4.47015 25.0307 3.88047 23.6071C3.29079 22.1835 2.98728 20.6576 2.98728 19.1167C2.98728 17.5758 3.29079 16.05 3.88047 14.6263C4.47015 13.2027 5.33447 11.9092 6.42406 10.8196C7.51365 9.73 8.80719 8.86569 10.2308 8.276C11.6544 7.68632 13.1803 7.38281 14.7212 7.38281C17.8332 7.38281 20.8178 8.61906 23.0183 10.8196C25.2188 13.0201 26.4551 16.0047 26.4551 19.1167C26.4551 22.2287 25.2188 25.2133 23.0183 27.4138C20.8178 29.6144 17.8332 30.8506 14.7212 30.8506Z"
            fill="#00ABFB" />
    </g>
    <path fill-rule="evenodd" clip-rule="evenodd"
        d="M24.6076 9.81318C25.7663 10.9548 26.652 12.3435 27.1986 13.8755C27.7452 15.4076 27.9384 17.0433 27.764 18.6605C27.7478 18.8778 27.8168 19.0928 27.9563 19.26C28.0959 19.4273 28.2951 19.5336 28.5118 19.5565C28.7284 19.5794 28.9454 19.517 29.1169 19.3826C29.2883 19.2482 29.4007 19.0524 29.4302 18.8365C29.6314 16.9687 29.408 15.0795 28.7767 13.31C28.1454 11.5406 27.1225 9.93666 25.7843 8.618C20.8611 3.76184 12.919 3.84062 8.04604 8.78227C3.17312 13.7239 3.20497 21.6644 8.12985 26.5206C10.4099 28.7719 13.47 30.0579 16.6738 30.1111C17.8852 30.1334 19.0934 29.9804 20.261 29.6569C20.4753 29.5977 20.6573 29.4559 20.767 29.2626C20.8768 29.0692 20.9052 28.8403 20.846 28.626C20.7869 28.4117 20.6451 28.2297 20.4518 28.12C20.2584 28.0102 20.0294 27.9818 19.8151 28.0409C18.8025 28.3216 17.7546 28.4543 16.704 28.4349C13.9298 28.3913 11.2796 27.2779 9.3066 25.3271C5.04719 21.1263 5.01199 14.2469 9.23955 9.95901C13.4671 5.67111 20.3482 5.61244 24.6076 9.81318Z"
        fill="#00ABFB" />
    <path fill-rule="evenodd" clip-rule="evenodd"
        d="M27.9754 19.7238C28.0487 19.8059 28.1374 19.8727 28.2366 19.9205C28.3357 19.9684 28.4433 19.9962 28.5532 20.0024C28.6631 20.0086 28.7731 19.9931 28.8771 19.9568C28.981 19.9205 29.0767 19.8641 29.1588 19.7908L32.042 17.2261C32.1306 17.155 32.2039 17.0665 32.2573 16.9662C32.3106 16.8659 32.3431 16.7557 32.3525 16.6424C32.362 16.5292 32.3484 16.4152 32.3124 16.3074C32.2765 16.1995 32.219 16.1002 32.1434 16.0153C32.0678 15.9304 31.9758 15.8617 31.8729 15.8135C31.7699 15.7653 31.6583 15.7385 31.5447 15.7348C31.4311 15.7311 31.3179 15.7505 31.2121 15.7919C31.1062 15.8333 31.0099 15.8958 30.929 15.9756L28.0458 18.5403C27.9634 18.6134 27.8963 18.702 27.8482 18.801C27.8001 18.9 27.7719 19.0075 27.7654 19.1174C27.7589 19.2273 27.774 19.3375 27.8101 19.4415C27.8461 19.5455 27.9023 19.6414 27.9754 19.7238Z"
        fill="#00ABFB" />
    <path fill-rule="evenodd" clip-rule="evenodd"
        d="M29.2738 19.6203C29.2077 19.7084 29.125 19.7826 29.0303 19.8386C28.9356 19.8947 28.8308 19.9316 28.7218 19.9472C28.6128 19.9627 28.5019 19.9567 28.3953 19.9294C28.2886 19.902 28.1884 19.854 28.1004 19.7879L24.7478 17.2735C24.57 17.1402 24.4524 16.9416 24.421 16.7216C24.3896 16.5015 24.4468 16.278 24.5802 16.1002C24.7136 15.9223 24.9121 15.8048 25.1322 15.7733C25.3522 15.7419 25.5758 15.7992 25.7536 15.9325L29.1061 18.4469C29.284 18.5803 29.4015 18.7789 29.433 18.9989C29.4644 19.219 29.4071 19.4425 29.2738 19.6203ZM17.2381 11.5742C17.0159 11.5742 16.8027 11.6625 16.6455 11.8197C16.4883 11.9769 16.4 12.1901 16.4 12.4124V18.2793C16.4 18.5016 16.4883 18.7148 16.6455 18.872C16.8027 19.0291 17.0159 19.1174 17.2381 19.1174C17.4604 19.1174 17.6736 19.0291 17.8308 18.872C17.988 18.7148 18.0763 18.5016 18.0763 18.2793V12.4124C18.0763 12.1901 17.988 11.9769 17.8308 11.8197C17.6736 11.6625 17.4604 11.5742 17.2381 11.5742Z"
        fill="#00ABFB" />
    <path fill-rule="evenodd" clip-rule="evenodd"
        d="M11.3691 18.2795C11.3691 18.5018 11.4574 18.715 11.6146 18.8722C11.7718 19.0294 11.985 19.1177 12.2073 19.1177H17.2361C17.4584 19.1177 17.6716 19.0294 17.8287 18.8722C17.9859 18.715 18.0742 18.5018 18.0742 18.2795C18.0742 18.0573 17.9859 17.8441 17.8287 17.6869C17.6716 17.5297 17.4584 17.4414 17.2361 17.4414H12.2073C11.985 17.4414 11.7718 17.5297 11.6146 17.6869C11.4574 17.8441 11.3691 18.0573 11.3691 18.2795Z"
        fill="#00ABFB" />
</svg>