<svg width="12" height="12" viewBox="0 0 12 12" fill="none" xmlns="http://www.w3.org/2000/svg">
<path d="M10.059 10.4202C9.20094 11.2084 8.13194 11.7298 6.98252 11.9206C5.83311 12.1113 4.653 11.9634 3.5863 11.4946C2.51959 11.0259 1.61243 10.2568 0.975579 9.28106C0.338728 8.30536 -0.000260909 7.16535 1.50671e-07 6.0002H1C0.999928 7.0073 1.30398 7.99095 1.87234 8.82234C2.4407 9.65373 3.24688 10.2941 4.18531 10.6596C5.12374 11.0251 6.15067 11.0987 7.13163 10.8708C8.1126 10.6429 9.00187 10.124 9.683 9.3822H8.23C8.09739 9.3822 7.97021 9.32952 7.87645 9.23575C7.78268 9.14199 7.73 9.01481 7.73 8.8822C7.73 8.74959 7.78268 8.62241 7.87645 8.52865C7.97021 8.43488 8.09739 8.3822 8.23 8.3822H10.559C10.6916 8.3822 10.8188 8.43488 10.9126 8.52865C11.0063 8.62241 11.059 8.74959 11.059 8.8822V11.2092C11.059 11.3418 11.0063 11.469 10.9126 11.5628C10.8188 11.6565 10.6916 11.7092 10.559 11.7092C10.4264 11.7092 10.2992 11.6565 10.2054 11.5628C10.1117 11.469 10.059 11.3418 10.059 11.2092V10.4192V10.4202ZM2.317 2.6192H3.77C3.90261 2.6192 4.02979 2.67188 4.12355 2.76565C4.21732 2.85942 4.27 2.98659 4.27 3.1192C4.27 3.25181 4.21732 3.37899 4.12355 3.47275C4.02979 3.56652 3.90261 3.6192 3.77 3.6192H1.44C1.30739 3.6192 1.18021 3.56652 1.08645 3.47275C0.992678 3.37899 0.94 3.25181 0.94 3.1192V0.7902C0.94 0.657592 0.992678 0.530415 1.08645 0.436647C1.18021 0.342879 1.30739 0.2902 1.44 0.2902C1.57261 0.2902 1.69979 0.342879 1.79355 0.436647C1.88732 0.530415 1.94 0.657592 1.94 0.7902V1.5802C2.79796 0.791003 3.86723 0.268824 5.01714 0.0774779C6.16706 -0.113868 7.34781 0.0339066 8.4151 0.502743C9.4824 0.971579 10.39 1.74117 11.027 2.71746C11.664 3.69376 12.0028 4.83447 12.002 6.0002H11.002C11.0021 4.99297 10.698 4.00919 10.1295 3.17772C9.561 2.34626 8.75465 1.70587 7.81604 1.34044C6.87744 0.975003 5.85035 0.901566 4.86931 1.12974C3.88826 1.35792 2.999 1.87707 2.318 2.6192H2.317Z" fill="black"/>
</svg>
