<svg width="34" height="35" viewBox="0 0 34 35" fill="none" xmlns="http://www.w3.org/2000/svg">
    <g opacity="0.2">
        <path
            d="M31.3682 19.1167C31.3682 22.2287 30.1319 25.2133 27.9314 27.4138C25.7309 29.6144 22.7463 30.8506 19.6343 30.8506C16.5223 30.8506 13.5377 29.6144 11.3372 27.4138C9.13664 25.2133 7.90039 22.2287 7.90039 19.1167C7.90039 16.0047 9.13664 13.0201 11.3372 10.8196C13.5377 8.61906 16.5223 7.38281 19.6343 7.38281C22.7463 7.38281 25.7309 8.61906 27.9314 10.8196C30.1319 13.0201 31.3682 16.0047 31.3682 19.1167Z"
            fill="white" />
        <path fill-rule="evenodd" clip-rule="evenodd"
            d="M19.6343 27.4981C21.8572 27.4981 23.989 26.615 25.5608 25.0432C27.1326 23.4714 28.0156 21.3396 28.0156 19.1167C28.0156 16.8938 27.1326 14.762 25.5608 13.1902C23.989 11.6184 21.8572 10.7354 19.6343 10.7354C17.4114 10.7354 15.2796 11.6184 13.7078 13.1902C12.136 14.762 11.2529 16.8938 11.2529 19.1167C11.2529 21.3396 12.136 23.4714 13.7078 25.0432C15.2796 26.615 17.4114 27.4981 19.6343 27.4981ZM19.6343 30.8506C21.1752 30.8506 22.701 30.5471 24.1247 29.9574C25.5483 29.3677 26.8418 28.5034 27.9314 27.4138C29.021 26.3242 29.8853 25.0307 30.475 23.6071C31.0647 22.1835 31.3682 20.6576 31.3682 19.1167C31.3682 17.5758 31.0647 16.05 30.475 14.6263C29.8853 13.2027 29.021 11.9092 27.9314 10.8196C26.8418 9.73 25.5483 8.86569 24.1247 8.276C22.701 7.68632 21.1752 7.38281 19.6343 7.38281C16.5223 7.38281 13.5377 8.61906 11.3372 10.8196C9.13664 13.0201 7.90039 16.0047 7.90039 19.1167C7.90039 22.2287 9.13664 25.2133 11.3372 27.4138C13.5377 29.6144 16.5223 30.8506 19.6343 30.8506Z"
            fill="#00ABFB" />
    </g>
    <path fill-rule="evenodd" clip-rule="evenodd"
        d="M9.74787 9.81318C8.58918 10.9548 7.70346 12.3435 7.15689 13.8755C6.61032 15.4076 6.41702 17.0433 6.59145 18.6605C6.60768 18.8778 6.5387 19.0928 6.39912 19.26C6.25954 19.4273 6.06033 19.5336 5.84369 19.5565C5.62706 19.5794 5.41002 19.517 5.23858 19.3826C5.06713 19.2482 4.95475 19.0524 4.92524 18.8365C4.72405 16.9687 4.94746 15.0795 5.57877 13.31C6.21009 11.5406 7.23301 9.93666 8.57113 8.618C13.4943 3.76184 21.4365 3.84062 26.3094 8.78227C31.1823 13.7239 31.1505 21.6644 26.2256 26.5206C23.9455 28.7719 20.8855 30.0579 17.6817 30.1111C16.4703 30.1334 15.262 29.9804 14.0944 29.6569C13.8802 29.5977 13.6981 29.4559 13.5884 29.2626C13.4787 29.0692 13.4503 28.8403 13.5094 28.626C13.5685 28.4117 13.7104 28.2297 13.9037 28.12C14.097 28.0102 14.326 27.9818 14.5403 28.0409C15.553 28.3216 16.6009 28.4543 17.6515 28.4349C20.4257 28.3913 23.0759 27.2779 25.0489 25.3271C29.3083 21.1263 29.3435 14.2469 25.1159 9.95901C20.8884 5.67111 14.0073 5.61244 9.74787 9.81318Z"
        fill="#00ABFB" />
    <path fill-rule="evenodd" clip-rule="evenodd"
        d="M6.3801 19.7238C6.3068 19.8059 6.21804 19.8727 6.11889 19.9205C6.01975 19.9684 5.91215 19.9962 5.80226 20.0024C5.69237 20.0086 5.58232 19.9931 5.47841 19.9568C5.3745 19.9205 5.27876 19.8641 5.19665 19.7908L2.31346 17.2261C2.22483 17.155 2.1516 17.0665 2.09821 16.9662C2.04483 16.8659 2.01241 16.7557 2.00292 16.6424C1.99344 16.5292 2.00709 16.4152 2.04305 16.3074C2.079 16.1995 2.13651 16.1002 2.21208 16.0153C2.28764 15.9304 2.37968 15.8617 2.48261 15.8135C2.58553 15.7653 2.69719 15.7385 2.81078 15.7348C2.92438 15.7311 3.03754 15.7505 3.14339 15.7919C3.24924 15.8333 3.34556 15.8958 3.42651 15.9756L6.30969 18.5403C6.39204 18.6134 6.45919 18.702 6.50729 18.801C6.5554 18.9 6.58353 19.0075 6.59006 19.1174C6.5966 19.2273 6.58142 19.3375 6.5454 19.4415C6.50937 19.5455 6.4532 19.6414 6.3801 19.7238Z"
        fill="#00ABFB" />
    <path fill-rule="evenodd" clip-rule="evenodd"
        d="M5.08169 19.6203C5.14773 19.7084 5.23047 19.7826 5.32518 19.8386C5.41989 19.8947 5.52471 19.9316 5.63367 19.9472C5.74263 19.9627 5.85359 19.9567 5.96021 19.9294C6.06683 19.902 6.16703 19.854 6.25508 19.7879L9.60763 17.2735C9.78546 17.1402 9.90302 16.9416 9.93446 16.7216C9.96589 16.5015 9.90862 16.278 9.77525 16.1002C9.64188 15.9223 9.44333 15.8048 9.22327 15.7733C9.00322 15.7419 8.77969 15.7992 8.60186 15.9325L5.24932 18.4469C5.07149 18.5803 4.95393 18.7789 4.92249 18.9989C4.89105 19.219 4.94832 19.4425 5.08169 19.6203ZM17.1173 11.5742C17.3396 11.5742 17.5528 11.6625 17.71 11.8197C17.8672 11.9769 17.9555 12.1901 17.9555 12.4124V18.2793C17.9555 18.5016 17.8672 18.7148 17.71 18.872C17.5528 19.0291 17.3396 19.1174 17.1173 19.1174C16.895 19.1174 16.6818 19.0291 16.5247 18.872C16.3675 18.7148 16.2792 18.5016 16.2792 18.2793V12.4124C16.2792 12.1901 16.3675 11.9769 16.5247 11.8197C16.6818 11.6625 16.895 11.5742 17.1173 11.5742Z"
        fill="#00ABFB" />
    <path fill-rule="evenodd" clip-rule="evenodd"
        d="M22.9863 18.2795C22.9863 18.5018 22.898 18.715 22.7409 18.8722C22.5837 19.0294 22.3705 19.1177 22.1482 19.1177H17.1194C16.8971 19.1177 16.6839 19.0294 16.5267 18.8722C16.3696 18.715 16.2812 18.5018 16.2812 18.2795C16.2812 18.0573 16.3696 17.8441 16.5267 17.6869C16.6839 17.5297 16.8971 17.4414 17.1194 17.4414H22.1482C22.3705 17.4414 22.5837 17.5297 22.7409 17.6869C22.898 17.8441 22.9863 18.0573 22.9863 18.2795Z"
        fill="#00ABFB" />
</svg>