<svg width="50" height="40" viewBox="0 0 50 40" fill="none" xmlns="http://www.w3.org/2000/svg">
    <path
        d="M16.3613 6.03934C13.2132 6.25711 10.1935 7.37309 7.66034 9.25496C5.12718 11.1368 3.1868 13.7057 2.06927 16.6568C0.951743 19.608 0.703948 22.8178 1.35526 25.9055C2.00658 28.9933 3.52969 31.8295 5.74399 34.0778C7.9583 36.3262 10.7709 37.8925 13.8483 38.5908C16.9258 39.2892 20.1389 39.0905 23.1068 38.0182C26.0748 36.9458 28.6729 35.0449 30.5932 32.5408C32.5136 30.0366 33.6755 27.0344 33.9414 23.8899"
        stroke="white" stroke-width="2" stroke-linecap="round" stroke-linejoin="round" />
    <path
        d="M29.5 12C29.7761 12 30 11.7761 30 11.5C30 11.2239 29.7761 11 29.5 11C29.2239 11 29 11.2239 29 11.5C29 11.7761 29.2239 12 29.5 12Z"
        fill="white" />
    <path
        d="M37.5 5C37.7761 5 38 4.77614 38 4.5C38 4.22386 37.7761 4 37.5 4C37.2239 4 37 4.22386 37 4.5C37 4.77614 37.2239 5 37.5 5Z"
        fill="white" />
    <path
        d="M32.5 9C32.7761 9 33 8.77614 33 8.5C33 8.22386 32.7761 8 32.5 8C32.2239 8 32 8.22386 32 8.5C32 8.77614 32.2239 9 32.5 9Z"
        fill="white" />
    <path
        d="M50 12.4438H48.1429C48.1429 11.322 47.9618 10.2181 47.6052 9.16127L49.3732 8.61463C49.7892 9.84834 50 11.1372 50 12.4438ZM49.8607 2.64696L47.5987 4.81218C47.2505 5.14558 46.7782 5.33294 46.2857 5.33304C45.9189 5.33212 45.5605 5.22732 45.2557 5.03184C44.951 4.83636 44.7134 4.55894 44.5731 4.2345C44.4327 3.91007 44.3957 3.55313 44.4668 3.20863C44.538 2.86414 44.714 2.54748 44.9727 2.29854L47.2356 0.132437C46.9263 0.0491454 46.607 0.00462782 46.2857 0C44.2373 0 42.5714 1.59547 42.5714 3.55536C42.5714 4.2131 42.7711 4.82195 43.0979 5.35081L38.8748 9.39326C38.3084 9.06649 37.6603 8.89235 36.9991 8.88928C34.9516 8.88928 33.2848 10.4839 33.2848 12.4446C33.2848 14.4054 34.9516 16 36.9991 16C39.0466 16 40.7134 14.4045 40.7134 12.4446C40.7134 11.7869 40.5146 11.1789 40.1878 10.6492L44.4109 6.60763C44.977 6.93425 45.6248 7.10838 46.2857 7.11161C48.3341 7.11161 50 5.51614 50 3.55625C49.9949 3.24866 49.948 2.94301 49.8607 2.64696ZM37 14.2214C35.9758 14.2214 35.1429 13.4241 35.1429 12.4438C35.1429 11.4634 35.9758 10.6661 37 10.6661C38.0242 10.6661 38.8571 11.4643 38.8571 12.4438C38.8571 13.4233 38.0242 14.2214 37 14.2214ZM25.8571 12.4438H24C24 5.58191 29.8314 0 37 0C38.365 0 39.7114 0.201767 40.9994 0.599967L40.4292 2.29232C39.3212 1.95036 38.1641 1.7767 37 1.77768C30.8556 1.77768 25.8571 6.5623 25.8571 12.4438Z"
        fill="white" />
</svg>