<svg width="42" height="40" viewBox="0 0 42 40" fill="none" xmlns="http://www.w3.org/2000/svg">
    <path fill-rule="evenodd" clip-rule="evenodd"
        d="M28.4006 0C28.1581 7.7805e-05 27.9194 0.0589974 27.7057 0.171527C27.492 0.284057 27.3098 0.446715 27.1754 0.645057L24.1553 5.09595C23.971 5.36886 23.9492 5.71785 24.0981 6.0106C25.7518 9.25852 28.0485 12.1494 30.8535 14.5138L32.3261 15.7551C32.5137 15.9131 32.7527 16 32.9998 16C33.2468 16 33.4858 15.9131 33.6734 15.7551L35.146 14.5146C37.9514 12.15 40.2484 9.25889 41.9022 6.0106C42.0512 5.71785 42.0285 5.36886 41.8442 5.09595L38.8224 0.645057C38.688 0.446984 38.5059 0.284561 38.2924 0.172185C38.0788 0.0598084 37.8403 0.000950063 37.598 0.000826936L28.4006 0ZM28.2256 1.33229C28.2448 1.30402 28.2709 1.28085 28.3014 1.26484C28.3319 1.24883 28.366 1.24047 28.4006 1.24049H30.3697L28.7582 5.04137C28.7224 5.12871 28.6943 5.21891 28.6741 5.31097C28.0815 5.26752 27.4896 5.21514 26.8986 5.15384L25.7163 5.03227L28.2256 1.33229ZM25.6616 6.27359C27.1723 8.99562 29.1654 11.4307 31.5469 13.4643L28.9173 6.57213C28.1998 6.52365 27.4833 6.46245 26.7681 6.38854L25.6616 6.27359ZM30.2948 6.64905L32.9993 13.7397L35.7047 6.64905C33.902 6.72935 32.0966 6.72935 30.294 6.64905M37.0822 6.57213L34.4526 13.4643C36.8342 11.4307 38.8272 8.99562 40.3379 6.27359L39.2314 6.38854C38.5161 6.46187 37.7997 6.52307 37.0822 6.57213ZM40.2824 5.03227L39.0993 5.15466C38.5083 5.21597 37.9163 5.26835 37.3237 5.31179C37.3039 5.21948 37.276 5.12901 37.2404 5.04137L35.629 1.24049H37.598C37.6327 1.24047 37.6667 1.24883 37.6973 1.26484C37.7278 1.28085 37.7538 1.30402 37.7731 1.33229L40.2824 5.03227ZM36.0219 5.39201C34.0074 5.49456 31.9924 5.49456 29.9767 5.39201L31.7371 1.24049H34.2616L36.0219 5.39201Z"
        fill="white" />
    <path
        d="M16.3613 6.03934C13.2132 6.25711 10.1935 7.37309 7.66034 9.25496C5.12718 11.1368 3.1868 13.7057 2.06927 16.6568C0.951743 19.608 0.703948 22.8178 1.35526 25.9055C2.00658 28.9933 3.52969 31.8295 5.74399 34.0778C7.9583 36.3262 10.7709 37.8925 13.8483 38.5908C16.9258 39.2892 20.1389 39.0905 23.1068 38.0182C26.0748 36.9458 28.6729 35.0449 30.5932 32.5408C32.5136 30.0366 33.6755 27.0344 33.9414 23.8899"
        stroke="white" stroke-width="2" stroke-linecap="round" stroke-linejoin="round" />
</svg>