<svg width="25" height="23" viewBox="0 0 25 23" fill="none" xmlns="http://www.w3.org/2000/svg">
    <g clip-path="url(#clip0_578_2260)">
        <path
            d="M0.300001 10.2969H1.6V17.5156H0.300001C0.129223 17.5158 -0.0399206 17.4848 -0.19774 17.4244C-0.35556 17.3641 -0.498956 17.2754 -0.619715 17.1637C-0.740474 17.0519 -0.836223 16.9192 -0.901478 16.7732C-0.966733 16.6271 -1.00021 16.4706 -0.999999 16.3125V11.5C-1.00021 11.3419 -0.966733 11.1854 -0.901478 11.0394C-0.836223 10.8933 -0.740474 10.7606 -0.619715 10.6488C-0.498956 10.5371 -0.35556 10.4484 -0.19774 10.3881C-0.0399206 10.3277 0.129223 10.2967 0.300001 10.2969ZM21.1 8.49219V18.7188C21.0993 19.3567 20.8252 19.9684 20.3377 20.4195C19.8503 20.8707 19.1894 21.1244 18.5 21.125H5.5C4.81065 21.1244 4.14972 20.8707 3.66227 20.4195C3.17482 19.9684 2.90068 19.3567 2.9 18.7188V8.49219C2.89986 8.09716 2.98383 7.70598 3.14711 7.341C3.31039 6.97601 3.54978 6.64438 3.85159 6.36506C4.15341 6.08573 4.51174 5.86418 4.90612 5.71307C5.30049 5.56196 5.72317 5.48425 6.15 5.48438H10.7V3.07812C10.7 2.75904 10.837 2.45302 11.0808 2.22739C11.3246 2.00176 11.6552 1.875 12 1.875C12.3448 1.875 12.6754 2.00176 12.9192 2.22739C13.163 2.45302 13.3 2.75904 13.3 3.07812V5.48438H17.85C18.2768 5.48425 18.6995 5.56196 19.0939 5.71307C19.4883 5.86418 19.8466 6.08573 20.1484 6.36506C20.4502 6.64438 20.6896 6.97601 20.8529 7.341C21.0162 7.70598 21.1001 8.09716 21.1 8.49219ZM9.725 11.5C9.725 11.2026 9.6297 10.9118 9.45114 10.6645C9.27258 10.4172 9.01879 10.2244 8.72186 10.1106C8.42493 9.99674 8.0982 9.96696 7.78298 10.025C7.46776 10.083 7.17821 10.2263 6.95095 10.4366C6.72369 10.6469 6.56893 10.9149 6.50622 11.2066C6.44352 11.4983 6.4757 11.8007 6.5987 12.0755C6.72169 12.3503 6.92997 12.5852 7.1972 12.7505C7.46443 12.9157 7.77861 13.0039 8.1 13.0039C8.3134 13.0039 8.52472 12.965 8.72188 12.8895C8.91904 12.8139 9.09819 12.7031 9.24909 12.5635C9.39998 12.4238 9.51968 12.258 9.60134 12.0755C9.683 11.8931 9.72502 11.6975 9.725 11.5ZM9.4 16.3125H6.8V17.5156H9.4V16.3125ZM13.3 16.3125H10.7V17.5156H13.3V16.3125ZM17.525 11.5C17.525 11.2026 17.4297 10.9118 17.2511 10.6645C17.0726 10.4172 16.8188 10.2244 16.5219 10.1106C16.2249 9.99674 15.8982 9.96696 15.583 10.025C15.2678 10.083 14.9782 10.2263 14.751 10.4366C14.5237 10.6469 14.3689 10.9149 14.3062 11.2066C14.2435 11.4983 14.2757 11.8007 14.3987 12.0755C14.5217 12.3503 14.73 12.5852 14.9972 12.7505C15.2644 12.9157 15.5786 13.0039 15.9 13.0039C16.1134 13.0039 16.3247 12.965 16.5219 12.8895C16.719 12.8139 16.8982 12.7031 17.0491 12.5635C17.2 12.4238 17.3197 12.258 17.4013 12.0755C17.483 11.8931 17.525 11.6975 17.525 11.5ZM17.2 16.3125H14.6V17.5156H17.2V16.3125ZM25 11.5V16.3125C25.0002 16.4706 24.9667 16.6271 24.9015 16.7732C24.8362 16.9192 24.7405 17.0519 24.6197 17.1637C24.499 17.2754 24.3556 17.3641 24.1977 17.4244C24.0399 17.4848 23.8708 17.5158 23.7 17.5156H22.4V10.2969H23.7C23.8708 10.2967 24.0399 10.3277 24.1977 10.3881C24.3556 10.4484 24.499 10.5371 24.6197 10.6488C24.7405 10.7606 24.8362 10.8933 24.9015 11.0394C24.9667 11.1854 25.0002 11.3419 25 11.5Z"
            fill="#898989" />
    </g>
    <defs>
        <clipPath id="clip0_578_2260">
            <rect width="24" height="22" fill="white" transform="matrix(-1 0 0 1 24.4336 0.5)" />
        </clipPath>
    </defs>
</svg>