<svg xmlns="http://www.w3.org/2000/svg" width="27" height="27" viewBox="0 0 27 27" fill="none">
    <path d="M24.5676 12.7034C24.35 12.1778 23.8836 12.0518 23.568 12.0216V8.81823C23.568 7.63016 22.6018 6.66398 21.4137 6.66398H14.951V5.16677C15.2795 4.87164 15.4895 4.44725 15.4895 3.97116C15.4895 3.54265 15.3193 3.13169 15.0163 2.82869C14.7133 2.52569 14.3024 2.35547 13.8738 2.35547C13.4453 2.35547 13.0344 2.52569 12.7314 2.82869C12.4284 3.13169 12.2582 3.54265 12.2582 3.97116C12.2582 4.44725 12.4682 4.87164 12.7967 5.16677V6.66398H6.33395C5.14588 6.66398 4.1797 7.63016 4.1797 8.81823V12.0464L4.09137 12.0528C3.81991 12.0724 3.56592 12.1941 3.38049 12.3933C3.19505 12.5925 3.09191 12.8546 3.0918 13.1267V15.281C3.0918 15.5667 3.20528 15.8406 3.40728 16.0426C3.60928 16.2446 3.88325 16.3581 4.16892 16.3581H4.1797V21.7438C4.1797 22.9318 5.14588 23.898 6.33395 23.898H21.4137C22.6018 23.898 23.568 22.9318 23.568 21.7438V16.3581C23.8537 16.3581 24.1276 16.2446 24.3296 16.0426C24.5316 15.8406 24.6451 15.5667 24.6451 15.281V13.1935C24.6578 13.0264 24.6312 12.8585 24.5676 12.7034ZM6.33395 21.7438V8.81823H21.4137L21.4148 13.1224L21.4137 13.1267V15.281L21.4148 15.2864L21.4159 21.7438H6.33395Z"
          fill="#EDEDED"/>
    <path d="M10.102 15.2812C10.9943 15.2812 11.7177 14.3167 11.7177 13.1269C11.7177 11.9371 10.9943 10.9727 10.102 10.9727C9.2097 10.9727 8.48633 11.9371 8.48633 13.1269C8.48633 14.3167 9.2097 15.2812 10.102 15.2812Z"
          fill="#EDEDED"/>
    <path d="M17.643 15.2812C18.5354 15.2812 19.2587 14.3167 19.2587 13.1269C19.2587 11.9371 18.5354 10.9727 17.643 10.9727C16.7507 10.9727 16.0273 11.9371 16.0273 13.1269C16.0273 14.3167 16.7507 15.2812 17.643 15.2812Z"
          fill="#EDEDED"/>
    <path d="M9.56445 17.4355H18.1815V19.5898H9.56445V17.4355Z" fill="#EDEDED"/>
</svg>