<svg xmlns="http://www.w3.org/2000/svg" width="16" height="17" viewBox="0 0 16 17" fill="none">
    <path d="M7.99992 4.75V6.25M7.99845 1C5.78205 1 4.34522 2.51425 2.64607 3.06625C1.95492 3.29125 1.60934 3.403 1.46934 3.56125C1.32934 3.71875 1.28882 3.9505 1.20703 4.4125C0.330194 9.3595 2.24597 13.933 6.81435 15.7135C7.30435 15.9048 7.54972 16 8.00066 16C8.45161 16 8.69771 15.904 9.18844 15.7128C13.7561 13.933 15.6697 9.3595 14.7928 4.4125C14.711 3.9505 14.6698 3.71875 14.5298 3.5605C14.3898 3.40225 14.0449 3.2905 13.3538 3.06625C11.6539 2.51425 10.2149 1 7.99845 1Z" stroke="#4E4E4E" stroke-width="2" stroke-linecap="round" stroke-linejoin="round"/>
</svg>