<svg width="16" height="16" viewBox="0 0 16 16" fill="none" xmlns="http://www.w3.org/2000/svg">
    <g clip-path="url(#clip0_539_12226)">
        <path
            d="M13.2583 8.35421L14.1623 9.15921C14.3292 9.29851 14.4408 9.49299 14.4767 9.70742C14.5127 9.92185 14.4707 10.1421 14.3583 10.3282L13.2683 12.1902C13.1837 12.3327 13.063 12.4504 12.9183 12.5312C12.7719 12.6122 12.6076 12.6552 12.4403 12.6562C12.3365 12.6568 12.2333 12.6413 12.1343 12.6102L10.9773 12.2282C10.7746 12.3582 10.564 12.4745 10.3453 12.5772L10.1023 13.7502C10.0573 13.966 9.93719 14.1588 9.7633 14.2942C9.5872 14.4321 9.36889 14.5048 9.1453 14.5002H6.8883C6.66471 14.5048 6.44639 14.4321 6.2703 14.2942C6.09678 14.1586 5.977 13.9658 5.9323 13.7502L5.6883 12.5772C5.4725 12.4732 5.26312 12.3563 5.0613 12.2272L3.9003 12.6102C3.8013 12.6413 3.69807 12.6568 3.5943 12.6562C3.42736 12.655 3.26337 12.612 3.1173 12.5312C2.97274 12.4507 2.852 12.3334 2.7673 12.1912L1.6383 10.3282C1.52093 10.1404 1.47608 9.91621 1.51216 9.6977C1.54824 9.47918 1.66278 9.28132 1.8343 9.14121L2.7373 8.00021V7.64621L1.8333 6.84121C1.66636 6.7019 1.55482 6.50743 1.51887 6.293C1.48291 6.07856 1.52493 5.85834 1.6373 5.67221L2.7663 3.81021C2.85086 3.66767 2.97161 3.55003 3.1163 3.46921C3.26237 3.38838 3.42636 3.3454 3.5933 3.34421C3.69613 3.33772 3.79935 3.34717 3.8993 3.37221L5.0373 3.77221C5.24063 3.64221 5.4513 3.52587 5.6693 3.42321L5.9133 2.25021C5.958 2.03458 6.07778 1.8418 6.2513 1.70621C6.42739 1.56835 6.64571 1.49558 6.8693 1.50021H9.1073C9.33089 1.49558 9.5492 1.56835 9.7253 1.70621C9.9003 1.84321 10.0203 2.03621 10.0633 2.25021L10.3073 3.42321C10.524 3.52654 10.733 3.64321 10.9343 3.77321L12.0963 3.39121C12.2253 3.34925 12.3615 3.33453 12.4965 3.34795C12.6314 3.36138 12.7621 3.40267 12.8803 3.46921C13.0253 3.55121 13.1453 3.66921 13.2303 3.80921L14.3583 5.67221C14.4772 5.85843 14.5244 6.08157 14.4909 6.29999C14.4574 6.51841 14.3456 6.71718 14.1763 6.85921L13.2583 7.64121V8.35421Z"
            stroke="currentColor" stroke-width="1.5" />
        <path
            d="M10.5 8C10.5 8.66304 10.2366 9.29893 9.76777 9.76777C9.29893 10.2366 8.66304 10.5 8 10.5C7.33696 10.5 6.70107 10.2366 6.23223 9.76777C5.76339 9.29893 5.5 8.66304 5.5 8C5.5 7.33696 5.76339 6.70107 6.23223 6.23223C6.70107 5.76339 7.33696 5.5 8 5.5C8.66304 5.5 9.29893 5.76339 9.76777 6.23223C10.2366 6.70107 10.5 7.33696 10.5 8Z"
            stroke="currentColor" stroke-width="1.5" />
    </g>
    <defs>
        <clipPath id="clip0_539_12226">
            <rect width="16" height="16" fill="white" />
        </clipPath>
    </defs>
</svg>