<svg width="16" height="16" viewBox="0 0 16 16" fill="none" xmlns="http://www.w3.org/2000/svg">
<g clip-path="url(#clip0_1152_10803)">
<path d="M8 0.5C3.85787 0.5 0.5 3.85787 0.5 8C0.5 12.1421 3.85787 15.5 8 15.5C12.1421 15.5 15.5 12.1421 15.5 8C15.5 3.85787 12.1421 0.5 8 0.5ZM12.5962 12.5962C11.4565 13.7325 9.93462 14.4037 8.32705 14.4792C6.71948 14.5547 5.1414 14.0289 3.90029 13.0044C2.65918 11.9799 1.84396 10.53 1.61346 8.93726C1.38297 7.34451 1.75372 5.723 2.65347 4.38868C3.55323 3.05436 4.91753 2.10281 6.48054 1.71945C8.04355 1.33608 9.6933 1.54837 11.1083 2.31494C12.5234 3.08151 13.6023 4.34744 14.135 5.86608C14.6676 7.38472 14.6158 9.04727 13.9896 10.5298C13.6633 11.3023 13.19 12.0041 12.5962 12.5962Z" fill="black"/>
<path d="M4 6H5.25V7.25H4V6ZM10.5 6H11.75V7.25H10.5V6ZM7.25 9.59212C7.24998 9.57746 7.25202 9.56287 7.25606 9.54878L8.25 6.07003V5.25H7.25V5.92997L6.29456 9.274C6.24532 9.44632 6.23676 9.62772 6.26954 9.80392C6.30232 9.98011 6.37556 10.1463 6.48348 10.2894C6.5914 10.4325 6.73107 10.5485 6.89147 10.6285C7.05188 10.7084 7.22866 10.75 7.40788 10.75H9.25V9.75H7.40788C7.36602 9.74996 7.32588 9.73331 7.29629 9.70371C7.26669 9.67412 7.25004 9.63398 7.25 9.59212Z" fill="black"/>
</g>
<defs>
<clipPath id="clip0_1152_10803">
<rect width="16" height="16" fill="white"/>
</clipPath>
</defs>
</svg>
