<svg width="44" height="44" viewBox="0 0 44 44" fill="none" xmlns="http://www.w3.org/2000/svg">
<path d="M22 2C24.6264 2 27.2272 2.51732 29.6537 3.52241C32.0802 4.5275 34.285 6.00069 36.1421 7.85787C37.9993 9.71504 39.4725 11.9198 40.4776 14.3463C41.4827 16.7728 42 19.3736 42 22C42 24.6264 41.4827 27.2272 40.4776 29.6537C39.4725 32.0802 37.9993 34.285 36.1421 36.1421C34.285 37.9993 32.0802 39.4725 29.6537 40.4776C27.2271 41.4827 24.6264 42 22 42C19.3736 42 16.7728 41.4827 14.3463 40.4776C11.9198 39.4725 9.71503 37.9993 7.85786 36.1421C6.00069 34.285 4.5275 32.0802 3.52241 29.6537C2.51731 27.2271 2 24.6264 2 22C2 19.3736 2.51732 16.7728 3.52241 14.3463C4.52751 11.9198 6.0007 9.71503 7.85787 7.85786C9.71504 6.00068 11.9198 4.5275 14.3463 3.5224C16.7729 2.51731 19.3736 2 22 2L22 2Z" stroke="#777777" stroke-width="3.58732" stroke-linecap="round"/>
<path d="M15.3559 19.4997C16.0059 19.4997 16.6226 19.6163 17.2059 19.8497C17.7892 20.083 18.3226 20.4247 18.8059 20.8747L28.3559 29.9997H28.9559C29.2392 29.9997 29.4769 29.9037 29.6689 29.7117C29.8609 29.5197 29.9566 29.2823 29.9559 28.9997C29.9559 28.8663 29.9432 28.7247 29.9179 28.5747C29.8926 28.4247 29.8052 28.2747 29.6559 28.1247L25.0809 23.5497L23.3059 18.1997L21.4559 18.6497C20.8226 18.8163 20.2476 18.6997 19.7309 18.2997C19.2142 17.8997 18.9559 17.3747 18.9559 16.7247V14.6247L18.2559 14.2747L14.4059 19.4247C14.3892 19.4413 14.3809 19.4537 14.3809 19.4617C14.3809 19.4697 14.3726 19.4823 14.3559 19.4997H15.3559ZM15.3559 21.4997H14.2059C14.2559 21.6163 14.3186 21.7247 14.3939 21.8247C14.4692 21.9247 14.5566 22.0163 14.6559 22.0997L22.7559 29.4747C22.9392 29.658 23.1476 29.7913 23.3809 29.8747C23.6142 29.958 23.8559 29.9997 24.1059 29.9997H25.4559L17.4309 22.3247C17.1476 22.0413 16.8269 21.833 16.4689 21.6997C16.1109 21.5663 15.7399 21.4997 15.3559 21.4997ZM24.1059 31.9997C23.6059 31.9997 23.1309 31.908 22.6809 31.7247C22.2309 31.5413 21.8142 31.283 21.4309 30.9497L13.3059 23.5747C12.5392 22.8747 12.1099 22.0163 12.0179 20.9997C11.9259 19.983 12.1886 19.058 12.8059 18.2247L16.6559 13.0747C16.9392 12.6913 17.3186 12.437 17.7939 12.3117C18.2692 12.1863 18.7232 12.2407 19.1559 12.4747L19.8559 12.8247C20.2059 13.008 20.4769 13.258 20.6689 13.5747C20.8609 13.8913 20.9566 14.2413 20.9559 14.6247V16.7247L22.8059 16.2497C23.3059 16.1163 23.7892 16.179 24.2559 16.4377C24.7226 16.6963 25.0392 17.067 25.2059 17.5497L26.8309 22.4497L31.0809 26.6997C31.4142 27.033 31.6436 27.3913 31.7689 27.7747C31.8942 28.158 31.9566 28.5663 31.9559 28.9997C31.9559 29.833 31.6642 30.5413 31.0809 31.1247C30.4976 31.708 29.7892 31.9997 28.9559 31.9997H24.1059Z" fill="#777777"/>
</svg>
