<svg width="19" height="16" viewBox="0 0 19 16" fill="none" xmlns="http://www.w3.org/2000/svg">
<path d="M9.99977 5.99982V14.9998M9.99977 5.99982L12.9998 8.99982M9.99977 5.99982L6.99977 8.99982M15.4998 10.9998C17.0188 10.9998 17.9998 9.76882 17.9998 8.24982C17.9997 7.64844 17.8025 7.06365 17.4384 6.58503C17.0743 6.1064 16.5633 5.76033 15.9838 5.59982C15.8946 4.47828 15.4298 3.41959 14.6645 2.59491C13.8991 1.77024 12.878 1.22778 11.7663 1.05525C10.6545 0.882709 9.51703 1.09018 8.53776 1.64411C7.55849 2.19804 6.79467 3.06606 6.36977 4.10782C5.4752 3.85984 4.51875 3.97739 3.71085 4.4346C2.90294 4.89182 2.30975 5.65124 2.06177 6.54582C1.81379 7.44039 1.93134 8.39684 2.38856 9.20475C2.84577 10.0127 3.6052 10.6058 4.49977 10.8538" stroke="black" stroke-width="2" stroke-linecap="round" stroke-linejoin="round"/>
</svg>
