<svg width="15" height="15" viewBox="0 0 15 15" fill="none" xmlns="http://www.w3.org/2000/svg">
<path d="M10.4688 7.89844C10.1979 8.1224 9.96615 8.3724 9.77344 8.64844C9.34115 8.42969 8.89062 8.26823 8.42188 8.16406C7.95312 8.0599 7.47396 8.00521 6.98438 8C6.42188 8 5.88542 8.07031 5.375 8.21094C4.86458 8.35156 4.38542 8.54948 3.9375 8.80469C3.48958 9.0599 3.08854 9.36979 2.73438 9.73438C2.38021 10.099 2.07031 10.5026 1.80469 10.9453C1.53906 11.388 1.34115 11.8698 1.21094 12.3906C1.08073 12.9115 1.01042 13.4479 1 14H0C0 13.2396 0.111979 12.5078 0.335938 11.8047C0.559896 11.1016 0.882812 10.4583 1.30469 9.875C1.72656 9.29167 2.22917 8.78125 2.8125 8.34375C3.39583 7.90625 4.05729 7.57031 4.79688 7.33594C4.51562 7.14844 4.26562 6.93229 4.04688 6.6875C3.82812 6.44271 3.64062 6.17708 3.48438 5.89062C3.32812 5.60417 3.20833 5.30208 3.125 4.98438C3.04167 4.66667 3 4.33854 3 4C3 3.44792 3.10417 2.92969 3.3125 2.44531C3.52083 1.96094 3.80729 1.53906 4.17188 1.17969C4.53646 0.820312 4.96094 0.533854 5.44531 0.320312C5.92969 0.106771 6.44792 0 7 0C7.55208 0 8.07031 0.104167 8.55469 0.3125C9.03906 0.520833 9.46094 0.807292 9.82031 1.17188C10.1797 1.53646 10.4661 1.96094 10.6797 2.44531C10.8932 2.92969 11 3.44792 11 4C11 4.33854 10.9583 4.66667 10.875 4.98438C10.7917 5.30208 10.6745 5.60677 10.5234 5.89844C10.3724 6.1901 10.1823 6.45573 9.95312 6.69531C9.72396 6.9349 9.47135 7.15104 9.19531 7.34375C9.41927 7.41667 9.63542 7.4974 9.84375 7.58594C10.0521 7.67448 10.2604 7.77865 10.4688 7.89844ZM4 4C4 4.41667 4.07812 4.80469 4.23438 5.16406C4.39062 5.52344 4.60417 5.84115 4.875 6.11719C5.14583 6.39323 5.46354 6.60938 5.82812 6.76562C6.19271 6.92188 6.58333 7 7 7C7.41146 7 7.79948 6.92188 8.16406 6.76562C8.52865 6.60938 8.84635 6.39583 9.11719 6.125C9.38802 5.85417 9.60417 5.53646 9.76562 5.17188C9.92708 4.80729 10.0052 4.41667 10 4C10 3.58854 9.92188 3.20052 9.76562 2.83594C9.60938 2.47135 9.39583 2.15365 9.125 1.88281C8.85417 1.61198 8.53385 1.39583 8.16406 1.23438C7.79427 1.07292 7.40625 0.994792 7 1C6.58333 1 6.19531 1.07812 5.83594 1.23438C5.47656 1.39062 5.15885 1.60417 4.88281 1.875C4.60677 2.14583 4.39062 2.46615 4.23438 2.83594C4.07812 3.20573 4 3.59375 4 4ZM12.5156 7.99219C12.8594 7.99219 13.1849 8.05729 13.4922 8.1875C13.7995 8.31771 14.0651 8.4974 14.2891 8.72656C14.513 8.95573 14.6927 9.22135 14.8281 9.52344C14.9635 9.82552 15.0312 10.151 15.0312 10.5C15.0312 10.8438 14.9661 11.1667 14.8359 11.4688C14.7057 11.7708 14.526 12.0365 14.2969 12.2656C14.0677 12.4948 13.7995 12.6745 13.4922 12.8047C13.1849 12.9349 12.8594 13.0026 12.5156 13.0078C12.0104 13.0078 11.5495 12.8672 11.1328 12.5859L8.85156 14.8672C8.7526 14.9661 8.63542 15.0156 8.5 15.0156C8.36458 15.0156 8.2474 14.9661 8.14844 14.8672C8.04948 14.7682 8 14.651 8 14.5156C8 14.3802 8.04948 14.263 8.14844 14.1641L10.4297 11.8828C10.1484 11.4661 10.0078 11.0052 10.0078 10.5C10.0078 10.1562 10.0729 9.83333 10.2031 9.53125C10.3333 9.22917 10.513 8.96354 10.7422 8.73438C10.9714 8.50521 11.237 8.32552 11.5391 8.19531C11.8411 8.0651 12.1667 7.9974 12.5156 7.99219ZM12.5156 12.0078C12.724 12.0078 12.9193 11.9688 13.1016 11.8906C13.2839 11.8125 13.4427 11.7057 13.5781 11.5703C13.7135 11.4349 13.8229 11.2734 13.9062 11.0859C13.9896 10.8984 14.0312 10.7031 14.0312 10.5C14.0312 10.2917 13.9922 10.0964 13.9141 9.91406C13.8359 9.73177 13.7266 9.57292 13.5859 9.4375C13.4453 9.30208 13.2865 9.19271 13.1094 9.10938C12.9323 9.02604 12.7344 8.98698 12.5156 8.99219C12.3073 8.99219 12.112 9.03125 11.9297 9.10938C11.7474 9.1875 11.5885 9.29688 11.4531 9.4375C11.3177 9.57812 11.2083 9.73698 11.125 9.91406C11.0417 10.0911 11.0026 10.2865 11.0078 10.5C11.0078 10.7083 11.0469 10.9036 11.125 11.0859C11.2031 11.2682 11.3099 11.4271 11.4453 11.5625C11.5807 11.6979 11.7422 11.8073 11.9297 11.8906C12.1172 11.974 12.3125 12.013 12.5156 12.0078Z" fill="#EFEFEF"/>
</svg>
