<svg xmlns="http://www.w3.org/2000/svg" width="17" height="17" viewBox="0 0 17 17" fill="none">
    <path d="M9.0062 0C11.7483 0 13.9719 2.1811 13.9719 4.8722C13.971 5.57954 13.8147 6.27804 13.514 6.9183C13.2134 7.55856 12.7757 8.12493 12.232 8.57735C12.4643 8.69068 12.6762 8.80458 12.8678 8.91905C13.2797 9.16555 13.7076 9.47127 14.1513 9.8362C14.211 9.88483 14.2605 9.94492 14.2967 10.0129C14.3329 10.081 14.3551 10.1555 14.3621 10.2323C14.3691 10.309 14.3606 10.3864 14.3373 10.4598C14.3139 10.5332 14.2761 10.6012 14.2261 10.6599C14.1233 10.7792 13.9779 10.8537 13.821 10.8673C13.6641 10.881 13.5081 10.8328 13.3863 10.7329C13.0275 10.4328 12.6468 10.1601 12.2473 9.91695C11.8574 9.69126 11.4531 9.49164 11.0369 9.3194C10.3967 9.60117 9.70475 9.74594 9.00535 9.7444C8.23477 9.74603 7.47417 9.57006 6.7826 9.23015L6.7469 9.24715C5.06645 9.88975 3.8399 10.84 3.0494 12.1014C2.25465 13.3671 1.92995 14.7815 2.0753 16.3633C2.08181 16.4406 2.07295 16.5183 2.04925 16.592C2.02554 16.6658 1.98746 16.7341 1.93719 16.7931C1.88693 16.8521 1.82548 16.9005 1.7564 16.9355C1.68731 16.9706 1.61196 16.9917 1.5347 16.9974C1.37878 17.0126 1.22318 16.9655 1.10195 16.8662C0.98073 16.767 0.903749 16.6238 0.887855 16.4679C0.720405 14.6387 1.1029 12.9718 2.03365 11.4886C2.85305 10.183 4.05665 9.1681 5.62915 8.44475C5.12888 7.99372 4.72889 7.44266 4.45508 6.82724C4.18127 6.21183 4.03974 5.54578 4.03965 4.8722C4.03965 2.1811 6.2641 0 9.0062 0ZM15.1458 12.104C15.2566 11.9951 15.4056 11.9339 15.5609 11.9335C15.7162 11.933 15.8656 11.9933 15.9771 12.1014C16.2066 12.3275 16.2066 12.6947 15.9788 12.9217L14.9656 13.9239L15.9788 14.9269C16.0331 14.9804 16.0763 15.0442 16.1057 15.1146C16.1351 15.185 16.1501 15.2606 16.15 15.3369C16.1498 15.4132 16.1345 15.4887 16.1048 15.559C16.0751 15.6293 16.0317 15.6929 15.9771 15.7462C15.8658 15.8546 15.7166 15.9152 15.5612 15.9151C15.4059 15.9149 15.2568 15.854 15.1458 15.7454L14.1368 14.7449L13.1279 15.7454C13.0287 15.8424 12.8987 15.9017 12.7604 15.9131C12.6221 15.9244 12.4842 15.887 12.3705 15.8074L12.2974 15.7462C12.2428 15.6929 12.1994 15.6293 12.1697 15.559C12.14 15.4887 12.1246 15.4132 12.1245 15.3369C12.1243 15.2606 12.1394 15.185 12.1688 15.1146C12.1982 15.0442 12.2413 14.9804 12.2957 14.9269L13.3072 13.9239L12.2957 12.9208C12.2413 12.8673 12.1982 12.8035 12.1688 12.7331C12.1394 12.6627 12.1243 12.5871 12.1245 12.5108C12.1246 12.4345 12.14 12.359 12.1697 12.2887C12.1994 12.2184 12.2428 12.1548 12.2974 12.1014C12.4087 11.9934 12.5578 11.9331 12.713 11.9335C12.8681 11.9338 13.017 11.9947 13.1279 12.1031L14.1368 13.1027L15.1458 12.104ZM9.0062 1.16875C6.92115 1.16875 5.2322 2.82625 5.2322 4.87135C5.2322 6.91645 6.92115 8.5748 9.0062 8.5748C11.0904 8.5748 12.7802 6.9173 12.7802 4.87135C12.7802 2.8254 11.0904 1.16875 9.0062 1.16875Z" fill="#4E4E4E"/>
</svg>