<svg width="44" height="44" viewBox="0 0 44 44" fill="none" xmlns="http://www.w3.org/2000/svg">
<path d="M22 2C24.6264 2 27.2272 2.51732 29.6537 3.52241C32.0802 4.5275 34.285 6.00069 36.1421 7.85787C37.9993 9.71504 39.4725 11.9198 40.4776 14.3463C41.4827 16.7728 42 19.3736 42 22C42 24.6264 41.4827 27.2272 40.4776 29.6537C39.4725 32.0802 37.9993 34.285 36.1421 36.1421C34.285 37.9993 32.0802 39.4725 29.6537 40.4776C27.2271 41.4827 24.6264 42 22 42C19.3736 42 16.7728 41.4827 14.3463 40.4776C11.9198 39.4725 9.71503 37.9993 7.85786 36.1421C6.00069 34.285 4.5275 32.0802 3.52241 29.6537C2.51731 27.2271 2 24.6264 2 22C2 19.3736 2.51732 16.7728 3.52241 14.3463C4.52751 11.9198 6.0007 9.71503 7.85787 7.85786C9.71504 6.00068 11.9198 4.5275 14.3463 3.5224C16.7729 2.51731 19.3736 2 22 2L22 2Z" stroke="#777777" stroke-width="3.58732" stroke-linecap="round"/>
<path d="M22.6822 14.1557C22.6404 14.1069 22.5885 14.0677 22.5301 14.0408C22.4717 14.0139 22.4082 14 22.3439 14C22.2797 14 22.2161 14.0139 22.1578 14.0408C22.0994 14.0677 22.0475 14.1069 22.0057 14.1557C20.8308 15.5298 17 20.2806 17 23.7997C17 27.079 19.0648 29.1434 22.3438 29.1434C25.6227 29.1434 27.6875 27.079 27.6875 23.7997C27.6875 20.2806 23.8567 15.5298 22.6822 14.1557ZM22.9375 27.2137C22.8662 27.2139 22.7959 27.1969 22.7325 27.1642C22.6691 27.1315 22.6145 27.0841 22.5732 27.0259C22.532 26.9677 22.5053 26.9005 22.4955 26.8298C22.4856 26.7592 22.4929 26.6872 22.5167 26.62C22.547 26.5322 22.6043 26.4563 22.6803 26.403C22.7564 26.3497 22.8473 26.3217 22.9401 26.3231C23.5295 26.3218 24.0945 26.0871 24.5113 25.6703C24.9281 25.2535 25.1628 24.6886 25.1641 24.0991C25.1627 24.0063 25.1907 23.9154 25.244 23.8394C25.2973 23.7634 25.3732 23.7061 25.4609 23.6757C25.5282 23.6519 25.6002 23.6447 25.6708 23.6545C25.7414 23.6643 25.8087 23.691 25.8669 23.7322C25.9251 23.7735 25.9725 23.8281 26.0052 23.8915C26.0379 23.9549 26.0548 24.0252 26.0547 24.0965C26.0538 24.923 25.7251 25.7154 25.1407 26.2997C24.5563 26.8841 23.764 27.2128 22.9375 27.2137Z" fill="#777777"/>
</svg>
