<svg xmlns="http://www.w3.org/2000/svg" width="20" height="20" viewBox="0 0 20 20" fill="none">
    <path
        d="M8.57524 2.69625C9.35864 1.90104 10.6414 1.90104 11.4248 2.69625L11.9578 3.23734C12.3374 3.62261 12.8567 3.83775 13.3975 3.8337L14.1571 3.82801C15.2733 3.81966 16.1803 4.72668 16.172 5.84293L16.1663 6.60246C16.1623 7.14326 16.3774 7.66265 16.7627 8.04219L17.3037 8.57524C18.099 9.35864 18.099 10.6414 17.3037 11.4248L16.7627 11.9578C16.3774 12.3374 16.1623 12.8567 16.1663 13.3975L16.172 14.1571C16.1803 15.2733 15.2733 16.1803 14.1571 16.172L13.3975 16.1663C12.8567 16.1623 12.3374 16.3774 11.9578 16.7627L11.4248 17.3037C10.6414 18.099 9.35864 18.099 8.57524 17.3037L8.04219 16.7627C7.66265 16.3774 7.14326 16.1623 6.60246 16.1663L5.84293 16.172C4.72668 16.1803 3.81966 15.2733 3.82801 14.1571L3.8337 13.3975C3.83775 12.8567 3.62261 12.3374 3.23734 11.9578L2.69625 11.4248C1.90104 10.6414 1.90104 9.35864 2.69625 8.57524L3.23734 8.04219C3.62261 7.66265 3.83775 7.14326 3.8337 6.60246L3.82801 5.84293C3.81966 4.72668 4.72668 3.81966 5.84293 3.82801L6.60246 3.8337C7.14326 3.83775 7.66265 3.62261 8.04219 3.23734L8.57524 2.69625Z"
        stroke="currentColor" stroke-width="2" />
    <path d="M13.3333 8.33325L9.6875 11.6666L7.5 10.098" stroke="currentColor" stroke-width="2"
        stroke-linecap="round" stroke-linejoin="round" />
</svg>