<svg width="44" height="44" viewBox="0 0 44 44" fill="none" xmlns="http://www.w3.org/2000/svg">
<path d="M22 2C24.6264 2 27.2272 2.51732 29.6537 3.52241C32.0802 4.5275 34.285 6.00069 36.1421 7.85787C37.9993 9.71504 39.4725 11.9198 40.4776 14.3463C41.4827 16.7728 42 19.3736 42 22C42 24.6264 41.4827 27.2272 40.4776 29.6537C39.4725 32.0802 37.9993 34.285 36.1421 36.1421C34.285 37.9993 32.0802 39.4725 29.6537 40.4776C27.2271 41.4827 24.6264 42 22 42C19.3736 42 16.7728 41.4827 14.3463 40.4776C11.9198 39.4725 9.71503 37.9993 7.85786 36.1421C6.00069 34.285 4.5275 32.0802 3.52241 29.6537C2.51731 27.2271 2 24.6264 2 22C2 19.3736 2.51732 16.7728 3.52241 14.3463C4.52751 11.9198 6.0007 9.71503 7.85787 7.85786C9.71504 6.00068 11.9198 4.5275 14.3463 3.5224C16.7729 2.51731 19.3736 2 22 2L22 2Z" stroke="#777777" stroke-width="3.58732" stroke-linecap="round"/>
<path opacity="0.3" d="M14.5 18H28.5V27.625H14.5V18Z" fill="#777777"/>
<path d="M28.5 16.25H25V14.5C25 13.5288 24.2212 12.75 23.25 12.75H19.75C18.7787 12.75 18 13.5288 18 14.5V16.25H14.5C13.5288 16.25 12.7587 17.0287 12.7587 18L12.75 27.625C12.75 28.5962 13.5288 29.375 14.5 29.375H28.5C29.4713 29.375 30.25 28.5962 30.25 27.625V18C30.25 17.0287 29.4713 16.25 28.5 16.25ZM19.75 14.5H23.25V16.25H19.75V14.5ZM28.5 27.625H14.5V18H28.5V27.625Z" fill="#777777"/>
</svg>
