<?xml version="1.0" encoding="UTF-8" standalone="no"?>
<svg
   width="39"
   height="38"
   viewBox="0 0 39 38"
   fill="none"
   version="1.1"
   id="svg11"
   sodipodi:docname="meh-newer.svg"
   inkscape:version="1.4 (86a8ad7, 2024-10-11)"
   xmlns:inkscape="http://www.inkscape.org/namespaces/inkscape"
   xmlns:sodipodi="http://sodipodi.sourceforge.net/DTD/sodipodi-0.dtd"
   xmlns="http://www.w3.org/2000/svg"
   xmlns:svg="http://www.w3.org/2000/svg">
  <sodipodi:namedview
     id="namedview11"
     pagecolor="#ffffff"
     bordercolor="#000000"
     borderopacity="0.25"
     inkscape:showpageshadow="2"
     inkscape:pageopacity="0.0"
     inkscape:pagecheckerboard="0"
     inkscape:deskcolor="#d1d1d1"
     showgrid="false"
     inkscape:zoom="19.552632"
     inkscape:cx="19"
     inkscape:cy="10.816958"
     inkscape:window-width="1680"
     inkscape:window-height="987"
     inkscape:window-x="-8"
     inkscape:window-y="-8"
     inkscape:window-maximized="1"
     inkscape:current-layer="svg11" />
  <g
     filter="url(#filter0_i_521_10140)"
     id="g1">
    <path
       d="M 39,8.97857 V 29.0084 c 0.0012,1.1804 -0.2364,2.3494 -0.6992,3.4403 -0.4628,1.0908 -1.1417,2.0821 -1.9979,2.9172 -0.8562,0.8351 -1.873,1.4975 -2.9921,1.9495 C 32.1917,37.7674 30.9921,38 29.7807,38 H 9.22379 C 6.77863,37.9988 4.43389,37.0522 2.70447,35.368 0.975064,33.6837 0.00237225,31.3995 4.33597e-6,29.0171 V 8.98728 C -0.00117063,7.8071 0.23646,6.63827 0.699302,5.54765 1.16215,4.45703 1.84112,3.46602 2.69739,2.6313 3.55366,1.79658 4.57042,1.13454 5.68951,0.683035 6.80861,0.231532 8.00808,-5.71846e-4 9.21932,1.05799e-6 H 29.7762 C 30.9869,-5.70896e-4 32.1859,0.231213 33.3046,0.682119 c 1.1188,0.450911 2.1355,1.112101 2.992,1.945841 0.8565,0.83374 1.536,1.82369 1.9999,2.91333 0.4639,1.08964 0.7029,2.25763 0.7035,3.43728 z"
       fill="#ffd900"
       id="path1" />
  </g>
  <g
     style="mix-blend-mode:soft-light"
     opacity="0.4"
     id="g2">
    <path
       d="m 19.5919,14.8125 -1.0636,5.4472 1.0636,0.8274 z"
       fill="#000000"
       id="path2" />
  </g>
  <g
     style="mix-blend-mode:soft-light"
     opacity="0.4"
     id="g3">
    <path
       d="m 14.9297,28.2031 c 1.3724,1.1478 7.6305,1.2266 9.1406,0 z"
       fill="#000000"
       id="path3" />
  </g>
  <path
     d="M 26.9432,26.6772 H 12.1646 c -0.0672,0.0215 -0.1386,0.0272 -0.2084,0.0166 -0.0698,-0.0106 -0.136,-0.0372 -0.1932,-0.0775 -0.0573,-0.0404 -0.1039,-0.0934 -0.136,-0.1547 -0.0321,-0.0613 -0.0489,-0.1292 -0.0489,-0.198 0,-0.0689 0.0168,-0.1367 0.0489,-0.1981 0.0321,-0.0613 0.0787,-0.1143 0.136,-0.1547 0.0572,-0.0403 0.1234,-0.0669 0.1932,-0.0775 0.0698,-0.0106 0.1412,-0.0049 0.2084,0.0166 h 14.7786 c 0.0671,-0.0215 0.1385,-0.0272 0.2083,-0.0166 0.0698,0.0106 0.136,0.0372 0.1933,0.0775 0.0572,0.0404 0.1038,0.0934 0.1359,0.1547 0.0321,0.0614 0.0489,0.1292 0.0489,0.1981 0,0.0688 -0.0168,0.1367 -0.0489,0.198 -0.0321,0.0613 -0.0787,0.1143 -0.1359,0.1547 -0.0573,0.0403 -0.1235,0.0669 -0.1933,0.0775 -0.0698,0.0106 -0.1412,0.0049 -0.2083,-0.0166 z"
     fill="#000000"
     id="path4" />
  <g
     clip-path="url(#clip0_521_10140)"
     id="g10">
    <path
       d="m 32.6016,15.1524 c 0,-2.138 -1.7734,-3.8712 -3.961,-3.8712 -2.1875,0 -3.9609,1.7332 -3.9609,3.8712 v 1.164 c 0,2.1379 1.7734,3.8711 3.9609,3.8711 2.1876,0 3.961,-1.7332 3.961,-3.8711 z"
       fill="#000000"
       id="path5" />
    <path
       d="m 27.3563,14.1124 c 0.3851,0 0.6972,-0.3041 0.6972,-0.6792 0,-0.3752 -0.3121,-0.6793 -0.6972,-0.6793 -0.385,0 -0.6971,0.3041 -0.6971,0.6793 0,0.3751 0.3121,0.6792 0.6971,0.6792 z"
       fill="#ffffff"
       id="path6" />
    <path
       opacity="0.1"
       d="m 28.6476,16.7276 c 0.8959,0 1.6222,-0.7076 1.6222,-1.5806 0,-0.8729 -0.7263,-1.5806 -1.6222,-1.5806 -0.8959,0 -1.6222,0.7077 -1.6222,1.5806 0,0.873 0.7263,1.5806 1.6222,1.5806 z"
       fill="#ffffff"
       id="path7" />
    <path
       d="m 14.0156,15.1524 c 0,-2.138 -1.7733,-3.8712 -3.9609,-3.8712 -2.18758,0 -3.96095,1.7332 -3.96095,3.8712 v 1.164 c 0,2.1379 1.77337,3.8711 3.96095,3.8711 2.1876,0 3.9609,-1.7332 3.9609,-3.8711 z"
       fill="#000000"
       id="path8" />
    <path
       d="m 8.77039,14.1124 c 0.38502,0 0.69714,-0.3041 0.69714,-0.6792 0,-0.3752 -0.31212,-0.6793 -0.69714,-0.6793 -0.38502,0 -0.69715,0.3041 -0.69715,0.6793 0,0.3751 0.31213,0.6792 0.69715,0.6792 z"
       fill="#ffffff"
       id="path9" />
    <path
       opacity="0.1"
       d="m 10.0617,16.7276 c 0.8959,0 1.6222,-0.7076 1.6222,-1.5806 0,-0.8729 -0.7263,-1.5806 -1.6222,-1.5806 -0.89596,0 -1.62225,0.7077 -1.62225,1.5806 0,0.873 0.72629,1.5806 1.62225,1.5806 z"
       fill="#ffffff"
       id="path10" />
  </g>
  <defs
     id="defs11">
    <filter
       id="filter0_i_521_10140"
       x="0"
       y="0"
       width="39"
       height="38"
       filterUnits="userSpaceOnUse"
       color-interpolation-filters="sRGB">
      <feFlood
         flood-opacity="0"
         result="BackgroundImageFix"
         id="feFlood10" />
      <feBlend
         mode="normal"
         in="SourceGraphic"
         in2="BackgroundImageFix"
         result="shape"
         id="feBlend10" />
      <feColorMatrix
         in="SourceAlpha"
         type="matrix"
         values="0 0 0 0 0 0 0 0 0 0 0 0 0 0 0 0 0 0 127 0"
         result="hardAlpha"
         id="feColorMatrix10" />
      <feOffset
         dx="-6"
         dy="-6"
         id="feOffset10" />
      <feComposite
         in2="hardAlpha"
         operator="arithmetic"
         k2="-1"
         k3="1"
         id="feComposite10"
         k1="0"
         k4="0" />
      <feColorMatrix
         type="matrix"
         values="0 0 0 0 0 0 0 0 0 0 0 0 0 0 0 0 0 0 0.04 0"
         id="feColorMatrix11" />
      <feBlend
         mode="normal"
         in2="shape"
         result="effect1_innerShadow_521_10140"
         id="feBlend11" />
    </filter>
    <clipPath
       id="clip0_521_10140">
      <rect
         width="26.648001"
         height="8.8958397"
         fill="#ffffff"
         transform="translate(6.09375,11.2812)"
         id="rect11"
         x="0"
         y="0" />
    </clipPath>
  </defs>
</svg>
