<?xml version="1.0" encoding="UTF-8" standalone="no"?>
<svg
   width="38.000008"
   height="38"
   viewBox="0 0 38.000008 38"
   fill="none"
   version="1.1"
   id="svg14"
   sodipodi:docname="sad-newer.svg"
   inkscape:version="1.4 (86a8ad7, 2024-10-11)"
   xmlns:inkscape="http://www.inkscape.org/namespaces/inkscape"
   xmlns:sodipodi="http://sodipodi.sourceforge.net/DTD/sodipodi-0.dtd"
   xmlns="http://www.w3.org/2000/svg"
   xmlns:svg="http://www.w3.org/2000/svg">
  <sodipodi:namedview
     id="namedview14"
     pagecolor="#ffffff"
     bordercolor="#000000"
     borderopacity="0.25"
     inkscape:showpageshadow="2"
     inkscape:pageopacity="0.0"
     inkscape:pagecheckerboard="0"
     inkscape:deskcolor="#d1d1d1"
     showgrid="false"
     inkscape:zoom="19.552632"
     inkscape:cx="13.987887"
     inkscape:cy="19"
     inkscape:window-width="1680"
     inkscape:window-height="987"
     inkscape:window-x="-8"
     inkscape:window-y="-8"
     inkscape:window-maximized="1"
     inkscape:current-layer="svg14" />
  <g
     filter="url(#filter0_i_521_10092)"
     id="g1"
     transform="translate(-4.9999958)">
    <path
       d="M 43,8.97857 V 29.0084 c 0.0011,1.1804 -0.2304,2.3494 -0.6813,3.4403 -0.4509,1.0908 -1.1124,2.0821 -1.9467,2.9172 -0.8342,0.8351 -1.8249,1.4975 -2.9153,1.9495 C 36.3663,37.7674 35.1975,38 34.0171,38 H 13.9873 C 11.6048,37.9988 9.3202,37.0522 7.63513,35.368 5.95006,33.6837 5.00231,31.3995 5,29.0171 V 8.98728 C 4.99886,7.8071 5.2304,6.63827 5.68137,5.54765 6.13235,4.45703 6.79391,3.46602 7.62822,2.6313 8.46254,1.79658 9.45323,1.13454 10.5436,0.683035 11.634,0.231532 12.8027,-5.71846e-4 13.9829,1.05799e-6 H 34.0127 C 35.1924,-5.70896e-4 36.3606,0.231213 37.4507,0.682119 c 1.09,0.450911 2.0806,1.112101 2.9152,1.945841 0.8345,0.83374 1.4967,1.82369 1.9486,2.91333 0.452,1.08964 0.6849,2.25763 0.6855,3.43728 z"
       fill="#ff9500"
       id="path1" />
  </g>
  <g
     style="mix-blend-mode:soft-light"
     opacity="0.4"
     id="g2"
     transform="translate(-4.9999958)">
    <path
       d="m 24.09,14.8125 -1.0363,5.4472 1.0363,0.8274 z"
       fill="#000000"
       id="path2" />
  </g>
  <g
     style="mix-blend-mode:soft-light"
     filter="url(#filter1_f_521_10092)"
     id="g3"
     transform="translate(-4.9999958)">
    <path
       d="m 16.2481,19.5938 h -3.1994 c -1.3299,0 -2.4081,1.0633 -2.4081,2.375 0,1.3116 1.0782,2.375 2.4081,2.375 h 3.1994 c 1.33,0 2.4081,-1.0634 2.4081,-2.375 0,-1.3117 -1.0781,-2.375 -2.4081,-2.375 z"
       fill="#c140a3"
       id="path3" />
  </g>
  <g
     style="mix-blend-mode:soft-light"
     filter="url(#filter2_f_521_10092)"
     id="g4"
     transform="translate(-4.9999958)">
    <path
       d="m 34.6591,19.5938 h -3.2088 c -1.3274,0 -2.4034,1.0623 -2.4034,2.3728 v 0.0043 c 0,1.3105 1.076,2.3729 2.4034,2.3729 h 3.2088 c 1.3274,0 2.4034,-1.0624 2.4034,-2.3729 v -0.0043 c 0,-1.3105 -1.076,-2.3728 -2.4034,-2.3728 z"
       fill="#c140a3"
       id="path4" />
  </g>
  <path
     d="m 19.161004,24.6406 h -0.2236 c -2.8807,0.0647 -6.1735,1.5706 -7.0373,4.7938 -0.0198,0.0535 -0.028,0.1106 -0.0242,0.1675 0.0039,0.0569 0.0198,0.1123 0.0467,0.1628 0.0269,0.0505 0.0642,0.095 0.1095,0.1305 0.0454,0.0355 0.0977,0.0613 0.1538,0.0758 0.056,0.0144 0.1145,0.0172 0.1717,0.0082 0.0572,-0.0091 0.1119,-0.0297 0.1605,-0.0608 0.0486,-0.031 0.0901,-0.0716 0.1219,-0.1193 0.0317,-0.0477 0.053,-0.1014 0.0625,-0.1576 0.7585,-2.809 3.6874,-4.125 6.2524,-4.1811 2.4466,-0.0474 5.6518,1.1403 6.669,4.3246 0.0533,0.0752 0.1297,0.1318 0.2179,0.1614 0.0882,0.0296 0.1837,0.0308 0.2727,0.0034 0.0889,-0.0274 0.1667,-0.082 0.222,-0.1559 0.0552,-0.0738 0.0852,-0.1631 0.0854,-0.2548 -0.9339,-2.9125 -3.7708,-4.8985 -7.2609,-4.8985 z"
     fill="#000000"
     id="path5" />
  <g
     clip-path="url(#clip0_521_10092)"
     id="g11"
     transform="translate(-4.9999958)">
    <path
       d="m 36.7656,15.1524 c 0,-2.138 -1.7279,-3.8712 -3.8594,-3.8712 -2.1314,0 -3.8593,1.7332 -3.8593,3.8712 v 1.164 c 0,2.1379 1.7279,3.8711 3.8593,3.8711 2.1315,0 3.8594,-1.7332 3.8594,-3.8711 z"
       fill="#000000"
       id="path6" />
    <path
       d="m 31.6549,14.1124 c 0.3751,0 0.6792,-0.3041 0.6792,-0.6792 0,-0.3752 -0.3041,-0.6793 -0.6792,-0.6793 -0.3752,0 -0.6793,0.3041 -0.6793,0.6793 0,0.3751 0.3041,0.6792 0.6793,0.6792 z"
       fill="#ffffff"
       id="path7" />
    <path
       opacity="0.1"
       d="m 32.9136,16.7276 c 0.873,0 1.5806,-0.7076 1.5806,-1.5806 0,-0.8729 -0.7076,-1.5806 -1.5806,-1.5806 -0.8729,0 -1.5806,0.7077 -1.5806,1.5806 0,0.873 0.7077,1.5806 1.5806,1.5806 z"
       fill="#ffffff"
       id="path8" />
    <path
       d="m 18.6562,15.1524 c 0,-2.138 -1.7279,-3.8712 -3.8593,-3.8712 -2.1315,0 -3.8594,1.7332 -3.8594,3.8712 v 1.164 c 0,2.1379 1.7279,3.8711 3.8594,3.8711 2.1314,0 3.8593,-1.7332 3.8593,-3.8711 z"
       fill="#000000"
       id="path9" />
    <path
       d="m 13.5455,14.1124 c 0.3751,0 0.6793,-0.3041 0.6793,-0.6792 0,-0.3752 -0.3042,-0.6793 -0.6793,-0.6793 -0.3752,0 -0.6793,0.3041 -0.6793,0.6793 0,0.3751 0.3041,0.6792 0.6793,0.6792 z"
       fill="#ffffff"
       id="path10" />
    <path
       opacity="0.1"
       d="m 14.8042,16.7276 c 0.873,0 1.5807,-0.7076 1.5807,-1.5806 0,-0.8729 -0.7077,-1.5806 -1.5807,-1.5806 -0.8729,0 -1.5806,0.7077 -1.5806,1.5806 0,0.873 0.7077,1.5806 1.5806,1.5806 z"
       fill="#ffffff"
       id="path11" />
  </g>
  <defs
     id="defs14">
    <filter
       id="filter0_i_521_10092"
       x="5"
       y="0"
       width="38"
       height="38"
       filterUnits="userSpaceOnUse"
       color-interpolation-filters="sRGB">
      <feFlood
         flood-opacity="0"
         result="BackgroundImageFix"
         id="feFlood11" />
      <feBlend
         mode="normal"
         in="SourceGraphic"
         in2="BackgroundImageFix"
         result="shape"
         id="feBlend11" />
      <feColorMatrix
         in="SourceAlpha"
         type="matrix"
         values="0 0 0 0 0 0 0 0 0 0 0 0 0 0 0 0 0 0 127 0"
         result="hardAlpha"
         id="feColorMatrix11" />
      <feOffset
         dx="-6"
         dy="-6"
         id="feOffset11" />
      <feComposite
         in2="hardAlpha"
         operator="arithmetic"
         k2="-1"
         k3="1"
         id="feComposite11"
         k1="0"
         k4="0" />
      <feColorMatrix
         type="matrix"
         values="0 0 0 0 0 0 0 0 0 0 0 0 0 0 0 0 0 0 0.04 0"
         id="feColorMatrix12" />
      <feBlend
         mode="normal"
         in2="shape"
         result="effect1_innerShadow_521_10092"
         id="feBlend12" />
    </filter>
    <filter
       id="filter1_f_521_10092"
       x="0.640625"
       y="9.59375"
       width="28.0156"
       height="24.75"
       filterUnits="userSpaceOnUse"
       color-interpolation-filters="sRGB">
      <feFlood
         flood-opacity="0"
         result="BackgroundImageFix"
         id="feFlood12" />
      <feBlend
         mode="normal"
         in="SourceGraphic"
         in2="BackgroundImageFix"
         result="shape"
         id="feBlend13" />
      <feGaussianBlur
         stdDeviation="5"
         result="effect1_foregroundBlur_521_10092"
         id="feGaussianBlur13" />
    </filter>
    <filter
       id="filter2_f_521_10092"
       x="19.0469"
       y="9.59375"
       width="28.0156"
       height="24.75"
       filterUnits="userSpaceOnUse"
       color-interpolation-filters="sRGB">
      <feFlood
         flood-opacity="0"
         result="BackgroundImageFix"
         id="feFlood13" />
      <feBlend
         mode="normal"
         in="SourceGraphic"
         in2="BackgroundImageFix"
         result="shape"
         id="feBlend14" />
      <feGaussianBlur
         stdDeviation="5"
         result="effect1_foregroundBlur_521_10092"
         id="feGaussianBlur14" />
    </filter>
    <clipPath
       id="clip0_521_10092">
      <rect
         width="25.964701"
         height="8.8958397"
         fill="#ffffff"
         transform="translate(10.9375,11.2812)"
         id="rect14"
         x="0"
         y="0" />
    </clipPath>
  </defs>
</svg>
