<?xml version="1.0" encoding="UTF-8" standalone="no"?>
<svg
   width="37"
   height="38"
   viewBox="0 0 37 38"
   fill="none"
   version="1.1"
   id="svg10"
   sodipodi:docname="good-newer.svg"
   inkscape:version="1.4 (86a8ad7, 2024-10-11)"
   xmlns:inkscape="http://www.inkscape.org/namespaces/inkscape"
   xmlns:sodipodi="http://sodipodi.sourceforge.net/DTD/sodipodi-0.dtd"
   xmlns="http://www.w3.org/2000/svg"
   xmlns:svg="http://www.w3.org/2000/svg">
  <sodipodi:namedview
     id="namedview10"
     pagecolor="#ffffff"
     bordercolor="#000000"
     borderopacity="0.25"
     inkscape:showpageshadow="2"
     inkscape:pageopacity="0.0"
     inkscape:pagecheckerboard="0"
     inkscape:deskcolor="#d1d1d1"
     showgrid="false"
     inkscape:zoom="19.552632"
     inkscape:cx="18.181696"
     inkscape:cy="14.959623"
     inkscape:window-width="1680"
     inkscape:window-height="987"
     inkscape:window-x="-8"
     inkscape:window-y="-8"
     inkscape:window-maximized="1"
     inkscape:current-layer="svg10" />
  <g
     filter="url(#filter0_i_521_10128)"
     id="g1"
     transform="translate(-2)">
    <path
       d="M 39,8.97857 V 29.0084 c 0.0011,1.1804 -0.2243,2.3494 -0.6634,3.4403 -0.439,1.0908 -1.0831,2.0821 -1.8954,2.9172 -0.8123,0.8351 -1.7769,1.4975 -2.8386,1.9495 C 32.5408,37.7674 31.4028,38 30.2535,38 H 10.7508 C 8.43101,37.9988 6.20651,37.0522 4.56578,35.368 2.92506,33.6837 2.00225,31.3995 2,29.0171 V 8.98728 C 1.99889,7.8071 2.22433,6.63827 2.66344,5.54765 3.10255,4.45703 3.7467,3.46602 4.55906,2.6313 5.37142,1.79658 6.33604,1.13454 7.39774,0.683035 8.45945,0.231532 9.59741,-5.71846e-4 10.7465,1.05799e-6 H 30.2492 C 31.3978,-5.70896e-4 32.5353,0.231213 33.5967,0.682119 34.6581,1.13303 35.6226,1.79422 36.4352,2.62796 37.2478,3.4617 37.8925,4.45165 38.3326,5.54129 38.7727,6.63093 38.9994,7.79892 39,8.97857 Z"
       fill="#70b3ff"
       id="path1" />
  </g>
  <g
     style="mix-blend-mode:soft-light"
     opacity="0.4"
     id="g2"
     transform="translate(-2)">
    <path
       d="m 20.5872,14.8125 -1.0091,5.4472 1.0091,0.8274 z"
       fill="#000000"
       id="path2" />
  </g>
  <g
     style="mix-blend-mode:soft-light"
     filter="url(#filter1_f_521_10128)"
     id="g3"
     transform="translate(-2)">
    <path
       d="M 12.9521,19.5938 H 9.83693 c -1.29497,0 -2.34474,1.0633 -2.34474,2.375 0,1.3116 1.04977,2.375 2.34474,2.375 h 3.11517 c 1.295,0 2.3448,-1.0634 2.3448,-2.375 0,-1.3117 -1.0498,-2.375 -2.3448,-2.375 z"
       fill="#c140a3"
       id="path3" />
  </g>
  <g
     style="mix-blend-mode:soft-light"
     filter="url(#filter2_f_521_10128)"
     id="g4"
     transform="translate(-2)">
    <path
       d="m 30.8786,19.5938 h -3.1244 c -1.2924,0 -2.3401,1.0623 -2.3401,2.3728 v 0.0043 c 0,1.3105 1.0477,2.3729 2.3401,2.3729 h 3.1244 c 1.2924,0 2.3401,-1.0624 2.3401,-2.3729 v -0.0043 c 0,-1.3105 -1.0477,-2.3728 -2.3401,-2.3728 z"
       fill="#c140a3"
       id="path4" />
  </g>
  <path
     d="M 18.6567,29.9844 H 18.439 c -2.8049,-0.0647 -6.011,-1.5706 -6.8521,-4.7938 -0.0193,-0.0535 -0.0273,-0.1106 -0.0235,-0.1675 0.0038,-0.0569 0.0193,-0.1123 0.0454,-0.1628 0.0262,-0.0505 0.0625,-0.095 0.1067,-0.1305 0.0441,-0.0355 0.0951,-0.0613 0.1497,-0.0758 0.0545,-0.0144 0.1115,-0.0172 0.1672,-0.0082 0.0557,0.0091 0.1089,0.0297 0.1563,0.0608 0.0473,0.031 0.0877,0.0716 0.1186,0.1193 0.0309,0.0477 0.0517,0.1014 0.0609,0.1576 0.7386,2.809 3.5904,4.125 6.0879,4.1811 2.3822,0.0474 5.503,-1.1403 6.4935,-4.3246 0.0519,-0.0752 0.1262,-0.1318 0.2121,-0.1614 0.0859,-0.0296 0.1789,-0.0308 0.2655,-0.0034 0.0866,0.0274 0.1624,0.082 0.2162,0.1559 0.0538,0.0738 0.0829,0.1631 0.0832,0.2548 -0.9094,2.9125 -3.6716,4.8985 -7.0699,4.8985 z"
     fill="#000000"
     id="path5" />
  <g
     clip-path="url(#clip0_521_10128)"
     id="g7"
     transform="translate(-2)">
    <path
       d="m 25.9055,16.9219 c -0.0495,-6e-4 -0.0985,-0.0094 -0.1453,-0.0261 -0.0617,-0.0199 -0.1191,-0.0523 -0.1688,-0.0954 -0.0497,-0.0431 -0.0907,-0.0961 -0.1208,-0.156 -0.0301,-0.0598 -0.0486,-0.1252 -0.0545,-0.1926 -0.0059,-0.0673 0.001,-0.1352 0.0203,-0.1997 0.2351,-0.8439 0.7278,-1.5837 1.4026,-2.1061 0.6749,-0.5224 1.4946,-0.7986 2.3336,-0.7862 0.838,-0.0081 1.6557,0.2697 2.3297,0.7915 0.6741,0.5218 1.1677,1.2592 1.4065,2.1008 0.0375,0.1309 0.0241,0.2721 -0.0373,0.3927 -0.0615,0.1206 -0.166,0.2108 -0.2907,0.251 -0.0616,0.0208 -0.1265,0.0284 -0.1909,0.0226 -0.0645,-0.0059 -0.1272,-0.0252 -0.1844,-0.0568 -0.0572,-0.0316 -0.1079,-0.0749 -0.1489,-0.1273 -0.0411,-0.0524 -0.0717,-0.1128 -0.0902,-0.1778 -0.18,-0.6327 -0.5515,-1.187 -1.0584,-1.5792 -0.507,-0.3923 -1.1219,-0.6013 -1.752,-0.5954 -0.6274,-0.0021 -1.2385,0.2086 -1.7421,0.6006 -0.5036,0.392 -0.8726,0.9442 -1.0518,1.574 -0.0308,0.1029 -0.0912,0.1932 -0.173,0.2586 -0.0817,0.0654 -0.1808,0.1027 -0.2836,0.1068 z"
       fill="#000000"
       id="path6" />
    <path
       d="M 8.2763,16.9219 C 8.22679,16.9223 8.17759,16.9135 8.13105,16.8958 8.069,16.8764 8.01123,16.8443 7.96109,16.8013 7.91095,16.7584 7.86944,16.7055 7.83895,16.6456 7.80845,16.5857 7.78959,16.5201 7.78346,16.4526 7.77732,16.385 7.78402,16.3169 7.80318,16.252 c 0.23627,-0.8431 0.72917,-1.5821 1.40354,-2.1043 0.67437,-0.5222 1.49318,-0.7989 2.33158,-0.788 0.8381,-0.0095 1.6563,0.2678 2.3304,0.7898 0.6741,0.522 1.1673,1.2602 1.4048,2.1025 0.0198,0.0646 0.0272,0.1326 0.0215,0.2001 -0.0056,0.0675 -0.024,0.1332 -0.0541,0.1932 -0.0302,0.0599 -0.0715,0.113 -0.1215,0.156 -0.0499,0.043 -0.1076,0.0751 -0.1696,0.0945 -0.1249,0.0408 -0.2602,0.028 -0.3762,-0.0356 -0.1159,-0.0636 -0.203,-0.1728 -0.2422,-0.3037 -0.1798,-0.632 -0.5505,-1.1858 -1.0565,-1.578 -0.5059,-0.3922 -1.1197,-0.6016 -1.749,-0.5967 -0.6279,-0.003 -1.2398,0.2073 -1.74406,0.5993 -0.50427,0.3921 -0.87378,0.9448 -1.05317,1.5754 -0.03,0.1025 -0.08964,0.1927 -0.17068,0.2582 -0.08103,0.0654 -0.17946,0.1029 -0.28169,0.1072 z"
       fill="#000000"
       id="path7" />
  </g>
  <defs
     id="defs10">
    <filter
       id="filter0_i_521_10128"
       x="2"
       y="0"
       width="37"
       height="38"
       filterUnits="userSpaceOnUse"
       color-interpolation-filters="sRGB">
      <feFlood
         flood-opacity="0"
         result="BackgroundImageFix"
         id="feFlood7" />
      <feBlend
         mode="normal"
         in="SourceGraphic"
         in2="BackgroundImageFix"
         result="shape"
         id="feBlend7" />
      <feColorMatrix
         in="SourceAlpha"
         type="matrix"
         values="0 0 0 0 0 0 0 0 0 0 0 0 0 0 0 0 0 0 127 0"
         result="hardAlpha"
         id="feColorMatrix7" />
      <feOffset
         dx="-6"
         dy="-6"
         id="feOffset7" />
      <feComposite
         in2="hardAlpha"
         operator="arithmetic"
         k2="-1"
         k3="1"
         id="feComposite7"
         k1="0"
         k4="0" />
      <feColorMatrix
         type="matrix"
         values="0 0 0 0 0 0 0 0 0 0 0 0 0 0 0 0 0 0 0.04 0"
         id="feColorMatrix8" />
      <feBlend
         mode="normal"
         in2="shape"
         result="effect1_innerShadow_521_10128"
         id="feBlend8" />
    </filter>
    <filter
       id="filter1_f_521_10128"
       x="-2.5078101"
       y="9.59375"
       width="27.804701"
       height="24.75"
       filterUnits="userSpaceOnUse"
       color-interpolation-filters="sRGB">
      <feFlood
         flood-opacity="0"
         result="BackgroundImageFix"
         id="feFlood8" />
      <feBlend
         mode="normal"
         in="SourceGraphic"
         in2="BackgroundImageFix"
         result="shape"
         id="feBlend9" />
      <feGaussianBlur
         stdDeviation="5"
         result="effect1_foregroundBlur_521_10128"
         id="feGaussianBlur9" />
    </filter>
    <filter
       id="filter2_f_521_10128"
       x="15.4141"
       y="9.59375"
       width="27.804701"
       height="24.75"
       filterUnits="userSpaceOnUse"
       color-interpolation-filters="sRGB">
      <feFlood
         flood-opacity="0"
         result="BackgroundImageFix"
         id="feFlood9" />
      <feBlend
         mode="normal"
         in="SourceGraphic"
         in2="BackgroundImageFix"
         result="shape"
         id="feBlend10" />
      <feGaussianBlur
         stdDeviation="5"
         result="effect1_foregroundBlur_521_10128"
         id="feGaussianBlur10" />
    </filter>
    <clipPath
       id="clip0_521_10128">
      <rect
         width="25.281401"
         height="8.8958397"
         fill="#ffffff"
         transform="translate(7.78125,11.2812)"
         id="rect10"
         x="0"
         y="0" />
    </clipPath>
  </defs>
</svg>
