<?xml version="1.0" encoding="UTF-8" standalone="no"?>
<svg
   width="30.083334"
   height="30.083334"
   viewBox="0 0 38.000001 31.666667"
   fill="none"
   version="1.1"
   id="svg18"
   sodipodi:docname="new-better.svg"
   inkscape:version="1.4 (86a8ad7, 2024-10-11)"
   xmlns:inkscape="http://www.inkscape.org/namespaces/inkscape"
   xmlns:sodipodi="http://sodipodi.sourceforge.net/DTD/sodipodi-0.dtd"
   xmlns="http://www.w3.org/2000/svg"
   xmlns:svg="http://www.w3.org/2000/svg">
   <sodipodi:namedview
      id="namedview18"
      pagecolor="#ffffff"
      bordercolor="#000000"
      borderopacity="0.25"
      inkscape:showpageshadow="2"
      inkscape:pageopacity="0.0"
      inkscape:pagecheckerboard="0"
      inkscape:deskcolor="#d1d1d1"
      inkscape:zoom="19.552632"
      inkscape:cx="14.959623"
      inkscape:cy="16.493943"
      inkscape:window-width="1680"
      inkscape:window-height="987"
      inkscape:window-x="-8"
      inkscape:window-y="-8"
      inkscape:window-maximized="1"
      inkscape:current-layer="svg18"
      showgrid="false" />
   <g
      filter="url(#filter0_i_521_10104)"
      id="g1"
      transform="translate(-5,-3.1666671)">
      <path
         d="M 43,8.97857 V 29.0084 c 0.0011,1.1804 -0.2304,2.3494 -0.6813,3.4403 -0.4509,1.0908 -1.1124,2.0821 -1.9467,2.9172 -0.8342,0.8351 -1.8249,1.4975 -2.9153,1.9495 C 36.3663,37.7674 35.1975,38 34.0171,38 H 13.9873 C 11.6048,37.9988 9.3202,37.0522 7.63513,35.368 5.95006,33.6837 5.00231,31.3995 5,29.0171 V 8.98728 C 4.99886,7.8071 5.2304,6.63827 5.68137,5.54765 6.13235,4.45703 6.79391,3.46602 7.62822,2.6313 8.46254,1.79658 9.45323,1.13454 10.5436,0.683035 11.634,0.231532 12.8027,-5.71846e-4 13.9829,1.05799e-6 H 34.0127 C 35.1924,-5.70896e-4 36.3606,0.231213 37.4507,0.682119 c 1.09,0.450911 2.0806,1.112101 2.9152,1.945841 0.8345,0.83374 1.4967,1.82369 1.9486,2.91333 0.452,1.08964 0.6849,2.25763 0.6855,3.43728 z"
         fill="#1eff7b"
         id="path1" />
   </g>
   <g
      style="mix-blend-mode:soft-light"
      opacity="0.4"
      id="g2"
      transform="translate(-5,-3.1666671)">
      <path
         d="m 24.09,14.8125 -1.0363,5.4472 1.0363,0.8274 z"
         fill="#000000"
         id="path2" />
   </g>
   <g
      style="mix-blend-mode:soft-light"
      filter="url(#filter1_f_521_10104)"
      id="g3"
      transform="translate(-5,-3.1666671)">
      <path
         d="m 16.2481,19.5938 h -3.1994 c -1.3299,0 -2.4081,1.0633 -2.4081,2.375 0,1.3116 1.0782,2.375 2.4081,2.375 h 3.1994 c 1.33,0 2.4081,-1.0634 2.4081,-2.375 0,-1.3117 -1.0781,-2.375 -2.4081,-2.375 z"
         fill="#c140a3"
         id="path3" />
   </g>
   <g
      style="mix-blend-mode:soft-light"
      filter="url(#filter2_f_521_10104)"
      id="g4"
      transform="translate(-5,-3.1666671)">
      <path
         d="m 34.6591,19.5938 h -3.2088 c -1.3274,0 -2.4034,1.0623 -2.4034,2.3728 v 0.0043 c 0,1.3105 1.076,2.3729 2.4034,2.3729 h 3.2088 c 1.3274,0 2.4034,-1.0624 2.4034,-2.3729 v -0.0043 c 0,-1.3105 -1.076,-2.3728 -2.4034,-2.3728 z"
         fill="#c140a3"
         id="path4" />
   </g>
   <path
      fill-rule="evenodd"
      clip-rule="evenodd"
      d="m 29.6875,18.208333 c 0,0.048 0,0.0961 0,0.1441 -0.0041,0.7749 -0.0946,1.5469 -0.2697,2.3017 -0.2783,1.1912 -0.7966,2.3126 -1.523,3.2951 -0.7264,0.9825 -1.6455,1.8052 -2.7007,2.4174 -3.7234,2.2318 -8.9693,2.1837 -12.6144,-0.1441 -1.0235,-0.6333 -1.9085,-1.4684 -2.6015,-2.4547 -0.6931,-0.9864 -1.1798,-2.1036 -1.4308,-3.2841 -0.1585,-0.7479 -0.2373,-1.5107 -0.2348,-2.2754 6.7856,2.6205 13.6714,2.6205 20.6441,0.2664 z"
      fill="#2b1607"
      stroke="#000000"
      stroke-width="1.48"
      stroke-linecap="round"
      stroke-linejoin="round"
      id="path5" />
   <path
      fill-rule="evenodd"
      clip-rule="evenodd"
      d="m 29.6875,18.349933 c -0.0041,0.7616 -0.0946,1.5203 -0.2696,2.2621 -6.1829,4.0047 -14.6833,3.8888 -20.8706,-0.1674 -0.1584,-0.7351 -0.2372,-1.4848 -0.2347,-2.2363 6.7829,2.5754 13.6658,2.5754 20.6357,0.2618 z"
      fill="#ffffff"
      id="path6" />
   <path
      fill-rule="evenodd"
      clip-rule="evenodd"
      d="m 25.5312,26.367933 c -3.8556,2.23 -9.2878,2.182 -13.0624,-0.144 4.3141,0.7664 8.7314,0.8151 13.0624,0.144 z"
      fill="#ffffff"
      id="path7" />
   <path
      fill-rule="evenodd"
      clip-rule="evenodd"
      d="m 29.8555,17.966533 c 0.0808,0.0569 0.1289,0.1498 0.1289,0.2489 0,3.3538 -1.3774,5.8858 -3.4502,7.5732 -2.0654,1.6813 -4.8064,2.5135 -7.5342,2.5135 -2.7278,0 -5.4688,-0.8322 -7.5342,-2.5135 -2.0729,-1.6874 -3.4502,-4.2194 -3.4502,-7.5732 0,-0.1 0.049,-0.1937 0.1311,-0.2504 0.082,-0.0567 0.1866,-0.0693 0.2796,-0.0335 6.9619,2.6777 13.995,2.6063 21.1524,-0.0019 0.0927,-0.0338 0.196,-0.02 0.2768,0.0369 z m -21.2263,0.6908 c 0.1146,2.9464 1.3756,5.1595 3.2175,6.6589 1.9403,1.5795 4.5401,2.3779 7.1533,2.3779 2.6132,0 5.213,-0.7984 7.1533,-2.3779 1.8436,-1.5008 3.1052,-3.7165 3.2178,-6.6669 -6.9999,2.4581 -13.9065,2.5298 -20.7419,0.008 z"
      fill="#000000"
      id="path8" />
   <g
      style="mix-blend-mode:soft-light"
      opacity="0.4"
      id="g9"
      transform="translate(-5,-3.1666671)">
      <path
         d="m 19.2539,31.7793 c 1.3366,1.5323 7.4313,1.6336 8.9063,0 -2.9331,0.6627 -5.9732,0.6627 -8.9063,0 z"
         fill="#000000"
         id="path9" />
   </g>
   <path
      d="m 28.9284,15.808733 h -1.9595 c -2.8869,0 -2.8869,0.0218 -2.8869,-2.8869 v -0.9797 c 0.0012,-1.0251 0.4089,-2.0080001 1.1338,-2.7328001 0.7249,-0.7249 1.7077,-1.1327 2.7329,-1.1338 1.0251,0.0011 2.0079,0.4089 2.7328,1.1338 0.7249,0.7248 1.1326,1.7077001 1.1338,2.7328001 v 1.0015 c -0.0087,2.8869 -0.0087,2.8651 -2.8869,2.8651 z"
      fill="#000000"
      id="path10" />
   <path
      d="m 26.6507,10.939333 c 0.3744,0 0.678,-0.3036 0.678,-0.678 0,-0.3745001 -0.3036,-0.6780001 -0.678,-0.6780001 -0.3745,0 -0.678,0.3035 -0.678,0.6780001 0,0.3744 0.3035,0.678 0.678,0.678 z"
      fill="#ffffff"
      id="path11" />
   <path
      opacity="0.1"
      d="m 27.9067,13.551133 c 0.8714,0 1.5777,-0.7063 1.5777,-1.5777 0,-0.8713 -0.7063,-1.5776 -1.5777,-1.5776 -0.8713,0 -1.5776,0.7063 -1.5776,1.5776 0,0.8714 0.7063,1.5777 1.5776,1.5777 z"
      fill="#ffffff"
      id="path12" />
   <path
      d="M 10.819,15.808733 H 8.8596 c -2.8869,0 -2.8869,0.0218 -2.8869,-2.8869 v -0.9797 c 0.0011,-1.0251 0.4089,-2.0080001 1.1337,-2.7328001 0.7249,-0.7249 1.7077,-1.1327 2.7329,-1.1338 1.0251,0.0011 2.0079,0.4089 2.7328,1.1338 0.7249,0.7248 1.1326,1.7077001 1.1338,2.7328001 v 1.0015 c -0.0087,2.8869 -0.0087,2.8651 -2.8869,2.8651 z"
      fill="#000000"
      id="path13" />
   <path
      d="m 8.5718,10.943833 c 0.3752,0 0.6793,-0.3041 0.6793,-0.6793 0,-0.3751001 -0.3041,-0.6792001 -0.6793,-0.6792001 -0.3751,0 -0.6792,0.3041 -0.6792,0.6792001 0,0.3752 0.3041,0.6793 0.6792,0.6793 z"
      fill="#ffffff"
      id="path14" />
   <path
      opacity="0.1"
      d="m 9.8306,13.560933 c 0.873,0 1.5806,-0.7076 1.5806,-1.5806 0,-0.8729 -0.7076,-1.5806 -1.5806,-1.5806 -0.8729,0 -1.5806,0.7077 -1.5806,1.5806 0,0.873 0.7077,1.5806 1.5806,1.5806 z"
      fill="#ffffff"
      id="path15" />
   <defs
      id="defs18">
      <filter
         id="filter0_i_521_10104"
         x="5"
         y="0"
         width="38"
         height="38"
         filterUnits="userSpaceOnUse"
         color-interpolation-filters="sRGB">
         <feFlood
            flood-opacity="0"
            result="BackgroundImageFix"
            id="feFlood15" />
         <feBlend
            mode="normal"
            in="SourceGraphic"
            in2="BackgroundImageFix"
            result="shape"
            id="feBlend15" />
         <feColorMatrix
            in="SourceAlpha"
            type="matrix"
            values="0 0 0 0 0 0 0 0 0 0 0 0 0 0 0 0 0 0 127 0"
            result="hardAlpha"
            id="feColorMatrix15" />
         <feOffset
            dx="-6"
            dy="-6"
            id="feOffset15" />
         <feComposite
            in2="hardAlpha"
            operator="arithmetic"
            k2="-1"
            k3="1"
            id="feComposite15"
            k1="0"
            k4="0" />
         <feColorMatrix
            type="matrix"
            values="0 0 0 0 0 0 0 0 0 0 0 0 0 0 0 0 0 0 0.04 0"
            id="feColorMatrix16" />
         <feBlend
            mode="normal"
            in2="shape"
            result="effect1_innerShadow_521_10104"
            id="feBlend16" />
      </filter>
      <filter
         id="filter1_f_521_10104"
         x="0.640625"
         y="9.59375"
         width="28.0156"
         height="24.75"
         filterUnits="userSpaceOnUse"
         color-interpolation-filters="sRGB">
         <feFlood
            flood-opacity="0"
            result="BackgroundImageFix"
            id="feFlood16" />
         <feBlend
            mode="normal"
            in="SourceGraphic"
            in2="BackgroundImageFix"
            result="shape"
            id="feBlend17" />
         <feGaussianBlur
            stdDeviation="5"
            result="effect1_foregroundBlur_521_10104"
            id="feGaussianBlur17" />
      </filter>
      <filter
         id="filter2_f_521_10104"
         x="19.0469"
         y="9.59375"
         width="28.0156"
         height="24.75"
         filterUnits="userSpaceOnUse"
         color-interpolation-filters="sRGB">
         <feFlood
            flood-opacity="0"
            result="BackgroundImageFix"
            id="feFlood17" />
         <feBlend
            mode="normal"
            in="SourceGraphic"
            in2="BackgroundImageFix"
            result="shape"
            id="feBlend18" />
         <feGaussianBlur
            stdDeviation="5"
            result="effect1_foregroundBlur_521_10104"
            id="feGaussianBlur18" />
      </filter>
   </defs>
</svg>