<?xml version="1.0" encoding="UTF-8" standalone="no"?>
<svg
   width="38.000008"
   height="38"
   viewBox="0 0 38.000008 38"
   fill="none"
   version="1.1"
   id="svg15"
   sodipodi:docname="sadder-newer.svg"
   inkscape:version="1.4 (86a8ad7, 2024-10-11)"
   xmlns:inkscape="http://www.inkscape.org/namespaces/inkscape"
   xmlns:sodipodi="http://sodipodi.sourceforge.net/DTD/sodipodi-0.dtd"
   xmlns="http://www.w3.org/2000/svg"
   xmlns:svg="http://www.w3.org/2000/svg">
  <sodipodi:namedview
     id="namedview15"
     pagecolor="#ffffff"
     bordercolor="#000000"
     borderopacity="0.25"
     inkscape:showpageshadow="2"
     inkscape:pageopacity="0.0"
     inkscape:pagecheckerboard="0"
     inkscape:deskcolor="#d1d1d1"
     showgrid="false"
     inkscape:zoom="19.552632"
     inkscape:cx="13.987887"
     inkscape:cy="19"
     inkscape:window-width="1680"
     inkscape:window-height="987"
     inkscape:window-x="-8"
     inkscape:window-y="-8"
     inkscape:window-maximized="1"
     inkscape:current-layer="svg15" />
  <g
     filter="url(#filter0_i_521_10116)"
     id="g1"
     transform="translate(-4.9999958)">
    <path
       d="M 43,8.97857 V 29.0084 c 0.0011,1.1804 -0.2304,2.3494 -0.6813,3.4403 -0.4509,1.0908 -1.1124,2.0821 -1.9467,2.9172 -0.8342,0.8351 -1.8249,1.4975 -2.9153,1.9495 C 36.3663,37.7674 35.1975,38 34.0171,38 H 13.9873 C 11.6048,37.9988 9.3202,37.0522 7.63513,35.368 5.95006,33.6837 5.00231,31.3995 5,29.0171 V 8.98728 C 4.99886,7.8071 5.2304,6.63827 5.68137,5.54765 6.13235,4.45703 6.79391,3.46602 7.62822,2.6313 8.46254,1.79658 9.45323,1.13454 10.5436,0.683035 11.634,0.231532 12.8027,-5.71846e-4 13.9829,1.05799e-6 H 34.0127 C 35.1924,-5.70896e-4 36.3606,0.231213 37.4507,0.682119 c 1.09,0.450911 2.0806,1.112101 2.9152,1.945841 0.8345,0.83374 1.4967,1.82369 1.9486,2.91333 0.452,1.08964 0.6849,2.25763 0.6855,3.43728 z"
       fill="#ff2d2d"
       id="path1" />
  </g>
  <g
     style="mix-blend-mode:soft-light"
     opacity="0.4"
     id="g2"
     transform="translate(-4.9999958)">
    <path
       d="m 24.09,14.8125 -1.0363,5.4472 1.0363,0.8274 z"
       fill="#000000"
       id="path2" />
  </g>
  <g
     style="mix-blend-mode:soft-light"
     filter="url(#filter1_f_521_10116)"
     id="g3"
     transform="translate(-4.9999958)">
    <path
       d="m 16.2481,19.5938 h -3.1994 c -1.3299,0 -2.4081,1.0633 -2.4081,2.375 0,1.3116 1.0782,2.375 2.4081,2.375 h 3.1994 c 1.33,0 2.4081,-1.0634 2.4081,-2.375 0,-1.3117 -1.0781,-2.375 -2.4081,-2.375 z"
       fill="#c140a3"
       id="path3" />
  </g>
  <g
     style="mix-blend-mode:soft-light"
     filter="url(#filter2_f_521_10116)"
     id="g4"
     transform="translate(-4.9999958)">
    <path
       d="m 34.6591,19.5938 h -3.2088 c -1.3274,0 -2.4034,1.0623 -2.4034,2.3728 v 0.0043 c 0,1.3105 1.076,2.3729 2.4034,2.3729 h 3.2088 c 1.3274,0 2.4034,-1.0624 2.4034,-2.3729 v -0.0043 c 0,-1.3105 -1.076,-2.3728 -2.4034,-2.3728 z"
       fill="#c140a3"
       id="path4" />
  </g>
  <path
     fill-rule="evenodd"
     clip-rule="evenodd"
     d="m 8.9150042,32.0762 c 0,-14.25 20.7812998,-14.25 20.7812998,0 z"
     fill="#2b1607"
     id="path5" />
  <path
     fill-rule="evenodd"
     clip-rule="evenodd"
     d="m 12.207004,24.5625 c 3.5228,-3.9738 10.3754,-3.9429 14.25,0 z"
     fill="#ffffff"
     id="path6" />
  <path
     d="M 9.2080042,29.9238 H 29.385204 c 0.0949,0.6878 0.1382,1.3828 0.1293,2.0782 H 9.0313042 c -0.0021,-0.6972 0.0571,-1.393 0.1767,-2.0782 z"
     fill="#ffffff"
     id="path7" />
  <path
     d="M 29.678304,32.3593 H 8.9149042 c -0.081,0 -0.1587,-0.0322 -0.216,-0.0896 -0.0573,-0.0573 -0.0895,-0.1352 -0.0895,-0.2163 0,-7.528 5.5382998,-10.9753 10.6893998,-10.9753 5.151,0 10.6851,3.4473 10.6851,10.9624 0.0023,0.0414 -0.0038,0.0828 -0.0182,0.1217 -0.0143,0.0389 -0.0365,0.0744 -0.0652,0.1044 -0.0287,0.0299 -0.0632,0.0536 -0.1014,0.0695 -0.0382,0.016 -0.0793,0.0239 -0.1208,0.0232 z M 9.2247042,31.7474 H 29.351304 c -0.0646,-3.068 -1.149,-5.6406 -3.1414,-7.459 -1.907,-1.6963 -4.3778,-2.6184 -6.9283,-2.5855 -4.7681,0.0044 -9.9061998,3.15 -10.0568998,10.0445 z"
     fill="#000000"
     id="path8" />
  <path
     d="m 24.551604,16.9219 c -0.0508,-6e-4 -0.1012,-0.0094 -0.1493,-0.0261 -0.0633,-0.0199 -0.1222,-0.0523 -0.1733,-0.0954 -0.051,-0.0431 -0.0932,-0.0961 -0.1241,-0.156 -0.0309,-0.0598 -0.0499,-0.1252 -0.0559,-0.1926 -0.0061,-0.0673 0.001,-0.1352 0.0208,-0.1997 0.2414,-0.8439 0.7475,-1.5837 1.4406,-2.1061 0.693,-0.5224 1.5349,-0.7986 2.3966,-0.7862 0.8606,-0.0081 1.7005,0.2697 2.3927,0.7915 0.6922,0.5218 1.1992,1.2592 1.4445,2.1008 0.0385,0.1309 0.0248,0.2721 -0.0384,0.3927 -0.0631,0.1206 -0.1704,0.2108 -0.2985,0.251 -0.0632,0.0208 -0.1299,0.0284 -0.1961,0.0226 -0.0662,-0.0059 -0.1306,-0.0252 -0.1893,-0.0568 -0.0588,-0.0316 -0.1108,-0.0749 -0.153,-0.1273 -0.0421,-0.0524 -0.0736,-0.1128 -0.0926,-0.1778 -0.1849,-0.6327 -0.5664,-1.187 -1.087,-1.5792 -0.5207,-0.3923 -1.1522,-0.6013 -1.7994,-0.5954 -0.6443,-0.0021 -1.2719,0.2086 -1.7891,0.6006 -0.5172,0.392 -0.8962,0.9442 -1.0803,1.574 -0.0316,0.1029 -0.0936,0.1932 -0.1776,0.2586 -0.084,0.0654 -0.1858,0.1027 -0.2913,0.1068 z"
     fill="#000000"
     id="path9" />
  <path
     d="m 6.4459042,16.9219 c -0.0508,4e-4 -0.1013,-0.0084 -0.1491,-0.0261 -0.0638,-0.0194 -0.1231,-0.0515 -0.1746,-0.0945 -0.0515,-0.0429 -0.0941,-0.0958 -0.1254,-0.1557 -0.0314,-0.0599 -0.0507,-0.1255 -0.057,-0.193 -0.0063,-0.0676 5e-4,-0.1357 0.0202,-0.2006 0.2427,-0.8431 0.7489,-1.5821 1.4415,-2.1043 0.6926,-0.5222 1.5336,-0.7989 2.3946,-0.788 0.8607998,-0.0095 1.7010998,0.2678 2.3933998,0.7898 0.6923,0.522 1.1988,1.2602 1.4427,2.1025 0.0204,0.0646 0.0279,0.1326 0.0222,0.2001 -0.0058,0.0675 -0.0247,0.1332 -0.0557,0.1932 -0.0309,0.0599 -0.0733,0.113 -0.1247,0.156 -0.0513,0.043 -0.1105,0.0751 -0.1742,0.0945 -0.1283,0.0408 -0.2673,0.028 -0.3864,-0.0356 -0.119,-0.0636 -0.2085,-0.1728 -0.2487,-0.3037 -0.1846,-0.632 -0.5654,-1.1858 -1.085,-1.578 -0.5197,-0.3922 -1.15,-0.6016 -1.7962998,-0.5967 -0.6449,-0.003 -1.2733,0.2073 -1.7912,0.5993 -0.5179,0.3921 -0.8974,0.9448 -1.0817,1.5754 -0.0308,0.1025 -0.092,0.1927 -0.1753,0.2582 -0.0832,0.0654 -0.1843,0.1029 -0.2893,0.1072 z"
     fill="#000000"
     id="path10" />
  <path
     d="m 6.0461042,23.0175 c -0.0756,0.2479 -0.1994,0.4785 -0.3643,0.6784 -0.1649,0.2 -0.3677,0.3654 -0.5967,0.4867 -0.22906,0.1214 -0.47979,0.1964 -0.73786,0.2206 -0.25806,0.0242 -0.51837,-0.0027 -0.76598,-0.0794 -0.48103,-0.2028 -0.86205,-0.588 -1.05958,-1.0711 -0.19754,-0.4832 -0.19548,-1.025 0.00572,-1.5066 0.51822,-1.4326 1.89869,-1.6721 3.3358,-3.7012 -0.3005,2.3949 0.7577,3.4094 0.1829,4.9726 z"
     fill="#4abcf4"
     id="path11" />
  <path
     d="m 31.508304,23.0169 c 0.0727,0.2476 0.1956,0.4776 0.3611,0.6757 0.1654,0.1981 0.3699,0.36 0.6006,0.4757 0.2307,0.1157 0.4828,0.1826 0.7405,0.1967 0.2578,0.0141 0.5156,-0.025 0.7576,-0.1148 0.242,-0.0898 0.4628,-0.2285 0.6489,-0.4073 0.1861,-0.1789 0.3334,-0.3941 0.4327,-0.6323 0.0993,-0.2382 0.1485,-0.4943 0.1446,-0.7523 -0.0039,-0.2581 -0.0609,-0.5126 -0.1674,-0.7477 -0.5182,-1.4108 -1.8987,-1.6502 -3.3488,-3.6794 0.3135,2.408 -0.7447,3.4225 -0.1698,4.9857 z"
     fill="#4abcf4"
     id="path12" />
  <defs
     id="defs15">
    <filter
       id="filter0_i_521_10116"
       x="5"
       y="0"
       width="38"
       height="38"
       filterUnits="userSpaceOnUse"
       color-interpolation-filters="sRGB">
      <feFlood
         flood-opacity="0"
         result="BackgroundImageFix"
         id="feFlood12" />
      <feBlend
         mode="normal"
         in="SourceGraphic"
         in2="BackgroundImageFix"
         result="shape"
         id="feBlend12" />
      <feColorMatrix
         in="SourceAlpha"
         type="matrix"
         values="0 0 0 0 0 0 0 0 0 0 0 0 0 0 0 0 0 0 127 0"
         result="hardAlpha"
         id="feColorMatrix12" />
      <feOffset
         dx="-6"
         dy="-6"
         id="feOffset12" />
      <feComposite
         in2="hardAlpha"
         operator="arithmetic"
         k2="-1"
         k3="1"
         id="feComposite12"
         k1="0"
         k4="0" />
      <feColorMatrix
         type="matrix"
         values="0 0 0 0 0 0 0 0 0 0 0 0 0 0 0 0 0 0 0.04 0"
         id="feColorMatrix13" />
      <feBlend
         mode="normal"
         in2="shape"
         result="effect1_innerShadow_521_10116"
         id="feBlend13" />
    </filter>
    <filter
       id="filter1_f_521_10116"
       x="0.640625"
       y="9.59375"
       width="28.0156"
       height="24.75"
       filterUnits="userSpaceOnUse"
       color-interpolation-filters="sRGB">
      <feFlood
         flood-opacity="0"
         result="BackgroundImageFix"
         id="feFlood13" />
      <feBlend
         mode="normal"
         in="SourceGraphic"
         in2="BackgroundImageFix"
         result="shape"
         id="feBlend14" />
      <feGaussianBlur
         stdDeviation="5"
         result="effect1_foregroundBlur_521_10116"
         id="feGaussianBlur14" />
    </filter>
    <filter
       id="filter2_f_521_10116"
       x="19.0469"
       y="9.59375"
       width="28.0156"
       height="24.75"
       filterUnits="userSpaceOnUse"
       color-interpolation-filters="sRGB">
      <feFlood
         flood-opacity="0"
         result="BackgroundImageFix"
         id="feFlood14" />
      <feBlend
         mode="normal"
         in="SourceGraphic"
         in2="BackgroundImageFix"
         result="shape"
         id="feBlend15" />
      <feGaussianBlur
         stdDeviation="5"
         result="effect1_foregroundBlur_521_10116"
         id="feGaussianBlur15" />
    </filter>
  </defs>
</svg>
